<ttFont>
          <CharString index="0">
            rmoveto
            36 17 9 15 2 hvcurveto
            5 54 rlineto
            16 2 -15 9 -36 hhcurveto
            -37 -16 -10 -15 -1 hvcurveto
            -6 -54 -54 callsubr
            14 -8 37 hhcurveto
            return
          </CharString>
          <CharString index="1">
            31 14 7 13 9 hvcurveto
            73 99 8 7 57 callgsubr
            -23 -7 -20 -10 vhcurveto
            -39 -80 -12 42 callgsubr
            return
          </CharString>
          <CharString index="2">
            rmoveto
            12 hlineto
            22 14 5 16 11 hvcurveto
            65 91 rlineto
            5 7 4 6 4 vvcurveto
            9 1 -7 5 -12 hhcurveto
            -22 hlineto
            -16 -12 -5 -11 -7 hvcurveto
            -46 -64 -32 64 rlineto
            11 -7 -9 5 -15 hhcurveto
            -21 hlineto
            -13 -8 -5 -8 -1 hvcurveto
            -4 3 -8 2 -6 vhcurveto
            45 -91 rlineto
            -16 8 15 -5 21 hhcurveto
            return
          </CharString>
          <CharString index="3">
            rmoveto
            32 14 9 15 2 hvcurveto
            6 54 -77 callgsubr
            -32 -13 -10 -15 -2 hvcurveto
            -5 -54 -54 callsubr
            11 -8 31 hhcurveto
            137 hmoveto
            31 15 9 15 2 hvcurveto
            5 54 -16 callgsubr
            -32 -14 -10 -15 -1 hvcurveto
            -6 -54 -34 callsubr
            -8 31 hhcurveto
            return
          </CharString>
          <CharString index="4">
            rmoveto
            71 54 44 68 7 hvcurveto
            15 2 -9 6 -14 hhcurveto
            -14 -4 -8 -14 -7 hvcurveto
            -23 -12 -22 -15 -43 hhcurveto
            -43 -19 14 23 -8 hvcurveto
            15 -4 -3 8 -14 hhcurveto
            -15 -10 -6 -15 -2 hvcurveto
            -68 -7 46 -44 70 hhcurveto
            return
          </CharString>
          <CharString index="5">
            rmoveto
            15 -5 callsubr
            46 425 2 22 0 22 -3 22 rlinecurve
            5 3 5 -21 6 -22 8 -21 rlinecurve
            180 -436 rlineto
            -14 6 13 -5 20 hhcurveto
            18 hlineto
            30 38 callgsubr
            69 654 rlineto
            16 1 -13 9 -30 31 callsubr
            -45 -415 -2 -23 0 -23 3 -23 rlinecurve
            -5 -2 -6 22 -7 22 -9 23 rlinecurve
            -171 422 rlineto
            17 -7 -14 5 -20 hhcurveto
            -24 -75 callgsubr
            -1 hvcurveto
            -69 -47 callgsubr
            return
          </CharString>
          <CharString index="6">
            rmoveto
            102 callgsubr
            1 31 -13 -7 -6 -4 -12 hhcurveto
            -14 -9 10 37 4 hvcurveto
            9 98 14 119 16 155 rrcurveto
            16 -12 9 -32 vhcurveto
            -10 hlineto
            -30 -17 -7 -18 -2 hvcurveto
            -3 -20 -18 -175 -12 -118 -2 -25 -2 -30 -3 -25 rrcurveto
            -95 -6 48 -16 42 hhcurveto
            return
          </CharString>
          <CharString index="7">
            48 44 24 63 32 hvcurveto
            -69 5 43 -17 37 hhcurveto
            47 27 23 42 13 -3 12 -8 hvcurveto
            -6 -7 -4 -11 hhcurveto
            -14 -10 9 32 2 hvcurveto
            7 68 12 106 10 97 rrcurveto
            return
          </CharString>
          <CharString index="8">
            rmoveto
            18 5 3 9 10 -11 22 -39 80 hvcurveto
            20 -10 -23 7 -30 hhcurveto
            -31 -15 -3 -11 -11 7 -7 75 -99 hvcurveto
            -12 8 15 -8 31 hhcurveto
            return
          </CharString>
          <CharString index="9">
            rmoveto
            -17 hlineto
            -21 -18 -4 -13 -4 hvcurveto
            -93 -262 -9 -27 -8 -34 -10 -29 rlinecurve
            -5 hlineto
            -2 30 -4 32 -3 28 -34 261 rcurveline
            14 -2 -15 4 -21 hhcurveto
            -23 hlineto
            -29 -14 -7 -12 -1 hvcurveto
            -1 -4 1 -6 2 -9 80 -419 rcurveline
            2 -12 9 -3 10 -1 -91 -225 rcurveline
            -5 -11 -1 -3 -3 125 callgsubr
            -6 27 hhcurveto
            21 hlineto
            22 18 5 16 7 hvcurveto
            259 675 rlineto
            3 9 2 4 5 vvcurveto
            11 2 -13 7 -31 hhcurveto
            return
          </CharString>
          <CharString index="10">
            298 hlineto
            15 7 11 25 3 hvcurveto
            2 13 22 callsubr
            -192 hlineto
            248 367 1 3 1 3 1 6 rlinecurve
            21 2 -8 38 -9 hhcurveto
            -283 hlineto
            -15 -7 -13 callgsubr
            15 hhcurveto
            176 hlineto
            -248 -368 rlineto
            -1 -3 -2 -4 -5 vvcurveto
            -21 -3 9 -37 10 hhcurveto
            return
          </CharString>
          <CharString index="11">
            rmoveto
            34 hlineto
            22 17 5 12 4 hvcurveto
            92 286 5 23 6 23 5 24 rlinecurve
            4 hlineto
            1 -24 0 -23 2 -23 31 -286 116 callsubr
            23 hhcurveto
            33 hlineto
            22 17 5 12 3 hvcurveto
            153 474 2 6 1 7 1 4 rlinecurve
            11 1 -13 8 -31 hhcurveto
            -32 -19 -5 -12 -3 hvcurveto
            -83 -299 -8 -27 -7 -34 -7 -29 rlinecurve
            -5 hlineto
            30 -2 26 -1 36 vhcurveto
            -31 296 rlineto
            13 -2 -14 5 -22 hhcurveto
            -21 hlineto
            -22 -17 -5 -13 -3 hvcurveto
            -92 -295 -8 -30 -8 -34 -8 -30 rlinecurve
            -5 hlineto
            29 -1 37 -2 25 vhcurveto
            -20 299 rlineto
            12 -1 -16 5 -34 hhcurveto
            -34 -15 -8 -14 hvcurveto
            -1 -4 1 -11 1 -7 53 -466 116 callsubr
            22 hhcurveto
            endchar
          </CharString>
          <CharString index="12">
            rmoveto
            38 hlineto
            21 18 5 12 3 hvcurveto
            123 402 32 127 5 -127 41 -402 rlineto
            -12 1 16 -5 21 hhcurveto
            38 hlineto
            22 17 5 12 4 hvcurveto
            198 653 2 5 0 5 1 3 rlinecurve
            13 1 -13 8 -32 hhcurveto
            -14 hlineto
            -28 -17 -6 -14 -4 hvcurveto
            -115 -450 -13 -49 -7 -31 -12 -43 rlinecurve
            -1 32 -1 50 -3 42 -41 451 rcurveline
            14 -1 -16 4 -22 hhcurveto
            -26 hlineto
            -23 -15 -4 -14 -4 hvcurveto
            -130 -450 -11 -40 -12 -42 -11 -43 rlinecurve
            -1 36 1 40 -4 47 -31 450 rcurveline
            14 -1 -17 6 -27 hhcurveto
            -17 hlineto
            -33 -13 -8 -13 -2 hvcurveto
            -3 -1 -5 1 -5 vhcurveto
            77 -653 rlineto
            -12 1 15 -5 22 hhcurveto
            endchar
          </CharString>
          <CharString index="13">
            95 10 -38 56 -79 hhcurveto
            -52 -48 -31 -45 -33 hvcurveto
            33 -3 4 35 -27 hhcurveto
            -14 -61 -6 -20 -2 hvcurveto
            -1 -9 6 -34 -9 -87 -37 -343 rcurveline
            -16 -1 12 -9 30 hhcurveto
            18 4 callsubr
            38 360 rlineto
            34 20 31 25 32 hhcurveto
            41 15 -28 -51 -5 hvcurveto
            return
          </CharString>
          <CharString index="14">
            rmoveto
            21 17 callsubr
            287 203 354 rlineto
            5 8 3 7 5 vvcurveto
            1 11 -12 6 -32 1 rrcurveto
            -23 hlineto
            -22 -17 -2 -13 -7 hvcurveto
            -146 -284 -83 283 rlineto
            13 -4 -16 3 -22 hhcurveto
            -25 hlineto
            -33 -13 -7 -11 -1 hvcurveto
            -5 2 -7 4 -8 vhcurveto
            129 -351 -31 -290 29 callsubr
            return
          </CharString>
          <CharString index="15">
            388 25 callsubr
            28 3 hvcurveto
            2 14 rlineto
            28 3 79 callsubr
            -279 hlineto
            356 533 rlineto
            1 3 0 3 5 vvcurveto
            22 3 -10 42 -12 hhcurveto
            -366 123 callgsubr
            -28 -3 hvcurveto
            -2 -14 rlineto
            -28 -2 5 -11 15 hhcurveto
            257 hlineto
            -357 -533 rlineto
            -2 -3 -1 -4 -5 vvcurveto
            -22 -2 10 -41 13 hhcurveto
            return
          </CharString>
          <CharString index="16">
            -761 -106 callgsubr
            return
          </CharString>
          <CharString index="17">
            rmoveto
            20 -5 callsubr
            29 270 rlineto
            51 hlineto
            52 18 -19 -62 14 hvcurveto
            38 -195 rlineto
            -12 2 16 -7 23 hhcurveto
            23 hlineto
            31 15 7 12 1 hvcurveto
            3 0 5 -2 6 vhcurveto
            -41 195 -12 58 -16 45 -28 15 rlinecurve
            1 4 58 29 43 53 9 87 rlinecurve
            133 15 -68 50 -125 hhcurveto
            -153 hlineto
            -22 -10 -10 -23 -2 hvcurveto
            -69 -644 rlineto
            -16 -1 12 -9 31 hhcurveto
            105 391 rmoveto
            23 219 rlineto
            83 hlineto
            49 30 -32 -75 -8 hvcurveto
            -64 -7 -40 -48 -42 hhcurveto
            return
          </CharString>
          <CharString index="18">
            -93 callgsubr
            endchar
          </CharString>
          <CharString index="19">
            rmoveto
            23 hlineto
            30 54 callgsubr
            -30 hhcurveto
            -23 -75 callgsubr
            -1 hvcurveto
            -69 -47 callgsubr
            return
          </CharString>
          <CharString index="20">
            rmoveto
            52 67 30 111 12 hvcurveto
            60 571 -58 callgsubr
            -2 hvcurveto
            -59 -566 rlineto
            -48 -5 -16 -13 -19 -20 -8 5 -6 hhcurveto
            -16 -13 -42 -12 -1 hvcurveto
            -30 -3 41 -6 37 hhcurveto
            endchar
          </CharString>
          <CharString index="21">
            582 -103 callsubr
            return
          </CharString>
          <CharString index="22">
            rmoveto
            74 31 -36 11 hhcurveto
            17 31 47 20 2 hvcurveto
            29 4 -82 36 -81 hhcurveto
            -190 -87 -115 -246 -27 hvcurveto
            -240 -25 88 -113 159 hhcurveto
            79 108 21 54 6 hvcurveto
            30 289 rlineto
            23 2 -8 10 -21 hhcurveto
            -152 hlineto
            -16 25 callgsubr
            -20 rlineto
            -25 -4 6 -11 16 hhcurveto
            75 hlineto
            -21 -201 rlineto
            -6 -21 -25 -4 55 callgsubr
            16 hvcurveto
            167 18 53 92 113 hhcurveto
            return
          </CharString>
          <CharString index="23">
            599 -107 callsubr
            return
          </CharString>
          <CharString index="24">
            rmoveto
            61 6 27 35 49 vvcurveto
            -79 callsubr
            -37 -63 callgsubr
            return
          </CharString>
          <CharString index="25">
            168 -7 rmoveto
            48 46 28 51 32 hvcurveto
            -63 8 40 -16 36 hhcurveto
            36 28 18 28 6 hvcurveto
            20 callsubr
            -12 -7 -7 -4 -11 hhcurveto
            -15 -8 10 37 2 hvcurveto
            15 150 28 251 21 201 rrcurveto
            16 1 -13 9 -31 31 callsubr
            -26 -243 rlineto
            25 -22 -27 20 -46 hhcurveto
            -100 -75 -96 -170 -18 hvcurveto
            -165 -17 50 -106 93 hhcurveto
            return
          </CharString>
          <CharString index="26">
            rmoveto
            27 58 65 87 20 -12 13 -26 hvcurveto
            -13 hlineto
            -30 -13 -14 -21 hvcurveto
            -78 -24 -34 -21 vvcurveto
            -14 20 -3 13 vhcurveto
            return
          </CharString>
          <CharString index="27">
            rmoveto
            30 14 8 12 6 hvcurveto
            43 81 14 27 9 vvcurveto
            10 -13 4 -31 -29 -29 -5 -22 -6 vhcurveto
            -21 -80 -6 -23 -9 vvcurveto
            -9 6 -3 22 vhcurveto
            return
          </CharString>
          <CharString index="28">
            30 57 callsubr
            -5 vhcurveto
            -26 103 callgsubr
            -7 -6 vvcurveto
            1 -12 26 -19 -29 vvcurveto
            -16 -11 -17 -32 vhcurveto
            return
          </CharString>
          <CharString index="29">
            hhcurveto
            -127 -79 -97 -173 -18 hvcurveto
            -173 -18 58 -94 128 hhcurveto
            return
          </CharString>
          <CharString index="30">
            rmoveto
            35 29 14 29 6 hvcurveto
            16 5 0 31 -13 -7 -7 -4 -16 hhcurveto
            -19 -13 10 40 4 hvcurveto
            63 599 -14 callgsubr
            -64 -605 rlineto
            -102 -11 57 -28 53 hhcurveto
            return
          </CharString>
          <CharString index="31">
            27 hlineto
            20 16 4 13 5 hvcurveto
            53 152 rlineto
            200 hlineto
            return
          </CharString>
          <CharString index="32">
            -15 callsubr
            -11 hlineto
            -32 -15 -9 -16 return
          </CharString>
          <CharString index="33">
            -1 4 3 -1 4 hhcurveto
            8 6 4 10 7 hvcurveto
            19 12 9 5 11 hhcurveto
            return
          </CharString>
          <CharString index="34">
            30 47 -37 38 hhcurveto
            34 26 23 46 17 hvcurveto
            2 5 1 4 5 vvcurveto
            8 -3 4 -10 4 vhcurveto
            -8 3 rlineto
            2 -4 -3 1 -3 hhcurveto
            -8 -6 -5 -11 -6 hvcurveto
            -18 -11 -9 -5 -11 hhcurveto
            return
          </CharString>
          <CharString index="35">
            -56 callgsubr
            hintmask 11011000
            21 -33 -38 17 -58 hhcurveto
            -165 -99 -113 -243 -25 hvcurveto
            -245 -26 92 -113 150 122 callsubr
            hintmask 10111000
            13 122 -16 88 -38 58 rrcurveto
            hintmask 10110100
            68 3 30 37 52 vvcurveto
            hintmask 11011000
            -168 -360 -61 callsubr
            endchar
          </CharString>
          <CharString index="36">
            23 -18 -34 31 -52 hhcurveto
            -102 -76 -98 -167 -17 hvcurveto
            -129 -14 25 -135 117 hhcurveto
            43 42 22 50 31 hvcurveto
            -2 -18 rlineto
            -131 -13 -36 -51 -71 -71 -36 41 -11 hhcurveto
            -17 -5 -47 -18 6 hvcurveto
            -27 9 54 -34 84 hhcurveto
            123 67 79 215 22 hvcurveto
            return
          </CharString>
          <CharString index="37">
            -57 callsubr
            hintmask 11011000
            -22 callgsubr
            -45 callgsubr
            hintmask 10111000
            8 84 -8 67 -27 46 rrcurveto
            hintmask 10110100
            61 5 27 36 49 vvcurveto
            hintmask 11011000
            -276 -468 -91 callgsubr
            endchar
          </CharString>
          <CharString index="38">
            vstem
            83 -2 -102 callsubr
            return
          </CharString>
          <CharString index="39">
            -32 callgsubr
            28 6 4 40 8 69 hvcurveto
            return
          </CharString>
          <CharString index="40">
            39.79 106.78 184.69 105.97 return
          </CharString>
          <CharString index="41">
            rmoveto
            126 60 83 128 13 hvcurveto
            50 473 56 callsubr
            -23 hlineto
            -30 -14 51 callsubr
            -50 -473 rlineto
            -81 -9 -27 -36 -58 -26 -18 9 -9 hhcurveto
            -16 -1 -17 -46 -3 -20 rrcurveto
            -23 -2 54 -13 42 hhcurveto
            endchar
          </CharString>
          <CharString index="42">
            46 callsubr
            3 20 rlineto
            return
          </CharString>
          <CharString index="43">
            103.5 return
          </CharString>
          <CharString index="44">
            rmoveto
            16 callgsubr
            rrcurveto
            hintmask 1100100101000000
            -60 11 -60 0 5 49 5 36 30 18 41 2 -47 callsubr
            hintmask 1001101001000000
            -6 callgsubr
            hintmask 1100100101000000
            8 callsubr
            hintmask 1100110001000000
            84 callgsubr
            hintmask 1010101001000000
            -29 callsubr
            hintmask 1100110010000000
            -35 callgsubr
          </CharString>
          <CharString index="45">
            -50 callgsubr
            31 hhcurveto
            return
          </CharString>
          <CharString index="46">
            rmoveto
            -188 -20 -57 -78 -93 hhcurveto
            -93 -41 78 188 20 hvcurveto
            189 19 57 74 94 hhcurveto
            92 41 -74 -189 -19 hvcurveto
            return
          </CharString>
          <CharString index="47">
            62 callsubr
            -10 callgsubr
            -377 hlineto
            -15 -8 74 callgsubr
            -3 -20 rlineto
            -25 -2 5 -11 15 hhcurveto
            135 hlineto
            -62 -585 -62 callsubr
            return
          </CharString>
          <CharString index="48">
            vvcurveto
            -26 9 -64 84 23 22 5 12 19 vhcurveto
            9 6 5 10 12 vvcurveto
            18 -8 8 -15 vhcurveto
            return
          </CharString>
          <CharString index="49">
            rmoveto
            6 10 12 29 hhcurveto
            19 16 -8 -17 hvcurveto
            -44 -63 -18 -25 vvcurveto
            -9 26 -10 13 -6 callsubr
            vhcurveto
            return
          </CharString>
          <CharString index="50">
            rmoveto
            29 -21 47 -24 -4 -4 -1 -3 -5 vhcurveto
            -26 -18 rlineto
            -7 102 callsubr
            2 -12 26 -19 -29 vvcurveto
            -18 -13 -12 -19 -10 -12 3 7 -12 vhcurveto
            return
          </CharString>
          <CharString index="51">
            -100 callsubr
            -84 callgsubr
            return
          </CharString>
          <CharString index="52">
            38 11 52 14 14 -3 5 -13 hvcurveto
            -60 95 callgsubr
            -12 9 -31 vhcurveto
            -11 hlineto
            -30 -16 -7 -18 -2 hvcurveto
            -11 -102 rlineto
            return
          </CharString>
          <CharString index="53">
            rlineto
            -16 -2 return
          </CharString>
          <CharString index="54">
            -20 -200 rlineto
            -4 -35 -2 -21 -12 vvcurveto
            -81 -1 47 -21 41 hhcurveto
            47 116 callgsubr
            12 -8 hvcurveto
            return
          </CharString>
          <CharString index="55">
            rmoveto
            60 53 25 34 34 hvcurveto
            hintmask 10111110
            -39 31 49 -20 69 hhcurveto
            78 79 36 30 3 hvcurveto
            15 2 -20 43 -15 -11 -38 -38 -67 hhcurveto
            -69 -29 43 103 7 hvcurveto
            231 hlineto
            12 30 33 14 1 hvcurveto
            167 12 -45 91 -118 hhcurveto
            -50 -42 -14 -27 -35 hvcurveto
            26 -26 -43 15 -54 hhcurveto
            -83 -82 -32 -29 -2 hvcurveto
            -14 -1 18 -43 16 13 43 32 65 hhcurveto
            42 21 -19 -29 6 hvcurveto
            -10 -20 -7 -22 -5 -26 -153 -3 -91 -52 -13 -123 rrcurveto
            hintmask 01111110
            -100 -10 63 -57 81 hhcurveto
            224 312 rmoveto
            98 15 35 41 55 hhcurveto
            50 20 -44 -95 -10 hvcurveto
            -364 -222 rmoveto
            -42 -17 26 45 4 hvcurveto
            7 71 63 21 70 2 -4 -48 1 -42 8 -34 rrcurveto
            -27 -24 -32 -14 -34 hhcurveto
            endchar
          </CharString>
          <CharString index="56">
            1 -30 -46 36 -37 hhcurveto
            -35 -26 -22 -47 -16 hvcurveto
            -2 -5 -1 -5 -4 vvcurveto
            -6 3 -6 9 -4 vhcurveto
            return
          </CharString>
          <CharString index="57">
            16 1 -12 9 return
          </CharString>
          <CharString index="58">
            hmoveto
            -92 callsubr
            return
          </CharString>
          <CharString index="59">
            rmoveto
            9 21 12 10 13 hvcurveto
            18 15 15 18 27 vvcurveto
            48 -47 19 -41 -35 -44 -15 -13 -12 18 -24 8 vhcurveto
            6 10 14 32 hhcurveto
            17 15 -8 -16 -14 -11 -10 -20 -10 hvcurveto
            -14 -8 -9 -5 -7 vvcurveto
            -10 16 -11 23 vhcurveto
            return
          </CharString>
          <CharString index="60">
            99 4 65 66 12 101 3 35 -4 30 -11 24 3 2 rcurveline
            -2 11 16 0 20 hhcurveto
            15 117 callgsubr
            1 14 69 callsubr
            -144 hlineto
            return
          </CharString>
          <CharString index="61">
            rmoveto
            30 48 rlineto
            4 6 1 4 4 vvcurveto
            13 -20 12 -12 -5 -6 -3 -9 -6 vhcurveto
            -24 -38 rlineto
            25 -35 -43 12 -50 hhcurveto
            -165 -99 -110 -246 -26 hvcurveto
            -13 -126 17 -91 41 -59 -34 -54 rcurveline
            -4 -5 -1 -6 -4 vvcurveto
            -12 19 -13 12 6 7 5 8 4 vhcurveto
            27 43 rlineto
            -30 36 46 -14 53 122 callsubr
            14 132 -20 92 -45 58 rrcurveto
            -344 -282 rmoveto
            189 19 57 74 94 hhcurveto
            34 27 -10 -22 20 hvcurveto
            -249 -396 -8 41 -1 54 7 70 rlinecurve
            284 hmoveto
            -188 -20 -57 -78 -93 hhcurveto
            -39 -29 13 29 -20 hvcurveto
            252 401 12 -42 2 -58 -8 -77 rlinecurve
            endchar
          </CharString>
          <CharString index="62">
            rmoveto
            23 hlineto
            18 13 6 11 6 hvcurveto
            74 152 rlineto
            hintmask 11110100
            200 hlineto
            5 -138 rlineto
            -20 8 -9 17 vhcurveto
            256 hlineto
            15 7 11 25 4 hvcurveto
            1 20 rlineto
            25 3 -5 11 -15 hhcurveto
            -189 hlineto
            -9 220 rlineto
            197 110 callsubr
            3 79 callsubr
            hintmask 11111000
            -211 hlineto
            -8 204 rlineto
            242 hlineto
            15 -20 callgsubr
            -15 hhcurveto
            -351 hlineto
            -17 -11 -8 -19 -10 hvcurveto
            -319 -640 -4 -6 -1 -6 -1 -5 rlinecurve
            -11 -1 12 -7 31 hhcurveto
            178 261 rmoveto
            121 246 27 62 rlineto
            2 hlineto
            -5 -62 8 -246 rlineto
            endchar
          </CharString>
          <CharString index="63">
            18 21 185 7 61 vhcurveto
            105 11 -51 46 -68 hhcurveto
            -54 -46 -30 -38 -30 hvcurveto
            27 266 rlineto
            16 3 -12 9 -30 hhcurveto
            -18 44 callsubr
            -74 -705 -62 callsubr
            17 hlineto
            30 38 callgsubr
            37 360 rlineto
            21 11 34 38 42 hhcurveto
            43 16 -29 -50 -6 hvcurveto
            return
          </CharString>
          <CharString index="64">
            -4 167 -16 callsubr
            return
          </CharString>
          <CharString index="65">
            14 80 50 62 53 -52 20 -45 return
          </CharString>
          <CharString index="66">
            88.5 48 88.5 return
          </CharString>
          <CharString index="67">
            68 0 92 219 92 205 92 39 callgsubr
            322 700 rmoveto
            9 callgsubr
            -28 -264 rlineto
            -39 hlineto
            -27 -2 -33 -31 -19 6 -9 13 hvcurveto
            39 hlineto
            -30 -278 rlineto
            -23 -2 8 -10 21 hhcurveto
            174 hlineto
            157 106 98 252 26 hvcurveto
            251 26 -84 99 -157 hhcurveto
            104 -350 rmoveto
            -189 -20 -64 -69 -87 hhcurveto
            -91 hlineto
            23 219 rlineto
            100 hlineto
            26 3 34 31 19 -6 8 -14 hvcurveto
            -99 hlineto
            22 205 rlineto
            91 hlineto
            87 48 -70 -188 -19 hvcurveto
            endchar
          </CharString>
          <CharString index="68">
            -64 callgsubr
            111 return
          </CharString>
          <CharString index="69">
            hstem
            -39 callsubr
            vstem
            return
          </CharString>
          <CharString index="70">
            rmoveto
            -52 -19 65 119 13 hvcurveto
            120 12 35 59 58 hhcurveto
            28 23 -13 -23 17 hvcurveto
            -29 -266 rlineto
            -38 -25 -31 -23 -30 hhcurveto
            return
          </CharString>
          <CharString index="71">
            -90 callsubr
            endchar
          </CharString>
          <CharString index="72">
            -1 4 3 -1 3 hhcurveto
            7 5 4 10 7 hvcurveto
            19 10 9 5 10 hhcurveto
            return
          </CharString>
          <CharString index="73">
            -54 callsubr
            12 return
          </CharString>
          <CharString index="74" raw="1">
            9f6d1d0b   
          </CharString>
          <CharString index="75">
            vstem
            419 525 rmoveto
            -29 hlineto
            -22 -13 -2 -13 -9 hvcurveto
            -151 -220 rlineto
            -5 hlineto
            46 438 rlineto
            16 2 -12 9 -30 hhcurveto
            -17 44 callsubr
            -74 -705 -62 callsubr
            17 4 callsubr
            25 232 rlineto
            7 hlineto
            111 -242 rlineto
            -14 7 5 -1 22 hhcurveto
            30 hlineto
            30 14 4 11 1 hvcurveto
            4 -1 4 -4 9 vhcurveto
            -115 239 153 221 rlineto
            6 9 3 6 6 vvcurveto
            8 1 -10 6 -28 hhcurveto
            return
          </CharString>
          <CharString index="76">
            -106 callgsubr
            hintmask 11011100
            -88 callgsubr
            endchar
          </CharString>
          <CharString index="77">
            -26 callsubr
            hintmask 11101100
            return
          </CharString>
          <CharString index="78">
            55 470 rmoveto
            -46 -33 17 80 9 hvcurveto
            82 8 38 18 44 hhcurveto
            44 35 -18 -82 -8 hvcurveto
            -80 -9 -39 -17 -43 hhcurveto
            return
          </CharString>
          <CharString index="79">
            hstemhm
            46 107 140 157.25 return
          </CharString>
          <CharString index="80">
            40 callsubr
            22 hhcurveto
            return
          </CharString>
          <CharString index="81">
            180 -6 -95 callgsubr
            return
          </CharString>
          <CharString index="82">
            145 91 76 129 13 hvcurveto
            return
          </CharString>
          <CharString index="83">
            -52 0 92 220 92 204 92 return
          </CharString>
          <CharString index="84">
            37 351 rlineto
            19 9 33 39 36 28 7 -10 13 hhcurveto
            13 13 45 19 2 hvcurveto
            22 2 -11 22 -38 hhcurveto
            return
          </CharString>
          <CharString index="85">
            rmoveto
            17 7 4 8 9 -8 19 -29 72 hvcurveto
            19 -9 -25 7 -26 hhcurveto
            -26 -10 -4 -11 -10 8 -9 59 -85 hvcurveto
            -12 9 12 -7 21 hhcurveto
            return
          </CharString>
          <CharString index="86">
            rmoveto
            3 callsubr
            hintmask 11111010
            -66 callgsubr
            -165 -75 -149 -182 -162 93 -44 100 38 72 15 35 27 hvcurveto
            12 16 4 20 0 18 0 16 -5 13 0 flex1
            -16 -37 -47 -71 hhcurveto
            hintmask 11111100
            3 callgsubr
            hintmask 11111010
            49 callgsubr
          </CharString>
          <CharString index="87">
            1 -30 -46 36 -36 hhcurveto
            -35 -25 -22 -47 -16 hvcurveto
            -2 -5 -1 -5 -4 vvcurveto
            -6 3 -6 10 -4 vhcurveto
            return
          </CharString>
          <CharString index="88">
            9 16 2 hvcurveto
            return
          </CharString>
          <CharString index="89">
            14 -37 callgsubr
            return
          </CharString>
          <CharString index="90">
            rmoveto
            -74 callsubr
            return
          </CharString>
          <CharString index="91">
            87 327 121 0 -20 return
          </CharString>
          <CharString index="92">
            -13 9 -32 hhcurveto
            return
          </CharString>
          <CharString index="93">
            -754 -106 callgsubr
            return
          </CharString>
          <CharString index="94">
            -75 callsubr
            -2 hvcurveto
            return
          </CharString>
          <CharString index="95">
            hstemhm
            54.58 509.42 -508 110 return
          </CharString>
          <CharString index="96">
            rmoveto
            -11 hlineto
            -32 82 callgsubr
            -33 -313 rlineto
            return
          </CharString>
          <CharString index="97">
            12 hlineto
            31 16 14 22 2 hvcurveto
            8 74 20 48 24 41 5 8 6 10 1 6 rrcurveto
            13 1 -21 4 -13 hhcurveto
            -36 -86 -89 -118 -12 hvcurveto
            -19 -2 14 -14 30 hhcurveto
            return
          </CharString>
          <CharString index="98">
            hstemhm
            -64 callgsubr
            111.09 -13.41 66 return
          </CharString>
          <CharString index="99">
            rmoveto
            47 33 17 47 15 -6 11 -10 hvcurveto
            4 callgsubr
            return
          </CharString>
          <CharString index="100">
            3 callsubr
            -66 callgsubr
            return
          </CharString>
          <CharString index="101">
            -42 callsubr
            -35 -44 -18 -13 -11 18 -24 8 return
          </CharString>
          <CharString index="102">
            hlineto
            31 15 -37 callgsubr
            return
          </CharString>
          <CharString index="103">
            54 vstem
            306 -6 rmoveto
            159 127 127 232 231 -127 125 -159 -159 -128 -125 -231 -232 128 -127 159 hvcurveto
            53 vmoveto
            -127 -105 105 201 202 105 102 127 127 105 -102 -202 -201 -105 -105 -127 hvcurveto
            return
          </CharString>
          <CharString index="104">
            32 callsubr
            -38 -360 rlineto
            return
          </CharString>
          <CharString index="105">
            -1 3 3 -1 4 hhcurveto
            7 5 4 10 6 hvcurveto
            19 11 8 5 10 hhcurveto
            return
          </CharString>
          <CharString index="106">
            -28 -8 0 callsubr
            return
          </CharString>
          <CharString index="107">
            87 365 86 -5 -20 return
          </CharString>
          <CharString index="108">
            589 -17 callsubr
            return
          </CharString>
          <CharString index="109">
            -4 -11 hhcurveto
            -13 -8 8 return
          </CharString>
          <CharString index="110">
            -4 18 22 -2 29 hhcurveto
            return
          </CharString>
          <CharString index="111">
            hlineto
            30 14 -19 callsubr
            return
          </CharString>
          <CharString index="112">
            -7 -20 -9 vhcurveto
            -37 -80 -14 -22 -10 vvcurveto
            -9 6 -3 return
          </CharString>
          <CharString index="113">
            -77 rmoveto
            11 hlineto
            21 12 7 16 6 hvcurveto
            252 722 rlineto
            2 8 1 3 4 vvcurveto
            12 -9 8 -20 vhcurveto
            -12 hlineto
            -21 -13 -7 -16 -5 hvcurveto
            -252 -722 rlineto
            -2 -6 -1 -6 -3 vvcurveto
            -13 9 -7 21 vhcurveto
            endchar
          </CharString>
          <CharString index="114">
            hstemhm
            39.71 103.25 2.04 -64 callsubr
            43.5 102 return
          </CharString>
          <CharString index="115">
            -32 -23 -20 -30 -4 -39 -3 -31 8 -26 22 -16 -1 -3 rcurveline
            return
          </CharString>
          <CharString index="116">
            -32 12 callsubr
            return
          </CharString>
          <CharString index="117">
            28 hlineto
            9 5 6 15 1 hvcurveto
            1 7 rlineto
            15 2 -4 6 -9 hhcurveto
            -27 hlineto
            26 251 rlineto
            9 1 -7 5 -15 hhcurveto
            -17 hlineto
            -11 -10 -2 -7 -4 hvcurveto
            -174 -262 -3 -7 rlineto
            -12 -1 6 -24 8 hhcurveto
            return
          </CharString>
          <CharString index="118">
            -132 -14 26 -141 113 hhcurveto
            36 87 rmoveto
            -62 -5 99 89 10 hvcurveto
            111 12 31 66 66 hhcurveto
            36 20 -19 -15 13 hvcurveto
            -3 -15 -3 -19 -3 -21 -17 -166 rcurveline
            50 callsubr
          </CharString>
          <CharString index="119">
            -7 34 callsubr
            return
          </CharString>
          <CharString index="120">
            74 -7 74 callsubr
            return
          </CharString>
          <CharString index="121">
            -9 -11 callgsubr
            return
          </CharString>
          <CharString index="122">
            hstemhm
            17 418.36 -387.36 104 return
          </CharString>
          <CharString index="123">
            hstem
            50.35 112.38 return
          </CharString>
          <CharString index="124">
            36 callsubr
            31 return
          </CharString>
          <CharString index="125">
            -583 rmoveto
            -100 callsubr
            return
          </CharString>
          <CharString index="126">
            hlineto
            -31 -14 -8 -17 -1 hvcurveto
            -8 -73 -62 callsubr
            return
          </CharString>
          <CharString index="127">
            13 5 1 31 return
          </CharString>
          <CharString index="128">
            -11 -8 85 133 87 405 -20 return
          </CharString>
          <CharString index="129">
            rlineto
            24 callsubr
            return
          </CharString>
          <CharString index="130">
            hvcurveto
            -52 callgsubr
            return
          </CharString>
          <CharString index="131">
            25 2 79 callsubr
            return
          </CharString>
          <CharString index="132">
            hlineto
            15 8 11 return
          </CharString>
          <CharString index="133">
            179 -7 86 -86 90 142 80 139 86 hstemhm
            25 104 137.96 108.04 175.34 98.66 return
          </CharString>
          <CharString index="134">
            -38 -212 77 579 79 -68 68 -68 75 return
          </CharString>
          <CharString index="135">
            hstemhm
            39.67 103.47 return
          </CharString>
          <CharString index="136">
            -50 callgsubr
            32 hhcurveto
            return
          </CharString>
          <CharString index="137">
            -1 callsubr
            55 43 91 44 hstemhm
            39.71 103.25 44.04 43 62 102 -76 44 return
          </CharString>
          <CharString index="138">
            hhcurveto
            -15 -75 callgsubr
            -1 hvcurveto
            return
          </CharString>
          <CharString index="139">
            -11 hlineto
            -32 -15 -9 -16 -2 hvcurveto
            return
          </CharString>
          <CharString index="140">
            20 callsubr
            -13 return
          </CharString>
          <CharString index="141">
            86 365 86 return
          </CharString>
          <CharString index="142">
            35.87 375.16 return
          </CharString>
          <CharString index="143">
            hlineto
            31 -18 callsubr
            return
          </CharString>
          <CharString index="144">
            -255 -4 99 callgsubr
            return
          </CharString>
          <CharString index="145">
            hstem
            39.75 586.25 vstem
            return
          </CharString>
          <CharString index="146">
            68 callsubr
            45.67001 -64 callsubr
            143.82 111 vstem
            return
          </CharString>
          <CharString index="147">
            -23 -2 7 -10 return
          </CharString>
          <CharString index="148">
            23 callgsubr
            hstem
            51.77 111.6 293.12999 110.76 vstem
            return
          </CharString>
          <CharString index="149">
            51 callgsubr
            endchar
          </CharString>
          <CharString index="150">
            92 529 93 return
          </CharString>
          <CharString index="151">
            hlineto
            -31 82 callgsubr
            return
          </CharString>
          <CharString index="152">
            rmoveto
            -7 -6 -4 -12 hhcurveto
            return
          </CharString>
          <CharString index="153">
            11 25 2 hvcurveto
            return
          </CharString>
          <CharString index="154">
            23 callgsubr
            -38 callsubr
            return
          </CharString>
          <CharString index="155">
            -15 callsubr
            -10 112 callsubr
            -1 -10 2 -180 rlineto
            -12 2 7 -5 15 hhcurveto
            return
          </CharString>
          <CharString index="156">
            hlineto
            27 2 37 13 18 -5 10 -15 hvcurveto
            return
          </CharString>
          <CharString index="157">
            -79 -23 -38 -31 -34 hhcurveto
            endchar
          </CharString>
          <CharString index="158">
            -9 -16 -1 hvcurveto
            return
          </CharString>
          <CharString index="159">
            54 hstemhm
            51.65 111.68 219.67001 70 3.32 return
          </CharString>
          <CharString index="160">
            104 callsubr
            155.43001 70 -40.74 return
          </CharString>
          <CharString index="161">
            hstem
            63 107 121 109 vstem
            return
          </CharString>
          <CharString index="162">
            hstemhm
            -16 485.25 return
          </CharString>
          <CharString index="163">
            82 callsubr
            -30 hhcurveto
            return
          </CharString>
          <CharString index="164">
            -20 47 -24 -5 -4 -1 -3 return
          </CharString>
          <CharString index="165">
            hstemhm
            79 103 107 105 -79 107 return
          </CharString>
          <CharString index="166">
            -99 143 rmoveto
            113 173 1 -1 -5 -22 -4 -20 -3 -31 rlinecurve
            -11 -99 rlineto
            endchar
          </CharString>
          <CharString index="167">
            67 callsubr
            111 return
          </CharString>
          <CharString index="168">
            hstem
            35 callsubr
            vstem
            return
          </CharString>
          <CharString index="169">
            rmoveto
            22 36 callsubr
            return
          </CharString>
          <CharString index="170">
            49 409.13 return
          </CharString>
          <CharString index="171">
            -247 702 -20 return
          </CharString>
          <CharString index="172">
            rmoveto
            47 72 callsubr
            hvcurveto
            -32 callgsubr
            26 hvcurveto
            return
          </CharString>
          <CharString index="173">
            hstemhm
            46 107 -17 -64 callsubr
            53.5 157.25 return
          </CharString>
          <CharString index="174">
            65 callgsubr
            -64 callgsubr
            return
          </CharString>
          <CharString index="175">
            hstem
            51.65 111.68 return
          </CharString>
          <CharString index="176">
            rlineto
            23 2 -5 10 -16 hhcurveto
            return
          </CharString>
          <CharString index="177">
            hstemhm
            40 445 -417 104 return
          </CharString>
          <CharString index="178">
            -50 -24 -35 -42 -6 -57 rrcurveto
            return
          </CharString>
          <CharString index="179">
            116 callgsubr
            11 -8 return
          </CharString>
          <CharString index="180">
            -24 87 callsubr
            return
          </CharString>
          <CharString index="181">
            92 617 -20 return
          </CharString>
          <CharString index="182">
            -173 -18 58 -94 128 hhcurveto
            8 86 rmoveto
            -38 callgsubr
            return
          </CharString>
          <CharString index="183">
            hstem
            63 callsubr
            vstem
            return
          </CharString>
          <CharString index="184">
            23 71 callgsubr
            return
          </CharString>
          <CharString index="185">
            -28 -3 61 -35 73 hhcurveto
            return
          </CharString>
          <CharString index="186">
            -6 11 -15 hhcurveto
            return
          </CharString>
          <CharString index="187">
            6 hlineto
            15 9 5 12 3 hvcurveto
            15 63 27 118 1 9 rrcurveto
            16 return
          </CharString>
          <CharString index="188">
            77 hstem
            46 242.12 vstem
            65 return
          </CharString>
          <CharString index="189">
            rlineto
            16 1 -13 9 return
          </CharString>
          <CharString index="190">
            -172 432 98 0 -20 hstemhm
            49 294 -255 102 hintmask 01100000
            return
          </CharString>
          <CharString index="191">
            -107 525 -20 61 callsubr
            return
          </CharString>
          <CharString index="192">
            hlineto
            16 8 115 callsubr
            24 2 -6 11 -16 hhcurveto
            return
          </CharString>
          <CharString index="193">
            174 18 -57 96 -128 hhcurveto
            -127 -79 -97 -173 -18 hvcurveto
            return
          </CharString>
          <CharString index="194">
            -2 hvcurveto
            -1 -7 return
          </CharString>
          <CharString index="195">
            -239 -7 86 674 -20 hstem
            64 callgsubr
            vstem
            return
          </CharString>
          <CharString index="196">
            rlinecurve
            95 -155 rlineto
            -8 6 7 -5 8 hhcurveto
            19 24 21 11 return
          </CharString>
          <CharString index="197">
            hhcurveto
            22 hlineto
            12 8 5 8 1 hvcurveto
            return
          </CharString>
          <CharString index="198">
            438 85 149 85 hstem
            return
          </CharString>
          <CharString index="199">
            hstem
            48 104 56 102 vstem
            return
          </CharString>
          <CharString index="200">
            -92 -9 80 -35 97 hhcurveto
            return
          </CharString>
          <CharString index="201">
            -104 0 85 353 85 return
          </CharString>
          <CharString index="202">
            582 151 hstem
            return
          </CharString>
          <CharString index="203">
            0 92 516 92 return
          </CharString>
          <CharString index="204">
            13 callsubr
            108 callsubr
            414 66 vstem
            return
          </CharString>
          <CharString index="205">
            -188 -20 -57 -78 -93 hhcurveto
            endchar
          </CharString>
          <CharString index="206">
            105.69 -7.95 66 hintmask 00000000
            return
          </CharString>
          <CharString index="207">
            -1 rmoveto
            14 hlineto
            15 8 5 9 1 hvcurveto
            8 80 rlineto
            return
          </CharString>
          <CharString index="208">
            70 654 rlineto
            -50 callsubr
            return
          </CharString>
          <CharString index="209">
            -4 -3 -6 -7 vvcurveto
            return
          </CharString>
          <CharString index="210">
            -236 185 return
          </CharString>
          <CharString index="211">
            54 hstemhm
            39.79 106.78 return
          </CharString>
          <CharString index="212">
            28 callgsubr
            vstem
            return
          </CharString>
          <CharString index="213">
            33 callgsubr
            endchar
          </CharString>
          <CharString index="214">
            119 callgsubr
            -24 return
          </CharString>
          <CharString index="215">
            hstem
            56 110 return
          </CharString>
          <CharString index="216">
            hlineto
            16 8 9 22 2 hvcurveto
            1 7 rlineto
            22 return
          </CharString>
          <CharString index="217">
            -36 callgsubr
            2 20 rlineto
            25 return
          </CharString>
          <CharString index="218">
            30 22 47 19 hvcurveto
            3 6 1 5 4 vvcurveto
            return
          </CharString>
          <CharString index="219">
            hlineto
            -32 -15 51 callsubr
            return
          </CharString>
          <CharString index="220">
            7 13 hhcurveto
            21 27 -10 -9 return
          </CharString>
          <CharString index="221">
            rlineto
            25 3 -6 11 -16 hhcurveto
            return
          </CharString>
          <CharString index="222">
            12 24 3 hvcurveto
            1 7 rlineto
            return
          </CharString>
          <CharString index="223">
            rcurveline
            -12 1 15 -5 return
          </CharString>
          <CharString index="224">
            hlineto
            17 9 5 10 return
          </CharString>
          <CharString index="225">
            -7 94 615 -20 return
          </CharString>
          <CharString index="226">
            702 -20 hstem
            return
          </CharString>
          <CharString index="227">
            -1 callsubr
            77 73 return
          </CharString>
          <CharString index="228">
            66 -29 66 55 callsubr
            return
          </CharString>
          <CharString index="229">
            hhcurveto
            166 100 113 245 25 hvcurveto
            return
          </CharString>
          <CharString index="230">
            86 363 88 return
          </CharString>
          <CharString index="231">
            9 23 3 hvcurveto
            return
          </CharString>
        <CharString name=".notdef">
          5 0 50 600 50 hstem
          -20 573 vstem
          -20 hmoveto
          500 hlineto
          73 700 rlineto
          -500 hlineto
          218 -305 rmoveto
          -144 255 rlineto
          340 hlineto
          -428 -555 rmoveto
          53 510 144 -255 rlineto
          203 -255 rmoveto
          -143 255 196 255 rlineto
          -427 -555 rmoveto
          196 255 144 -255 rlineto
          endchar
        </CharString>
        <CharString name="A">
          -43 callsubr
          55 callsubr
          hintmask 10110000
          22 -2 -106 callgsubr
          hintmask 11010000
          -88 callgsubr
          endchar
        </CharString>
        <CharString name="AE">
          52 callgsubr
          18 -2 -45 callsubr
        </CharString>
        <CharString name="AEacute">
          52 callgsubr
          422 759 rmoveto
          -106 callsubr
          -404 -761 -45 callsubr
        </CharString>
        <CharString name="Aacute">
          -43 callsubr
          55 callsubr
          hintmask 10110000
          280 759 rmoveto
          -106 callsubr
          -258 -91 callsubr
          hintmask 11010000
          -88 callgsubr
          endchar
        </CharString>
        <CharString name="Abreve">
          -43 callsubr
          77 73 62 callgsubr
          306 759 -103 callsubr
          -284 -761 -79 callgsubr
        </CharString>
        <CharString name="Acircumflex">
          -43 callsubr
          70 143 62 callgsubr
          210 752 -107 callgsubr
          -188 -754 -79 callgsubr
        </CharString>
        <CharString name="Adieresis">
          -43 callsubr
          94 103 hstemhm
          200.5 -41 callsubr
          hintmask 10111100
          238 776 -104 callsubr
          -353 -778 -31 callsubr
        </CharString>
        <CharString name="Agrave">
          -43 callsubr
          55 callsubr
          hintmask 10110000
          321 759 -99 callsubr
          -299 -91 callsubr
          hintmask 11010000
          -88 callgsubr
          endchar
        </CharString>
        <CharString name="Amacron">
          -43 callsubr
          103 77 62 callgsubr
          210 785 -90 callgsubr
          -188 -787 -79 callgsubr
        </CharString>
        <CharString name="Aogonek">
          -4 -172 65 274 -16 callsubr
          hstemhm
          328 63 hintmask 11011000
          476 -101 rmoveto
          -1 callgsubr
          16 5 23 10 23 hvcurveto
          23 hlineto
          26 13 7 11 1 hvcurveto
          1 5 -1 4 -1 6 -109 649 rcurveline
          15 -2 -14 7 -28 hhcurveto
          -36 hlineto
          -27 -16 -7 -15 -6 hvcurveto
          -242 -649 rlineto
          -2 -6 -2 -4 -5 125 callgsubr
          -7 28 hhcurveto
          -76 callsubr
          21 -142 rlineto
          -28 -39 -8 -43 -25 -59 callsubr
          -305 355 rmoveto
          hintmask 11101000
          -88 callgsubr
          endchar
        </CharString>
        <CharString name="Aring">
          -43 callsubr
          55 43 91 44 hstemhm
          224 43 88 44 hintmask 10111110
          301 737 -78 callgsubr
          -284 -782 -106 callgsubr
          hintmask 11011110
          -88 callgsubr
          endchar
        </CharString>
        <CharString name="Aringacute">
          -4 167 87 496 44 25 111 hstemhm
          211 43 88 44 hintmask 00000000
          hintmask 11111000
          293 819 rmoveto
          28 20 8 12 12 hvcurveto
          74 66 9 4 7 vvcurveto
          11 1 -17 3 -34 hhcurveto
          -34 -24 -6 -21 -14 hvcurveto
          -14 -22 -10 -14 -22 -36 rrcurveto
          -9 6 -3 19 vhcurveto
          175 -788 rmoveto
          -104 619 rlineto
          hintmask 11011000
          12 15 8 18 2 21 rrcurveto
          53 6 -31 37 -54 hhcurveto
          -52 -39 -37 -53 -5 hvcurveto
          -2 -20 3 -18 8 -14 -232 -621 rcurveline
          -2 -6 -2 -4 -5 125 callgsubr
          -7 28 hhcurveto
          -76 callsubr
          23 -152 rlineto
          -13 1 16 -4 19 hhcurveto
          27 hlineto
          26 13 7 11 1 hvcurveto
          hintmask 11111000
          1 5 -1 4 -1 6 rrcurveto
          hintmask 11011000
          -214 673 rmoveto
          29 4 17 17 28 hhcurveto
          28 14 -17 -29 -3 hvcurveto
          -29 -3 -18 -16 -28 hhcurveto
          -28 -14 16 29 3 hvcurveto
          -83 -450 rmoveto
          -88 callgsubr
          endchar
        </CharString>
        <CharString name="Atilde">
          -43 callsubr
          83 121 callsubr
          hintmask 10101100
          173 60 callgsubr
          hintmask 10110100
          -97 callgsubr
          hintmask 10101100
          -83 callgsubr
          -141 -771 -106 callgsubr
          hintmask 11001100
          -88 callgsubr
          endchar
        </CharString>
        <CharString name="B">
          30 0 89 225 89 208 89 hstemhm
          382 108 -99 110 hintmask 11110000
          76 hmoveto
          176 hlineto
          148 76 68 132 14 hvcurveto
          12 113 -72 41 -35 12 rrcurveto
          4 vlineto
          hintmask 11101000
          51 20 48 64 7 71 rrcurveto
          106 12 -56 69 -139 hhcurveto
          -168 hlineto
          -22 14 callsubr
          -67 -634 rlineto
          hintmask 11110000
          -27 callsubr
          119 403 rmoveto
          22 208 rlineto
          hintmask 11101000
          93 hlineto
          63 26 -31 -69 -8 hvcurveto
          -64 -6 -40 -44 -56 hhcurveto
          -127 -314 rmoveto
          24 225 rlineto
          hintmask 11110000
          103 hlineto
          68 32 -37 -70 -7 hvcurveto
          -75 -8 -38 -43 -60 hhcurveto
          endchar
        </CharString>
        <CharString name="C">
          79 callgsubr
          16 callsubr
          vstem
          284 -7 -87 callgsubr
        </CharString>
        <CharString name="CR">
          -269 endchar
        </CharString>
        <CharString name="Cacute">
          79 callgsubr
          16 callsubr
          vstem
          298 759 rmoveto
          -106 callsubr
          -14 -766 -87 callgsubr
        </CharString>
        <CharString name="Cacute.loclPLK">
          79 callgsubr
          52 151 16 callsubr
          vstem
          307 759 -80 callsubr
          -23 -766 -87 callgsubr
        </CharString>
        <CharString name="Ccaron">
          79 callgsubr
          50 143 16 callsubr
          vstem
          318 757 -105 callsubr
          -34 -764 -87 callgsubr
        </CharString>
        <CharString name="Ccedilla">
          -50 -211 56 148 95 524 95 hstem
          50.58 112.15 81.27 74 vstem
          452 690 rmoveto
          9 -22 -36 8 -37 hhcurveto
          -191 -85 -116 -240 -26 hvcurveto
          -21 -211 53 -113 128 -27 rrcurveto
          -20 -60 -3 -11 -8 -67 callgsubr
          14 50 rlineto
          -1 8 7 0 8 hhcurveto
          42 38 9 10 22 hvcurveto
          22 11 8 14 1 19 1 25 -8 39 -27 -11 rrcurveto
          -11 -24 -27 -10 -38 hhcurveto
          -104 -42 85 178 19 hvcurveto
          179 20 58 82 104 hhcurveto
          36 24 -9 -9 18 hvcurveto
          23 -12 17 53 2 22 2 17 -3 10 -16 6 rrcurveto
          endchar
        </CharString>
        <CharString name="Ccircumflex">
          79 callgsubr
          45 143 16 callsubr
          vstem
          228 752 -107 callgsubr
          56 -759 -87 callgsubr
        </CharString>
        <CharString name="Cdotaccent">
          79 callgsubr
          69 103 16 callsubr
          116.26999 -12 callgsubr
          325 776 -107 callsubr
          -41 -783 -87 callgsubr
        </CharString>
        <CharString name="D">
          68 96 callsubr
          39 callgsubr
          74 hmoveto
          -59 callgsubr
          90 92 rmoveto
          -33 callgsubr
          endchar
        </CharString>
        <CharString name="Dcaron">
          68 96 callsubr
          57 143 39 callgsubr
          322 757 -105 callsubr
          -248 -757 rmoveto
          -59 callgsubr
          90 92 rmoveto
          -33 callgsubr
          endchar
        </CharString>
        <CharString name="Dcroat">
          -40 callsubr
        </CharString>
        <CharString name="E">
          81 callgsubr
          76 hmoveto
          -105 callgsubr
          endchar
        </CharString>
        <CharString name="Eacute">
          81 callgsubr
          275 759 rmoveto
          -106 callsubr
          -199 -759 rmoveto
          -105 callgsubr
          endchar
        </CharString>
        <CharString name="Ebreve">
          -24 callsubr
          59 73 76 callsubr
          301 759 -103 callsubr
          -225 -759 rmoveto
          -105 callgsubr
          endchar
        </CharString>
        <CharString name="Ecaron">
          -24 callsubr
          57 143 76 callsubr
          295 757 -105 callsubr
          -219 -757 rmoveto
          -105 callgsubr
          endchar
        </CharString>
        <CharString name="Ecircumflex">
          -24 callsubr
          52 143 76 callsubr
          205 752 -107 callgsubr
          -129 -752 rmoveto
          -105 callgsubr
          endchar
        </CharString>
        <CharString name="Edieresis">
          -24 callsubr
          76 103 hstem
          195.5 -41 callsubr
          vstem
          233 776 -104 callsubr
          -294 -776 rmoveto
          -105 callgsubr
          endchar
        </CharString>
        <CharString name="Edotaccent">
          -24 callsubr
          76 103 hstem
          256 -12 callgsubr
          302 776 -107 callsubr
          -226 -776 rmoveto
          -105 callgsubr
          endchar
        </CharString>
        <CharString name="Egrave">
          81 callgsubr
          316 759 -99 callsubr
          -240 -759 rmoveto
          -105 callgsubr
          endchar
        </CharString>
        <CharString name="Emacron">
          -24 callsubr
          85 77 76 callsubr
          205 785 -90 callgsubr
          -129 -785 rmoveto
          -105 callgsubr
          endchar
        </CharString>
        <CharString name="Eng">
          81 -212 85 829 -20 hstem
          42 525 vstem
          525 702 rmoveto
          -15 -75 callgsubr
          -1 hvcurveto
          -45 -415 -2 -23 0 -23 3 -23 rlinecurve
          -5 -2 -6 22 -7 22 -9 23 rlinecurve
          -171 422 rlineto
          17 -7 -14 5 -20 hhcurveto
          -24 -75 callgsubr
          -1 hvcurveto
          -69 -47 callgsubr
          15 -5 callsubr
          46 425 2 22 0 22 -3 22 rlinecurve
          5 3 5 -21 6 -22 8 -21 rlinecurve
          181 -440 -8 -79 rlineto
          -49 -5 -16 -12 -19 -20 -8 5 -7 hhcurveto
          -16 -12 -42 -12 -1 hvcurveto
          -30 -3 41 -6 37 hhcurveto
          51 68 30 111 12 hvcurveto
          78 748 56 callsubr
          endchar
        </CharString>
        <CharString name="Eogonek">
          -52 -177 65 112 92 220 92 204 92 hstem
          299 63 vstem
          447 -106 rmoveto
          -1 callgsubr
          20 7 30 16 29 hvcurveto
          3 6 2 9 1 11 3 20 rcurveline
          -19 callgsubr
          -211 hlineto
          23 220 rlineto
          189 hlineto
          15 8 -54 callgsubr
          -6 11 -15 hhcurveto
          -188 hlineto
          21 204 rlineto
          211 110 callsubr
          2 -5 11 -15 hhcurveto
          -290 hlineto
          -22 14 callsubr
          -67 -634 37 callgsubr
          247 hlineto
          -18 -33 -6 -33 -21 -59 callsubr
          endchar
        </CharString>
        <CharString name="Eth">
          -40 callsubr
        </CharString>
        <CharString name="Euro">
          -6 -7 95 147 69 89 69 151 94 hstem
          64 113 vstem
          283 -7 rmoveto
          90 81 45 31 3 hvcurveto
          14 2 -16 47 -21 -14 -42 -42 -72 hhcurveto
          -68 -43 45 102 -6 hvcurveto
          212 109 callsubr
          2 -6 9 -16 hhcurveto
          -219 hlineto
          1 15 2 16 1 16 2 14 1 14 2 14 rrcurveto
          219 109 callsubr
          3 -6 9 -16 hhcurveto
          -213 hlineto
          105 28 51 46 72 68 28 -37 12 hhcurveto
          18 30 46 20 2 hvcurveto
          26 3 -68 39 -84 hhcurveto
          -139 -92 -80 -165 -40 hvcurveto
          -42 hlineto
          -16 -7 -9 -22 -3 hvcurveto
          -1 -7 rlineto
          -22 -2 6 -9 16 hhcurveto
          35 hlineto
          -6 -42 -1 -16 -2 -16 -1 -15 rlinecurve
          -34 hlineto
          -16 -8 -9 -22 119 callgsubr
          -22 -2 5 -9 16 hhcurveto
          41 hlineto
          -165 5 72 -77 142 hhcurveto
          endchar
        </CharString>
        <CharString name="F">
          -86 312 92 204 92 hstem
          48 384.13 vstem
          89 -2 62 callsubr
          31 289 rlineto
          170 hlineto
          15 -20 callgsubr
          -15 hhcurveto
          -170 hlineto
          21 204 rlineto
          185 110 callsubr
          2 -5 11 -15 hhcurveto
          -264 hlineto
          -22 14 callsubr
          -68 -644 45 callgsubr
          endchar
        </CharString>
        <CharString name="G">
          43 32 callgsubr
          105 callsubr
          352 611 -85 callsubr
          endchar
        </CharString>
        <CharString name="Gbreve">
          43 32 callgsubr
          52 73 105 callsubr
          348 759 -103 callsubr
          4 -148 -85 callsubr
          endchar
        </CharString>
        <CharString name="Gcircumflex">
          43 32 callgsubr
          45 143 105 callsubr
          252 752 -107 callgsubr
          100 -141 -85 callsubr
          endchar
        </CharString>
        <CharString name="Gcommaaccent">
          43 32 callgsubr
          28 callgsubr
          69.83 94 vstem
          352 611 -85 callsubr
          -62 -662 rmoveto
          -13 hlineto
          -30 -13 -14 -21 hvcurveto
          -78 -24 -34 -21 vvcurveto
          -14 20 -3 13 27 58 65 87 20 -12 13 -26 vhcurveto
          endchar
        </CharString>
        <CharString name="Gdotaccent">
          43 32 callgsubr
          69 103 28 callgsubr
          138.83 -12 callgsubr
          349 776 -107 callsubr
          3 -165 -85 callsubr
          endchar
        </CharString>
        <CharString name="H">
          92 312 93 297 -20 hstem
          48 525 vstem
          89 -2 -17 callgsubr
          endchar
        </CharString>
        <CharString name="Hbar">
          92 312 93 82 78 137 -20 hstem
          111 110 236 110 vstem
          634 565 rmoveto
          -73 hlineto
          12 112 -77 callgsubr
          -22 -75 callgsubr
          -1 hvcurveto
          -12 -112 rlineto
          -236 hlineto
          12 112 -16 callgsubr
          -23 30 callgsubr
          -12 -112 rlineto
          -73 50 callgsubr
          74 hlineto
          -49 -464 45 callgsubr
          77 callsubr
          31 289 rlineto
          236 hlineto
          -30 -289 -62 callsubr
          22 36 callsubr
          50 464 rlineto
          72 49 callsubr
          -200 -160 rmoveto
          -236 hlineto
          9 82 rlineto
          236 hlineto
          endchar
        </CharString>
        <CharString name="Hcircumflex">
          92 312 93 297 -20 70 143 hstem
          48 525 vstem
          259 752 -107 callgsubr
          -170 -754 -17 callgsubr
          endchar
        </CharString>
        <CharString name="I">
          64 callsubr
          hstem
          51 179 vstem
          92 -2 -88 callsubr
          endchar
        </CharString>
        <CharString name="IJ">
          108 118 callsubr
          hstem
          51 529 vstem
          92 -2 -88 callsubr
          239 -5 -66 callsubr
        </CharString>
        <CharString name="Iacute">
          64 callsubr
          hstem
          51 242 vstem
          158 759 rmoveto
          -106 callsubr
          -66 -761 -88 callsubr
          endchar
        </CharString>
        <CharString name="Iacute_J.loclNLD">
          108 118 callsubr
          hstem
          51 591 vstem
          158 759 rmoveto
          -106 callsubr
          349 hmoveto
          -106 callsubr
          -415 -761 -88 callsubr
          239 -5 -66 callsubr
        </CharString>
        <CharString name="Ibreve">
          64 callsubr
          77 73 hstem
          51 265 vstem
          184 759 -103 callsubr
          -92 -761 -88 callsubr
          endchar
        </CharString>
        <CharString name="Icircumflex">
          64 callsubr
          70 143 hstem
          51 245 vstem
          88 752 -107 callgsubr
          4 -754 -88 callsubr
          endchar
        </CharString>
        <CharString name="Idieresis">
          64 callsubr
          94 103 hstem
          78.5 -41 callsubr
          vstem
          116 776 -104 callsubr
          -161 -778 -88 callsubr
          endchar
        </CharString>
        <CharString name="Idotaccent">
          64 callsubr
          94 103 hstem
          139 -12 callgsubr
          185 776 -107 callsubr
          -93 -778 -88 callsubr
          endchar
        </CharString>
        <CharString name="Igrave">
          64 callsubr
          hstem
          51 179 vstem
          199 759 -99 callsubr
          -107 -761 -88 callsubr
          endchar
        </CharString>
        <CharString name="Imacron">
          64 callsubr
          103 77 hstem
          51 260.12 vstem
          88 785 -90 callgsubr
          4 -787 -88 callsubr
          endchar
        </CharString>
        <CharString name="Iogonek">
          -247 -175 65 812 -20 hstem
          71 63 vstem
          219 -104 rmoveto
          -1 callgsubr
          20 7 30 16 29 hvcurveto
          2 3 1 4 4 vvcurveto
          101 callsubr
          -30 hhcurveto
          -23 -75 callgsubr
          -1 hvcurveto
          -69 -47 callgsubr
          1 hlineto
          -17 -32 -5 -31 -20 -59 callsubr
          endchar
        </CharString>
        <CharString name="Itilde">
          64 callsubr
          83 65 callgsubr
          42 273 hintmask 10110000
          64 766 rmoveto
          -2 callsubr
          hintmask 11010000
          -55 callgsubr
          hintmask 10110000
          -20 callsubr
          37 -771 -88 callsubr
          endchar
        </CharString>
        <CharString name="J">
          -154 118 callsubr
          hstem
          -25 343 vstem
          69 -7 -66 callsubr
        </CharString>
        <CharString name="Jcircumflex">
          -154 118 callsubr
          70 143 hstem
          -25 408 vstem
          175 752 -107 callgsubr
          -106 -759 -66 callsubr
        </CharString>
        <CharString name="K">
          1 119 callsubr
          48 481 -31 callgsubr
          endchar
        </CharString>
        <CharString name="Kcommaaccent">
          1 103 callsubr
          753 -20 hstem
          184 94 -31 callgsubr
          104 -234 -81 callsubr
          endchar
        </CharString>
        <CharString name="L">
          -101 0 118 callgsubr
          49 326 vstem
          76 hmoveto
          -69 callgsubr
          endchar
        </CharString>
        <CharString name="Lacute">
          -101 0 118 callgsubr
          49 326 vstem
          157 760 rmoveto
          -106 callsubr
          -81 -760 rmoveto
          -69 callgsubr
          endchar
        </CharString>
        <CharString name="Lcaron">
          -101 0 92 608 -20 22 -20 hstemhm
          303 98 hintmask 10110000
          76 hmoveto
          -69 callgsubr
          250 522 rmoveto
          hintmask 11010000
          -8 callgsubr
          hintmask 10110000
          -13 20 -4 13 vhcurveto
          endchar
        </CharString>
        <CharString name="Lcommaaccent">
          -101 103 callsubr
          51 118 callgsubr
          156 94 vstem
          76 hmoveto
          -69 callgsubr
          89 -236 -81 callsubr
          endchar
        </CharString>
        <CharString name="Ldot">
          -101 0 92 211 114 285 -20 hstemhm
          49 326 -122 110 hintmask 11110000
          76 hmoveto
          -69 callgsubr
          hintmask 11101000
          226 303 11 callgsubr
        </CharString>
        <CharString name="Lslash">
          -101 0 118 callgsubr
          47 326 vstem
          353 92 rmoveto
          -190 hlineto
          35 331 rlineto
          2 1 2 2 3 vvcurveto
          1 -2 1 -1 1 vhcurveto
          26 245 -77 callgsubr
          -22 30 callgsubr
          -68 -644 37 callgsubr
          270 hlineto
          16 8 -54 callgsubr
          -6 11 -16 hhcurveto
          -151 338 rmoveto
          0 0 -1 0 vhcurveto
          -1 vlineto
          -104 -57 rmoveto
          -1 vlineto
          endchar
        </CharString>
        <CharString name="M">
          180 119 callsubr
          42 625 vstem
          328 234 rmoveto
          29 hlineto
          14 8 5 12 7 hvcurveto
          126 203 12 20 12 21 10 21 rlinecurve
          4 -1 -6 -23 -5 -21 -2 -23 rlinecurve
          -44 -425 -54 callsubr
          11 -9 31 hhcurveto
          19 hlineto
          31 14 -19 callsubr
          68 654 rlineto
          16 2 -12 9 -31 hhcurveto
          -24 hlineto
          -24 -13 -7 -14 -10 hvcurveto
          -179 -290 -10 -16 -7 -16 -5 -16 rlinecurve
          -2 16 -3 16 -6 16 -120 290 rcurveline
          14 -6 -13 7 -23 hhcurveto
          -24 -75 callgsubr
          -1 hvcurveto
          -69 -47 callgsubr
          18 hlineto
          31 14 -19 callsubr
          45 425 2 23 0 21 -1 23 rlinecurve
          4 1 7 -21 6 -21 8 -20 rlinecurve
          83 -203 rlineto
          -12 5 7 -5 14 hhcurveto
          endchar
        </CharString>
        <CharString name="N">
          81 119 callsubr
          42 525 -69 callsubr
          endchar
        </CharString>
        <CharString name="NULL">
          -509 endchar
        </CharString>
        <CharString name="Nacute">
          81 119 callsubr
          42 525 vstem
          320 759 rmoveto
          -106 callsubr
          -237 -761 -102 callsubr
          endchar
        </CharString>
        <CharString name="Nacute.loclPLK">
          81 702 -20 77 151 hstem
          42 525 vstem
          329 759 -80 callsubr
          -246 -761 -102 callsubr
          endchar
        </CharString>
        <CharString name="Ncaron">
          81 702 -20 75 143 hstem
          42 525 vstem
          340 757 -105 callsubr
          -257 -759 -102 callsubr
          endchar
        </CharString>
        <CharString name="Ncommaaccent">
          81 103 callsubr
          753 -20 hstem
          218 94 -69 callsubr
          144 -234 -81 callsubr
          endchar
        </CharString>
        <CharString name="Ntilde">
          81 702 -20 83 65 callgsubr
          42 525 hintmask 10110000
          213 60 callgsubr
          hintmask 11010000
          -97 callgsubr
          hintmask 10110000
          -83 callgsubr
          -120 -771 -102 callsubr
          endchar
        </CharString>
        <CharString name="O">
          47 callsubr
          272 -7 -101 callgsubr
          endchar
        </CharString>
        <CharString name="OE">
          322 -7 92 -85 92 220 92 204 92 -86 93 hstemhm
          51.6 111.73 292.99 105.68 hintmask 01110100
          808 700 rmoveto
          -294 hlineto
          -22 14 callsubr
          hintmask 10101100
          -2 -23 rlineto
          44 -33 -47 19 -60 hhcurveto
          -159 -97 -112 -244 -26 hvcurveto
          -245 -26 91 -113 144 hhcurveto
          58 50 19 36 42 hvcurveto
          hintmask 01110110
          -2 -15 37 callgsubr
          295 hlineto
          15 8 73 callgsubr
          20 rlineto
          25 3 -5 11 -16 hhcurveto
          -215 hlineto
          23 220 rlineto
          193 hlineto
          15 -20 callgsubr
          -15 hhcurveto
          -193 hlineto
          21 204 rlineto
          215 hlineto
          16 8 -65 callsubr
          hintmask 01110100
          24 callsubr
          hintmask 10101110
          -356 -349 -61 callsubr
          endchar
        </CharString>
        <CharString name="Oacute">
          47 callsubr
          328 759 rmoveto
          -106 callsubr
          -56 -766 -101 callgsubr
          endchar
        </CharString>
        <CharString name="Oacute.loclPLK">
          23 callgsubr
          52 151 -38 callsubr
          337 759 -80 callsubr
          -65 -766 -101 callgsubr
          endchar
        </CharString>
        <CharString name="Obreve">
          23 callgsubr
          52 73 -38 callsubr
          354 759 -103 callsubr
          -82 -766 -101 callgsubr
          endchar
        </CharString>
        <CharString name="Ocircumflex">
          41 callgsubr
          258 752 -107 callgsubr
          14 -759 -101 callgsubr
          endchar
        </CharString>
        <CharString name="Odieresis">
          23 callgsubr
          69 103 hstemhm
          51.65 111.68 85.17001 -41 callsubr
          -17.18 111 hintmask 11111010
          286 776 rmoveto
          32 14 9 15 2 hvcurveto
          6 54 -77 callgsubr
          -32 -13 -10 -15 -2 hvcurveto
          -5 -54 -54 callsubr
          11 -8 31 hhcurveto
          hintmask 11111100
          137 hmoveto
          31 15 9 15 2 hvcurveto
          5 54 -16 callgsubr
          -32 -14 -10 -15 -1 hvcurveto
          -6 -54 -34 callsubr
          -8 31 hhcurveto
          -151 -783 rmoveto
          166 100 113 245 25 hvcurveto
          hintmask 11111010
          245 26 -92 111 -151 hhcurveto
          -165 -99 -110 -246 -26 hvcurveto
          hintmask 11111100
          27 callgsubr
          hintmask 11111010
          189 19 57 74 94 hhcurveto
          92 41 -74 -189 -19 hvcurveto
          hintmask 11111100
          98 callsubr
        </CharString>
        <CharString name="Ograve">
          47 callsubr
          369 759 -99 callsubr
          -97 -766 -101 callgsubr
          endchar
        </CharString>
        <CharString name="Ohorn">
          23 callgsubr
          -88 35 -9 callsubr
          hintmask 00000000
          hintmask 10110100
          620 711 -72 callsubr
        </CharString>
        <CharString name="Ohungarumlaut">
          23 callgsubr
          52 151 -38 callsubr
          270 759 -82 callgsubr
          -136 -766 -101 callgsubr
          endchar
        </CharString>
        <CharString name="Omacron">
          23 callgsubr
          78 77 -38 callsubr
          258 785 -90 callgsubr
          14 -792 -101 callgsubr
          endchar
        </CharString>
        <CharString name="Oslash">
          41 callsubr
          512 633 -46 callsubr
        </CharString>
        <CharString name="Oslashacute">
          41 callsubr
          324 759 rmoveto
          -106 callsubr
          188 -126 -46 callsubr
        </CharString>
        <CharString name="Otilde">
          23 callgsubr
          58 60 callsubr
          hintmask 11011100
          221 60 callgsubr
          hintmask 11101100
          -97 callgsubr
          hintmask 11011100
          -83 callgsubr
          61 -776 -101 callgsubr
          endchar
        </CharString>
        <CharString name="P">
          288 91 229 92 hstem
          374 111.03 vstem
          90 -2 rmoveto
          20 hlineto
          31 14 -19 callsubr
          28 265 rlineto
          98 hlineto
          43 138 23 186 19 hvcurveto
          176 19 -114 27 -70 hhcurveto
          -168 hlineto
          -21 -10 -11 callgsubr
          -68 -644 rlineto
          -16 -1 12 -9 31 hhcurveto
          104 381 rmoveto
          24 229 rlineto
          85 hlineto
          36 45 -20 -91 -10 hvcurveto
          -99 -10 -50 -19 -30 hhcurveto
          endchar
        </CharString>
        <CharString name="Q">
          90 614 93 hstem
          50.57 111.48 293.23 111.04 vstem
          489 -166 rmoveto
          25 34 62 13 3 hvcurveto
          1 7 -4 5 -7 4 -183 84 rcurveline
          1 3 111 38 70 110 22 190 rlinecurve
          244 25 -84 113 -158 hhcurveto
          -174 -91 -112 -245 -25 hvcurveto
          -19 -181 39 -100 88 -55 rrcurveto
          -44 69 243 -136 14 hhcurveto
          -208 250 rmoveto
          -93 -42 77 189 21 hvcurveto
          188 19 58 76 93 hhcurveto
          91 42 -76 -188 -19 hvcurveto
          -188 -21 -58 -78 -91 hhcurveto
          endchar
        </CharString>
        <CharString name="R">
          115 callgsubr
          hstem
          44 435.83 vstem
          86 -2 -36 callsubr
        </CharString>
        <CharString name="Racute">
          115 callgsubr
          hstem
          44 435.83 vstem
          280 759 rmoveto
          -106 callsubr
          -194 -761 -36 callsubr
        </CharString>
        <CharString name="Rcaron">
          115 callgsubr
          57 143 hstem
          44 435.83 vstem
          300 757 -105 callsubr
          -214 -759 -36 callsubr
        </CharString>
        <CharString name="Rcommaaccent">
          4 103 callsubr
          344 96 219 92 hstem
          180 94 vstem
          86 -2 -90 callsubr
          -90 -625 -81 callsubr
          endchar
        </CharString>
        <CharString name="S">
          94 callgsubr
          54 callsubr
          -26 callsubr
          endchar
        </CharString>
        <CharString name="Sacute">
          94 callgsubr
          54 callsubr
          255 759 rmoveto
          -106 callsubr
          -75 -765 -95 callgsubr
          endchar
        </CharString>
        <CharString name="Sacute.loclPLK">
          94 callgsubr
          49 151 54 callsubr
          264 759 -80 callsubr
          -84 -765 -95 callgsubr
          endchar
        </CharString>
        <CharString name="Scaron">
          94 callgsubr
          47 143 54 callsubr
          275 757 -105 callsubr
          -95 -763 -95 callgsubr
          endchar
        </CharString>
        <CharString name="Scedilla">
          -72 -211 56 149 94 529 93 hstemhm
          63 107 17 74 30 109 hintmask 11110100
          269 397 rmoveto
          -59 34 -40 33 56 vvcurveto
          68 53 29 60 27 31 -7 -13 30 vhcurveto
          -2 6 7 -3 5 hhcurveto
          17 17 53 18 7 -3 6 -8 5 hvcurveto
          19 -32 -60 10 -49 hhcurveto
          -124 -84 -82 -127 -95 64 -51 73 -44 hvcurveto
          49 -29 42 -31 -58 vvcurveto
          -76 -52 -29 -63 -44 -41 9 26 -38 vhcurveto
          3 -4 -4 3 -6 hhcurveto
          -18 -13 -43 -24 -18 13 -8 12 -6 hvcurveto
          hintmask 11111100
          35 -25 42 -9 46 -2 rrcurveto
          -18 -55 -3 -10 -8 -67 callgsubr
          15 51 rlineto
          hintmask 11110100
          123 9 72 81 129 vvcurveto
          93 -60 48 -71 42 vhcurveto
          endchar
        </CharString>
        <CharString name="Scircumflex">
          94 callgsubr
          42 143 54 callsubr
          185 752 -4 callgsubr
          -758 -95 callgsubr
          endchar
        </CharString>
        <CharString name="Scommaaccent">
          -72 103 callsubr
          45 94 529 93 hstemhm
          63 107 -35 94 62 109 hintmask 01110100
          -30 callsubr
          -36 -230 -81 callsubr
          endchar
        </CharString>
        <CharString name="T">
          -55 608 92 hstem
          55.85 424.69 vstem
          188 -2 -60 callsubr
          endchar
        </CharString>
        <CharString name="Tbar">
          -55 314 78 216 92 hstem
          27 453.54 vstem
          461 700 rmoveto
          -377 hlineto
          -15 -8 74 callgsubr
          -3 -20 rlineto
          -25 -2 5 -11 15 hhcurveto
          135 hlineto
          -23 -216 rlineto
          -131 50 callgsubr
          132 hlineto
          -31 -291 -62 callsubr
          22 17 callsubr
          291 rlineto
          122 49 callsubr
          -123 hlineto
          23 216 rlineto
          133 hlineto
          16 -20 callgsubr
          -16 hhcurveto
          endchar
        </CharString>
        <CharString name="Tcaron">
          -55 608 92 57 143 hstem
          55.85 424.69 vstem
          274 757 -105 callsubr
          -86 -759 -60 callsubr
          endchar
        </CharString>
        <CharString name="Thorn">
          170 91 229 92 120 -20 hstem
          43 424.86 vstem
          84 -2 rmoveto
          21 hlineto
          31 14 -19 callsubr
          15 147 rlineto
          98 hlineto
          43 138 24 186 20 hvcurveto
          176 18 -114 26 -71 hhcurveto
          -88 hlineto
          10 95 -77 callgsubr
          -21 44 callsubr
          -68 -47 callgsubr
          93 263 rmoveto
          24 229 rlineto
          83 hlineto
          37 44 -19 -91 -9 hvcurveto
          -99 -11 -50 -20 -29 hhcurveto
          endchar
        </CharString>
        <CharString name="U">
          13 callsubr
          hstemhm
          56 110 hintmask 00000000
          hintmask 11100000
          264 -7 rmoveto
          -25 callsubr
          51 479 -77 callgsubr
          -21 -102 callgsubr
          endchar
        </CharString>
        <CharString name="Uacute">
          13 callsubr
          -12 callsubr
          hintmask 11100000
          319 759 rmoveto
          -106 callsubr
          hintmask 11010000
          -55 -766 rmoveto
          -25 callsubr
          51 479 -77 callgsubr
          -21 -102 callgsubr
          endchar
        </CharString>
        <CharString name="Ubreve">
          13 callsubr
          77 73 -12 callsubr
          hintmask 11110000
          345 759 -103 callsubr
          hintmask 11101000
          -81 -766 rmoveto
          -25 callsubr
          51 479 -77 callgsubr
          -21 -102 callgsubr
          endchar
        </CharString>
        <CharString name="Ucircumflex">
          13 callsubr
          70 143 -12 callsubr
          hintmask 11110000
          249 752 -107 callgsubr
          hintmask 11101000
          15 -759 rmoveto
          -25 callsubr
          51 479 -77 callgsubr
          -21 -102 callgsubr
          endchar
        </CharString>
        <CharString name="Udieresis">
          13 callsubr
          94 103 108 callsubr
          73.5 -41 callsubr
          vstem
          277 776 -104 callsubr
          -150 -783 rmoveto
          -25 callsubr
          51 479 -77 callgsubr
          -21 -102 callgsubr
          endchar
        </CharString>
        <CharString name="Ugrave">
          13 callsubr
          -12 callsubr
          hintmask 11100000
          360 759 -99 callsubr
          hintmask 11010000
          -96 -766 rmoveto
          -25 callsubr
          51 479 -77 callgsubr
          -21 -102 callgsubr
          endchar
        </CharString>
        <CharString name="Uhorn">
          97 callsubr
          646 757 rmoveto
          -79 callsubr
          -36 -102 callgsubr
          -25 callsubr
          50 469 rlineto
          57 8 26 34 48 vvcurveto
          endchar
        </CharString>
        <CharString name="Uhungarumlaut">
          13 callsubr
          77 151 -12 callsubr
          hintmask 11110000
          261 759 -82 callgsubr
          hintmask 11101000
          -135 -766 rmoveto
          -25 callsubr
          51 479 -77 callgsubr
          -21 -102 callgsubr
          endchar
        </CharString>
        <CharString name="Umacron">
          13 callsubr
          103 77 -12 callsubr
          hintmask 11110000
          249 785 -90 callgsubr
          hintmask 11101000
          15 -792 rmoveto
          -25 callsubr
          51 479 -77 callgsubr
          -21 -102 callgsubr
          endchar
        </CharString>
        <CharString name="Uogonek">
          74 -164 65 92 74 callsubr
          108 callsubr
          147 63 vstem
          522 702 rmoveto
          -21 -102 callgsubr
          23 22 2 4 21 hvcurveto
          -13 -28 -4 -27 -18 -59 callsubr
          -1 callgsubr
          20 7 29 15 28 hvcurveto
          66 33 41 61 8 83 51 479 rcurveline
          -76 callgsubr
          endchar
        </CharString>
        <CharString name="Uring">
          13 callsubr
          55 43 91 44 108 callsubr
          97 43 88 44 vstem
          340 737 -78 callgsubr
          -81 -787 rmoveto
          -25 callsubr
          51 479 -77 callgsubr
          -21 -102 callgsubr
          endchar
        </CharString>
        <CharString name="Utilde">
          13 callsubr
          83 66 -29 66 -12 callsubr
          hintmask 11011000
          212 60 callgsubr
          hintmask 11101000
          -97 callgsubr
          hintmask 11011000
          -83 callgsubr
          hintmask 11010100
          62 -776 rmoveto
          -25 callsubr
          51 479 -77 callgsubr
          -21 -102 callgsubr
          endchar
        </CharString>
        <CharString name="V">
          -1 -2 119 585 -20 hstem
          59 477 vstem
          204 -2 rmoveto
          46 hlineto
          22 18 4 13 4 hvcurveto
          238 653 rlineto
          2 7 2 4 5 vvcurveto
          11 1 -13 7 -31 hhcurveto
          -19 hlineto
          -22 -17 -5 -15 -6 hvcurveto
          -174 -508 -16 -57 rlineto
          -3 hlineto
          -2 56 -67 509 rlineto
          15 -2 -16 5 -22 hhcurveto
          -21 hlineto
          -31 -15 -7 -11 -1 hvcurveto
          -5 1 -4 1 -6 vhcurveto
          104 -654 rlineto
          -13 2 15 -4 22 hhcurveto
          endchar
        </CharString>
        <CharString name="W">
          35 callgsubr
          177 -2 -95 callsubr
        </CharString>
        <CharString name="Wacute">
          35 callgsubr
          405 759 rmoveto
          -106 callsubr
          -228 -761 -95 callsubr
        </CharString>
        <CharString name="Wcircumflex">
          243 702 -20 70 143 hstem
          61.62 716.38 vstem
          335 752 -107 callgsubr
          -158 -754 -95 callsubr
        </CharString>
        <CharString name="Wdieresis">
          243 702 -20 94 103 hstem
          325.5 -41 callsubr
          vstem
          363 776 -104 callsubr
          -323 -778 -95 callsubr
        </CharString>
        <CharString name="Wgrave">
          35 callgsubr
          446 759 -99 callsubr
          -269 -761 -95 callsubr
        </CharString>
        <CharString name="X">
          -3 119 callsubr
          -9 531 vstem
          36 -2 rmoveto
          24 hlineto
          21 17 1 15 8 hvcurveto
          151 270 89 -270 rlineto
          -13 4 16 -3 21 hhcurveto
          27 hlineto
          33 15 6 12 1 hvcurveto
          1 5 -3 6 -3 9 -129 328 rcurveline
          184 300 5 9 3 6 1 5 rlinecurve
          12 1 -15 6 -32 hhcurveto
          -23 hlineto
          -21 -17 -2 -14 -8 hvcurveto
          -133 -240 -76 240 rlineto
          14 -4 -17 2 -20 hhcurveto
          -28 hlineto
          -33 -14 -7 -11 -1 hvcurveto
          -1 -5 3 -7 3 -8 116 -296 rcurveline
          -201 -332 -5 -10 -4 -5 -1 -5 rlinecurve
          -12 -1 13 -6 33 hhcurveto
          endchar
        </CharString>
        <CharString name="Y">
          -25 119 callsubr
          58 455 vstem
          204 -2 -93 callsubr
          endchar
        </CharString>
        <CharString name="Y.loclGUA">
          21 callsubr
          70 callsubr
          hintmask 11110000
          441 702 -11 callsubr
          hintmask 11101000
          -96 callgsubr
          hintmask 11110000
          43 callgsubr
        </CharString>
        <CharString name="Yacute">
          -25 119 callsubr
          58 455 vstem
          269 759 rmoveto
          -106 callsubr
          -65 -761 -93 callsubr
          endchar
        </CharString>
        <CharString name="Yacute.loclGUA">
          21 callsubr
          70 callsubr
          hintmask 11110000
          277 759 rmoveto
          -106 callsubr
          164 -57 -11 callsubr
          hintmask 11101000
          -96 callgsubr
          hintmask 11110000
          43 callgsubr
        </CharString>
        <CharString name="Ycircumflex">
          -25 702 -20 70 143 hstem
          58 455 vstem
          199 752 -107 callgsubr
          5 -754 -93 callsubr
          endchar
        </CharString>
        <CharString name="Ycircumflex.loclGUA">
          21 callsubr
          70 143 70 callsubr
          hintmask 11111000
          207 752 -107 callgsubr
          234 -50 -11 callsubr
          hintmask 11110100
          -96 callgsubr
          hintmask 11111000
          43 callgsubr
        </CharString>
        <CharString name="Ydieresis">
          -25 702 -20 94 103 hstem
          189.5 -41 callsubr
          vstem
          227 776 -104 callsubr
          -160 -778 -93 callsubr
          endchar
        </CharString>
        <CharString name="Ydieresis.loclGUA">
          21 callsubr
          94 103 hstemhm
          68 104 25.5 -41 callsubr
          hintmask 11110110
          235 776 -104 callsubr
          69 -74 -11 callsubr
          hintmask 11111110
          -96 callgsubr
          hintmask 11110110
          43 callgsubr
        </CharString>
        <CharString name="Ygrave">
          -25 119 callsubr
          58 455 vstem
          310 759 -99 callsubr
          -106 -761 -93 callsubr
          endchar
        </CharString>
        <CharString name="Ygrave.loclGUA">
          21 callsubr
          70 callsubr
          hintmask 11110000
          318 759 -99 callsubr
          123 -57 -11 callsubr
          hintmask 11101000
          -96 callgsubr
          hintmask 11110000
          43 callgsubr
        </CharString>
        <CharString name="Z">
          -2 96 callsubr
          hstem
          9 497 vstem
          30 -49 callsubr
          endchar
        </CharString>
        <CharString name="Zacute">
          -2 96 callsubr
          hstem
          9 497 vstem
          283 759 rmoveto
          -106 callsubr
          -253 -759 rmoveto
          -92 callsubr
          endchar
        </CharString>
        <CharString name="Zacute.loclPLK">
          -2 96 callsubr
          59 151 hstem
          9 497 vstem
          292 759 -80 callsubr
          -262 -759 rmoveto
          -92 callsubr
          endchar
        </CharString>
        <CharString name="Zcaron">
          -2 96 callsubr
          57 143 hstem
          9 497 vstem
          303 757 -105 callsubr
          -273 -757 rmoveto
          -92 callsubr
          endchar
        </CharString>
        <CharString name="Zdotaccent">
          -2 96 callsubr
          76 103 hstem
          264 -12 callgsubr
          310 776 -107 callsubr
          -280 -776 rmoveto
          -92 callsubr
          endchar
        </CharString>
        <CharString name="a">
          7 callgsubr
          168 -8 rmoveto
          -100 callsubr
          hintmask 10111000
          -84 callgsubr
          hintmask 11011000
          -99 callgsubr
          endchar
        </CharString>
        <CharString name="aacute">
          7 callgsubr
          243 582 rmoveto
          -106 callsubr
          -75 -590 rmoveto
          -100 callsubr
          hintmask 10111000
          -84 callgsubr
          hintmask 11011000
          -99 callgsubr
          endchar
        </CharString>
        <CharString name="abreve">
          120 callsubr
          -70 callgsubr
          hintmask 11011100
          269 -86 callsubr
          -101 -590 rmoveto
          -100 callsubr
          hintmask 10111100
          -84 callgsubr
          hintmask 11011100
          -99 callgsubr
          endchar
        </CharString>
        <CharString name="acircumflex">
          -1 callsubr
          70 143 -70 callgsubr
          hintmask 11011100
          173 -103 callgsubr
          -5 18 callsubr
          hintmask 10111100
          -84 callgsubr
          hintmask 11011100
          -99 callgsubr
          endchar
        </CharString>
        <CharString name="acute">
          -253 95 callsubr
          47 159 vstem
          71 582 rmoveto
          -106 callsubr
          endchar
        </CharString>
        <CharString name="acute.loclPLK">
          -253 95 callsubr
          52 135 vstem
          80 582 -80 callsubr
          endchar
        </CharString>
        <CharString name="acutecomb">
          -509 95 callsubr
          -6 159 vstem
          18 582 rmoveto
          -106 callsubr
          endchar
        </CharString>
        <CharString name="adieresis">
          -1 callsubr
          94 103 hstemhm
          39.71 103.25 20.54 88.5 40 102 -94 88.5 hintmask 00000000
          hintmask 11011101
          201 599 -104 callsubr
          hintmask 10111010
          -170 -607 rmoveto
          -56 callsubr
          hintmask 11011010
          -71 callgsubr
          hintmask 10111010
          -132 -14 26 -141 113 hhcurveto
          36 87 rmoveto
          -62 -5 99 89 10 hvcurveto
          hintmask 11011000
          111 12 31 66 66 hhcurveto
          36 20 -19 -15 13 hvcurveto
          -3 -15 -3 -19 -3 -21 -17 -166 rcurveline
          hintmask 10111010
          50 callsubr
        </CharString>
        <CharString name="ae">
          26 callsubr
          hintmask 00000000
          hintmask 01111110
          159 -7 -52 callsubr
        </CharString>
        <CharString name="aeacute">
          26 callsubr
          hintmask 10111110
          353 582 rmoveto
          -106 callsubr
          hintmask 01111110
          -194 -589 -52 callsubr
        </CharString>
        <CharString name="agrave">
          7 callgsubr
          284 582 -99 callsubr
          -116 -590 rmoveto
          -100 callsubr
          hintmask 10111000
          -84 callgsubr
          hintmask 11011000
          -99 callgsubr
          endchar
        </CharString>
        <CharString name="amacron">
          -1 callsubr
          103 77 -70 callgsubr
          hintmask 11011100
          173 608 -90 callgsubr
          -5 -616 rmoveto
          -100 callsubr
          hintmask 10111100
          -84 callgsubr
          hintmask 11011100
          -99 callgsubr
          endchar
        </CharString>
        <CharString name="ampersand">
          11 -7 86 249 85 208 86 hstemhm
          18 106 -53 105 127 107 hintmask 11101100
          485 413 rmoveto
          -46 95 callgsubr
          2 -9 9 -25 hhcurveto
          -20 hlineto
          -25 -26 callgsubr
          -3 hvcurveto
          -22 -102 rlineto
          -80 hlineto
          -59 -23 60 50 5 hvcurveto
          41 4 22 57 57 21 15 -8 5 hhcurveto
          14 16 42 17 1 hvcurveto
          27 3 -47 8 -34 hhcurveto
          -98 -72 -59 -111 -12 hvcurveto
          -8 -73 27 -52 43 -22 -1 -4 rcurveline
          hintmask 11110100
          -61 -20 -42 -64 -11 -99 rrcurveto
          -148 -15 74 -62 100 hhcurveto
          57 45 20 23 42 hvcurveto
          -33 18 29 -10 35 hhcurveto
          24 48 3 33 4 hvcurveto
          8 1 -4 46 -14 -6 -6 -4 -15 hhcurveto
          -20 -10 13 51 5 hvcurveto
          20 185 rlineto
          47 hlineto
          15 8 73 callgsubr
          13 rlineto
          hintmask 11101100
          24 callsubr
          hintmask 11110100
          -361 -208 rmoveto
          91 10 36 32 69 hhcurveto
          85 hlineto
          -21 -197 -1 -7 0 -7 1 -7 rlinecurve
          -18 -38 -32 -13 -33 hhcurveto
          -48 -37 30 96 9 hvcurveto
          endchar
        </CharString>
        <CharString name="aogonek">
          -28 -187 65 114 87 -83 -20 468 86 -5 -20 -70 callgsubr
          -71 63 hintmask 10110101
          471 -116 rmoveto
          -1 callgsubr
          19 7 29 14 28 hvcurveto
          hintmask 10101110
          28 8 16 21 32 vvcurveto
          13 -3 12 -8 vhcurveto
          -6 -7 -4 -11 hhcurveto
          -14 -10 9 32 2 hvcurveto
          7 68 12 106 10 97 rrcurveto
          -84 callgsubr
          hintmask 11010110
          -71 callgsubr
          -132 -14 26 -141 113 hhcurveto
          48 44 24 63 32 hvcurveto
          hintmask 10110110
          4 -53 26 -22 28 -8 rrcurveto
          hintmask 10110101
          -21 -35 -6 -36 -22 -59 callsubr
          -155 471 rmoveto
          -17 -166 rlineto
          hintmask 11010101
          -79 -23 -38 -31 -34 hhcurveto
          -62 -5 99 89 10 hvcurveto
          111 12 31 66 66 hhcurveto
          36 20 -19 -15 13 hvcurveto
          hintmask 10110101
          -3 -15 -3 -19 -3 -21 rrcurveto
          endchar
        </CharString>
        <CharString name="approxequal">
          -71 95 64 -24 64 65 64 -24 64 hstemhm
          39 363 hintmask 01011000
          220 285 rmoveto
          hintmask 01101000
          -10 30 31 -11 25 hhcurveto
          42 31 22 47 19 hvcurveto
          3 7 1 5 3 vvcurveto
          -1 6 -3 4 -7 4 -8 4 rcurveline
          -15 9 -7 -9 -11 -12 rrcurveto
          -19 -13 -12 -7 -13 hhcurveto
          -21 -27 10 9 -27 hvcurveto
          hintmask 01011000
          10 -30 -31 11 -25 hhcurveto
          -43 -30 -22 -47 -19 hvcurveto
          -3 -6 -1 -5 -4 vvcurveto
          1 -5 3 -5 7 -4 8 -4 rcurveline
          14 -8 8 8 10 13 rrcurveto
          18 14 12 113 callsubr
          27 hvcurveto
          -15 -169 rmoveto
          hintmask 10011000
          -10 30 31 -11 25 hhcurveto
          42 111 callsubr
          5 -3 5 -8 4 vhcurveto
          -7 4 -15 8 -8 -8 -10 -13 rlinecurve
          -19 -14 -12 -6 -13 hhcurveto
          -21 -26 9 10 -28 hvcurveto
          hintmask 01011000
          10 -30 -31 11 -25 hhcurveto
          -42 -30 -22 -47 -20 hvcurveto
          -3 -7 -1 -5 -3 vvcurveto
          1 -6 3 -4 7 -4 8 -4 rcurveline
          15 -9 7 9 11 12 rrcurveto
          19 14 11 113 callsubr
          28 hvcurveto
          endchar
        </CharString>
        <CharString name="aring">
          30 callsubr
          hintmask 0000000000000000
          hintmask 1101111010000000
          264 560 -61 callgsubr
        </CharString>
        <CharString name="aringacute">
          30 callsubr
          hintmask 1100111010000000
          283 772 rmoveto
          -106 callsubr
          hintmask 1101111010000000
          -19 -212 -61 callgsubr
        </CharString>
        <CharString name="arrowdown">
          20 708 -20 hstem
          17.49 501.51 vstem
          499 328 rmoveto
          -210 -192 59 547 rlineto
          16 1 -9 9 -24 hhcurveto
          -12 hlineto
          -24 -12 51 callsubr
          -57 -545 -163 187 -10 11 -10 -1 -2 -19 rlinecurve
          -7 -60 -2 -20 3 -6 12 -12 rlinecurve
          190 -214 rlineto
          5 -6 4 -1 8 9 4 2 6 hflex1
          236 214 14 13 4 8 1 18 rlinecurve
          7 62 1 13 -9 8 -12 -12 rlinecurve
          endchar
        </CharString>
        <CharString name="arrowleft">
          91 220 81 228 -20 hstem
          1 596 vstem
          576 301 rmoveto
          -438 hlineto
          184 202 rlineto
          15 13 1 11 -22 hhcurveto
          -57 hlineto
          -16 -11 -4 -12 -11 hvcurveto
          -210 -230 rlineto
          -6 -6 -2 -5 -6 vvcurveto
          -1 -10 1 -4 4 -5 162 -230 rcurveline
          -12 8 11 -5 16 hhcurveto
          51 hlineto
          20 3 12 14 -10 hvcurveto
          -136 194 rlineto
          438 hlineto
          16 10 10 24 2 hvcurveto
          1 13 rlineto
          24 2 -7 10 -16 hhcurveto
          endchar
        </CharString>
        <CharString name="arrowright">
          91 228 81 220 -20 hstem
          1 596 vstem
          593 283 rmoveto
          -161 230 rlineto
          12 -9 -11 4 -16 hhcurveto
          -51 hlineto
          -19 -4 -11 -15 10 hvcurveto
          137 -194 rlineto
          -439 hlineto
          -16 -9 -10 -24 -3 hvcurveto
          -1 -12 rlineto
          -24 -2 7 -11 16 hhcurveto
          438 hlineto
          -183 -202 rlineto
          -15 -14 0 -11 22 hhcurveto
          56 hlineto
          16 11 5 12 11 hvcurveto
          210 230 rlineto
          6 5 2 5 6 vvcurveto
          1 10 -1 4 -4 6 rrcurveto
          endchar
        </CharString>
        <CharString name="arrowup">
          -4 701 -20 hstem
          18 501.49 vstem
          506 487 rmoveto
          -190 214 rlineto
          -5 6 -4 1 -8 -9 -4 -2 -6 hflex1
          -236 -214 -14 -13 -4 -8 -1 -18 rlinecurve
          -7 -62 -1 -13 9 -8 12 12 rlinecurve
          208 191 -57 -547 rlineto
          -16 -1 9 -8 24 hhcurveto
          12 hlineto
          24 11 8 16 2 hvcurveto
          57 545 163 -186 10 -11 10 1 2 19 rlinecurve
          7 59 2 21 -3 6 -12 12 rlinecurve
          endchar
        </CharString>
        <CharString name="asciicircum">
          -149 319 366 hstem
          40 297 vstem
          336 353 rmoveto
          -71 309 rlineto
          17 -4 -9 6 -16 hhcurveto
          -23 hlineto
          -15 -11 -6 -17 -8 hvcurveto
          -135 -309 rlineto
          -3 -5 -1 -5 -4 vvcurveto
          -12 -1 7 -8 16 hhcurveto
          14 hlineto
          19 13 8 17 7 hvcurveto
          102 252 46 -252 rlineto
          -17 3 13 -8 18 hhcurveto
          13 hlineto
          18 8 8 12 1 hvcurveto
          4 -1 5 5 vvcurveto
          endchar
        </CharString>
        <CharString name="asciitilde">
          -72 223 64 -24 63 hstemhm
          46 347 hintmask 00000000
          hintmask 10100000
          297 223 rmoveto
          43 111 callsubr
          -1 5 -3 5 -7 3 -8 5 rcurveline
          -14 8 -8 -8 -10 -13 rrcurveto
          -19 -14 -12 -6 -13 hhcurveto
          -21 -26 9 9 -28 hvcurveto
          hintmask 01100000
          11 -30 -31 10 -25 hhcurveto
          -42 -31 -21 -48 -19 hvcurveto
          -3 -6 -1 -5 -3 vvcurveto
          1 -6 3 -4 7 -4 8 -4 rcurveline
          15 -9 7 9 11 12 rrcurveto
          19 13 12 113 callsubr
          28 hvcurveto
          hintmask 10100000
          -10 29 32 -11 24 hhcurveto
          endchar
        </CharString>
        <CharString name="asterisk">
          -210 429 280 hstem
          165 45.5 vstem
          95 429 rmoveto
          6 7 4 7 6 hvcurveto
          61 82 44 -82 rlineto
          -7 4 6 -4 6 hhcurveto
          10 16 11 10 2 hvcurveto
          1 5 -2 5 -3 6 -47 87 rcurveline
          81 30 rlineto
          11 5 6 4 1 9 2 16 -9 11 0 flex1
          -4 -4 0 -3 -6 hvcurveto
          -73 -26 9 87 rlineto
          16 2 -6 7 -16 hhcurveto
          -16 -8 -7 -16 -1 hvcurveto
          -10 -87 -68 26 rlineto
          3 -5 -5 0 -3 hhcurveto
          -12 -10 -13 -15 -2 hvcurveto
          -1 -8 6 -4 10 -5 72 -30 rcurveline
          -63 -87 -5 -6 -2 -5 -1 -5 rlinecurve
          -10 -1 14 -11 11 hhcurveto
          endchar
        </CharString>
        <CharString name="at">
          283 -125 47 133 62 -62 73 305 73 153 47 hstemhm
          55 57 103 88 137 84 146 57 hintmask 1101111110000000
          442 706 rmoveto
          -219 -168 -206 -262 -215 112 -148 165 44 99 11 39 18 -5 8 -9 hvcurveto
          -18 -32 -29 -74 hhcurveto
          -136 -89 127 187 238 144 185 183 138 93 -109 -171 -137 -55 -125 -59 -10 -22 4 33 hvcurveto
          28 27 288 10 vvcurveto
          13 -8 9 -21 vhcurveto
          -8 hlineto
          -25 -4 -8 -32 -10 hvcurveto
          18 -15 -31 26 -43 hhcurveto
          -103 -68 -111 -158 hvcurveto
          hintmask 1011111110000000
          -139 65 -43 52 44 38 24 48 26 vhcurveto
          hintmask 1101111110000000
          -46 7 32 -26 50 hhcurveto
          116 82 144 178 201 -114 128 -171 hvcurveto
          hintmask 1011111110000000
          -1 -491 rmoveto
          -66 -23 -32 -21 -25 hhcurveto
          -33 -25 27 88 102 23 88 75 27 20 -14 -12 12 hvcurveto
          -8 -36 -8 -105 -3 -51 rrcurveto
          endchar
        </CharString>
        <CharString name="atilde">
          -1 callsubr
          83 66 -29 66 -70 callgsubr
          hintmask 11001100
          136 1 callsubr
          hintmask 11010100
          -97 callgsubr
          hintmask 10101110
          -83 callgsubr
          42 -600 rmoveto
          -56 callsubr
          hintmask 11001110
          -71 callgsubr
          hintmask 10101110
          -132 -14 26 -141 113 hhcurveto
          36 87 rmoveto
          -62 -5 99 89 10 hvcurveto
          hintmask 11001100
          111 12 31 66 66 hhcurveto
          36 20 -19 -15 13 hvcurveto
          -3 -15 -3 -19 -3 -21 -17 -166 rcurveline
          hintmask 10101110
          50 callsubr
        </CharString>
        <CharString name="b">
          97 callgsubr
          223 -20 hstem
          329.23 107.14 vstem
          249 -7 rmoveto
          94 73 106 165 17 hvcurveto
          171 18 -55 95 -100 hhcurveto
          -47 -31 -20 -25 -26 hvcurveto
          26 243 -77 callgsubr
          -16 -75 callgsubr
          -1 hvcurveto
          -75 -705 -50 callgsubr
          29 hhcurveto
          8 hlineto
          20 13 3 13 6 hvcurveto
          15 53 rlineto
          -48 24 40 -26 45 hhcurveto
          -20 87 rmoveto
          -29 -27 22 37 -18 hvcurveto
          29 268 rlineto
          23 21 27 13 28 hhcurveto
          57 22 -57 -121 -13 hvcurveto
          -121 -13 -32 -64 -52 hhcurveto
          endchar
        </CharString>
        <CharString name="backslash">
          -220 119 callsubr
          56 210 vstem
          217 -21 rmoveto
          19 hlineto
          18 10 8 12 2 hvcurveto
          4 -1 5 10 vvcurveto
          -130 660 rlineto
          17 -3 -11 7 -18 hhcurveto
          -19 hlineto
          -17 -9 -8 -11 -2 hvcurveto
          -4 0 -3 2 -13 vhcurveto
          129 -660 rlineto
          -16 2 10 -8 18 hhcurveto
          endchar
        </CharString>
        <CharString name="bar">
          -309 -139 908 hstem
          23 165 vstem
          159 769 rmoveto
          -12 hlineto
          -22 -10 -8 -16 -2 hvcurveto
          -90 -860 rlineto
          -16 -1 8 -8 22 hhcurveto
          12 hlineto
          22 10 8 16 1 hvcurveto
          91 860 rlineto
          16 2 -9 8 -22 hhcurveto
          endchar
        </CharString>
        <CharString name="baraccent">
          -192 281 81 callsubr
          281 -90 callgsubr
          endchar
        </CharString>
        <CharString name="baraccentlong">
          8 281 78 hstem
          -64 650 vstem
          566 359 rmoveto
          -602 50 callgsubr
          602 49 callsubr
          endchar
        </CharString>
        <CharString name="baraccentmedium">
          -92 281 78 hstem
          2 411 vstem
          393 359 rmoveto
          -363 50 callgsubr
          363 49 callsubr
          endchar
        </CharString>
        <CharString name="braceleft">
          -260 -138 71 764 71 hstemhm
          58 86 -64.68 83.68 hintmask 00000000
          hintmask 11100000
          130 -138 rmoveto
          43 hlineto
          16 8 9 23 2 hvcurveto
          1 7 rlineto
          23 3 -6 9 -15 hhcurveto
          -13 hlineto
          -24 -5 20 35 4 hvcurveto
          hintmask 11010000
          19 186 9 86 -42 44 -19 10 rlinecurve
          23 14 50 44 9 84 19 187 rcurveline
          35 4 9 19 26 hhcurveto
          11 hlineto
          15 8 124 callsubr
          7 vlineto
          23 2 -6 9 -16 hhcurveto
          -43 hlineto
          -35 -52 -29 -87 -9 hvcurveto
          -19 -180 -6 -60 -11 -35 -37 -17 rlinecurve
          -18 -8 -10 -10 -3 -20 -1 -14 rcurveline
          -2 -20 8 -10 16 -8 33 -17 4 -36 -6 -59 rrcurveto
          hintmask 11100000
          -19 -180 rlineto
          -89 -9 46 -27 35 hhcurveto
          endchar
        </CharString>
        <CharString name="braceright">
          -260 -138 71 764 71 hstemhm
          101 83.66 -64.66 86 hintmask 11100000
          -4 -138 rmoveto
          43 hlineto
          35 52 27 89 9 hvcurveto
          19 180 6 59 11 36 37 17 rlinecurve
          18 8 11 10 2 20 1 14 rcurveline
          2 20 -8 10 -16 8 -33 17 -4 35 6 60 rrcurveto
          hintmask 11010000
          19 180 rlineto
          87 9 -46 29 -35 hhcurveto
          -43 hlineto
          -16 -8 -9 -23 -2 hvcurveto
          -7 vlineto
          -23 -3 6 -9 15 hhcurveto
          11 hlineto
          26 4 -19 -35 -4 hvcurveto
          hintmask 11100000
          -19 -187 -9 -84 42 -44 20 -14 rlinecurve
          -22 -10 -52 -44 -9 -86 -20 -186 rcurveline
          -35 -3 -8 -20 -25 hhcurveto
          -12 hlineto
          -15 -8 -9 -23 -3 hvcurveto
          -1 -7 rlineto
          -23 -2 6 -9 16 hhcurveto
          endchar
        </CharString>
        <CharString name="bracketleft">
          -270 -138 72 762 72 hstem
          3 243.27 vstem
          29 -138 rmoveto
          104 hlineto
          16 6 124 callsubr
          7 vlineto
          23 3 -5 10 -16 hhcurveto
          -49 hlineto
          80 762 rlineto
          49 hlineto
          16 117 callgsubr
          8 vlineto
          23 2 -4 9 -16 hhcurveto
          -104 hlineto
          -21 14 callsubr
          -88 -840 rlineto
          40 callsubr
          21 hhcurveto
          endchar
        </CharString>
        <CharString name="bracketright">
          -270 -138 72 762 72 hstem
          2.85 243.15 vstem
          21 -138 rmoveto
          104 hlineto
          21 9 10 23 3 hvcurveto
          88 840 rlineto
          23 2 -7 10 -21 hhcurveto
          -104 hlineto
          -15 -7 -9 -23 -3 hvcurveto
          -8 vlineto
          -23 -3 6 -9 15 hhcurveto
          50 hlineto
          -80 -762 rlineto
          -50 hlineto
          -15 -8 -11 callgsubr
          -7 vlineto
          -23 -2 5 -9 15 hhcurveto
          endchar
        </CharString>
        <CharString name="breve">
          -253 582 73 hstem
          50.79 241.21 vstem
          160 -86 callsubr
          endchar
        </CharString>
        <CharString name="brokenbar">
          -309 -140 910 hstemhm
          57 75 -18 74 hintmask 00000000
          hintmask 10100000
          159 770 rmoveto
          -12 hlineto
          -22 -10 51 callsubr
          -12 -108 -23 -206 -11 vvcurveto
          -15 7 -9 23 vhcurveto
          11 hlineto
          22 10 -19 callsubr
          11 109 23 205 10 vvcurveto
          16 -6 9 -23 vhcurveto
          hintmask 11000000
          -56 -537 rmoveto
          -12 hlineto
          -23 -10 51 callsubr
          -11 -108 -23 -202 -13 vvcurveto
          -16 6 -9 23 vhcurveto
          12 hlineto
          22 10 -19 callsubr
          11 107 23 205 11 vvcurveto
          16 -7 9 -22 vhcurveto
          endchar
        </CharString>
        <CharString name="bullet">
          -211 200 253 hstem
          38.25 235.48 vstem
          143 200 rmoveto
          64 56 40 86 10 hvcurveto
          86 9 -49 41 -64 hhcurveto
          -64 -57 -41 -86 -9 hvcurveto
          -86 -9 49 -40 64 hhcurveto
          endchar
        </CharString>
        <CharString name="c">
          107 callgsubr
          17 callgsubr
          vstem
          225 -7 -85 callgsubr
        </CharString>
        <CharString name="cacute">
          107 callgsubr
          17 callgsubr
          vstem
          243 582 rmoveto
          -106 callsubr
          -18 -589 -85 callgsubr
        </CharString>
        <CharString name="cacute.loclPLK">
          107 callgsubr
          52 151 17 callgsubr
          vstem
          252 582 -80 callsubr
          -27 -589 -85 callgsubr
        </CharString>
        <CharString name="caron">
          -253 580 143 hstem
          59 227 vstem
          153 580 -105 callsubr
          endchar
        </CharString>
        <CharString name="caron.alt">
          -253 700 -20 hstem
          85 98 vstem
          108 522 rmoveto
          -8 callgsubr
          -13 20 -4 13 vhcurveto
          endchar
        </CharString>
        <CharString name="ccaron">
          107 callgsubr
          50 143 17 callgsubr
          vstem
          263 580 -105 callsubr
          -38 -587 -85 callgsubr
        </CharString>
        <CharString name="ccedilla">
          -101 -211 56 149 85 365 86 hstem
          39.43 108.5 75.07 74 vstem
          280 530 rmoveto
          -127 -90 -67 -200 -20 hvcurveto
          -18 -174 50 -82 117 -12 rrcurveto
          -18 -56 -3 -10 -8 -67 callgsubr
          14 50 54 4 71 26 2 26 rlinecurve
          16 2 -15 42 -16 hhcurveto
          -3 -6 -4 -4 -7 hvcurveto
          -9 -17 -26 -12 -39 hhcurveto
          -77 -25 54 132 13 hvcurveto
          131 14 43 48 70 hhcurveto
          36 24 -14 -8 13 hvcurveto
          -3 6 4 -3 3 hhcurveto
          14 26 43 18 1 hvcurveto
          28 4 -65 25 -64 hhcurveto
          endchar
        </CharString>
        <CharString name="ccircumflex">
          107 callgsubr
          45 143 17 callgsubr
          vstem
          173 -103 callgsubr
          52 -582 -85 callgsubr
        </CharString>
        <CharString name="cdotaccent">
          107 callgsubr
          69 103 17 callgsubr
          76.06999 -12 callgsubr
          270 -84 callsubr
          -45 -606 -85 callgsubr
        </CharString>
        <CharString name="cedilla">
          -253 -211 56 hstem
          148 74 vstem
          151 -56 rmoveto
          17 59 rlineto
          -48 hlineto
          -21 -63 -3 -11 -8 -67 callgsubr
          endchar
        </CharString>
        <CharString name="cent">
          -69 12 callsubr
          -2 -20 22 -20 hstemhm
          39.33 108.41 32.26 47.5 15.5 47 hintmask 10011010
          287 530 rmoveto
          hintmask 10101010
          3 32 rlineto
          14 -4 6 -14 vhcurveto
          -6 hlineto
          -14 -5 -6 -14 -2 hvcurveto
          -4 -34 -106 -13 -74 -73 -18 -179 rlinecurve
          -18 -171 48 -82 112 -15 rrcurveto
          hintmask 11001110
          -5 -47 rlineto
          -14 3 -6 15 vhcurveto
          6 hlineto
          13 6 7 13 2 hvcurveto
          5 45 54 2 81 27 2 28 rlinecurve
          16 2 -15 42 -16 hhcurveto
          -3 -6 -4 -4 -7 hvcurveto
          -9 -17 -26 -12 -39 hhcurveto
          -1 hlineto
          39 365 rlineto
          36 24 -14 -8 13 hvcurveto
          -3 6 4 -3 3 hhcurveto
          14 26 43 18 1 hvcurveto
          hintmask 10011010
          4 27 -61 24 -61 2 rrcurveto
          -92 -442 rmoveto
          -42 20 -12 55 10 102 11 99 27 52 43 19 rrcurveto
          endchar
        </CharString>
        <CharString name="circumflex">
          -253 575 143 hstem
          46 227 vstem
          65 -103 callgsubr
          endchar
        </CharString>
        <CharString name="colon">
          -321 -2 123 281 123 hstemhm
          18 110 -68 110 hintmask 00000000
          hintmask 11010000
          97 402 rmoveto
          23 hlineto
          31 13 8 17 2 59 callgsubr
          -2 12 -8 31 hhcurveto
          hintmask 11100000
          -42 -404 114 callgsubr
          2 hvcurveto
          8 73 rlineto
          17 1 -11 8 -32 hhcurveto
          -22 19 callsubr
          endchar
        </CharString>
        <CharString name="comma">
          -321 -119 240 hstem
          -32 155.36 vstem
          -2 -119 15 callgsubr
        </CharString>
        <CharString name="commaaccentinvert">
          -156 582 185 hstem
          109 94 vstem
          194 767 rmoveto
          -27 -58 -65 -87 -20 12 -13 26 hvcurveto
          40 callgsubr
          vhcurveto
          endchar
        </CharString>
        <CharString name="copyright">
          83 -6 53 94 54 311 53 98 52 hstem
          19 55 94 63 307 -4 callsubr
          11 94 rmoveto
          41 59 23 22 7 -12 29 -13 hvcurveto
          -6 -24 -27 -45 hhcurveto
          -58 -28 49 106 107 28 49 59 hvcurveto
          44 19 -25 5 hhcurveto
          10 16 29 12 18 -51 19 -42 -100 -51 -69 -140 -143 48 -66 101 hvcurveto
          endchar
        </CharString>
        <CharString name="currency">
          -47 126 76 222 76 hstem
          73 76 169 78 vstem
          77 122 rmoveto
          7 8 4 7 8 hvcurveto
          26 24 rlineto
          -20 24 30 -11 34 hhcurveto
          36 32 11 20 28 hvcurveto
          21 -23 rlineto
          -8 7 7 -4 7 hhcurveto
          8 7 4 6 6 hvcurveto
          11 10 6 6 5 9 1 5 rlinecurve
          1 8 -3 7 -7 8 -26 29 rcurveline
          18 29 13 33 4 36 4 36 -6 34 -12 29 33 31 rcurveline
          9 8 4 7 1 8 1 7 -3 5 -6 7 -9 10 rcurveline
          7 -6 -8 3 -6 hhcurveto
          -7 -8 -4 -7 -7 hvcurveto
          -29 -25 rlineto
          19 -23 -30 13 -35 hhcurveto
          -34 -32 -13 -20 -28 hvcurveto
          -22 26 rlineto
          8 -7 -7 4 -8 hhcurveto
          -6 -8 -4 -5 -6 hvcurveto
          -12 -13 -6 -6 -3 -7 -1 -5 rlinecurve
          -1 -8 3 -8 6 -7 28 -29 rcurveline
          -20 -29 -12 -35 -4 -37 -4 -36 6 -34 12 -28 -32 -29 rcurveline
          -8 -8 -5 -8 -1 -7 rrcurveto
          -8 2 -6 6 -6 vhcurveto
          8 -10 rlineto
          -6 7 7 -4 6 hhcurveto
          145 80 rmoveto
          -46 -34 38 72 7 hvcurveto
          72 8 42 40 47 hhcurveto
          47 33 -40 -72 -8 hvcurveto
          -72 -7 -42 -38 -47 hhcurveto
          endchar
        </CharString>
        <CharString name="d">
          -28 97 callgsubr
          223 -20 hstem
          8 callgsubr
          102 vstem
          -82 callsubr
          39 87 0 callgsubr
        </CharString>
        <CharString name="dagger">
          -81 419 87 196 -20 hstem
          57 355.27 98 callgsubr
          56 534 -2 callgsubr
          -57 -534 rlineto
          -16 -1 10 -9 26 hhcurveto
          endchar
        </CharString>
        <CharString name="daggerdbl">
          -81 55 88 276 87 196 -20 hstem
          18.85 393.42 98 callgsubr
          18 170 rlineto
          111 77 callgsubr
          16 113 callgsubr
          -111 hlineto
          29 276 -2 callgsubr
          -30 -276 rlineto
          -113 hlineto
          -15 108 callgsubr
          -16 rlineto
          -25 -2 5 -11 15 hhcurveto
          113 hlineto
          -18 -170 rlineto
          -16 -1 10 -9 26 hhcurveto
          endchar
        </CharString>
        <CharString name="dcaron">
          -28 97 callgsubr
          170 -20 73 -20 hstem
          8 callgsubr
          102 104 98 vstem
          -82 callsubr
          355 529 rmoveto
          -8 callgsubr
          -13 20 -4 13 vhcurveto
          -316 -442 0 callgsubr
        </CharString>
        <CharString name="dcroat">
          -28 97 callgsubr
          64 77 82 -20 hstemhm
          8 callgsubr
          157.37 -98.37 104 hintmask 11111010
          500 671 rmoveto
          -46 hlineto
          6 57 82 callsubr
          -31 31 callsubr
          -6 -57 rlineto
          -47 hlineto
          -15 -7 -11 callgsubr
          -1 -11 rlineto
          -23 -2 6 -10 15 hhcurveto
          46 hlineto
          -12 -109 rlineto
          25 -22 -27 20 -46 hhcurveto
          -100 -75 -96 -170 -18 hvcurveto
          -165 -17 50 -106 93 hhcurveto
          hintmask 11111100
          48 46 28 51 32 hvcurveto
          -63 8 40 -16 36 hhcurveto
          36 28 18 28 6 hvcurveto
          20 callsubr
          -12 -7 -7 -4 -11 hhcurveto
          -15 -8 10 37 2 hvcurveto
          12 118 20 181 18 169 rrcurveto
          hintmask 11111010
          46 hlineto
          16 7 10 23 2 hvcurveto
          2 11 69 callsubr
          -207 -530 rmoveto
          -38 -25 -31 -23 -30 hhcurveto
          -52 -19 65 119 13 hvcurveto
          120 12 35 59 58 hhcurveto
          28 23 -13 -23 17 hvcurveto
          endchar
        </CharString>
        <CharString name="degree">
          -233 442 50 165 50 hstem
          65 52 106 54 vstem
          157 442 rmoveto
          61 50 47 85 9 hvcurveto
          85 9 -40 48 -61 hhcurveto
          -61 -50 -48 -85 -9 hvcurveto
          -85 -9 40 -47 61 hhcurveto
          5 50 rmoveto
          -32 -19 28 54 6 hvcurveto
          53 6 23 30 32 hhcurveto
          32 19 -30 -53 -6 hvcurveto
          -54 -6 -23 -28 -32 hhcurveto
          endchar
        </CharString>
        <CharString name="dieresis">
          -253 599 103 hstem
          57.5 -41 callsubr
          vstem
          95 599 -104 callsubr
          endchar
        </CharString>
        <CharString name="divide">
          -61 -2 107 85 78 85 107 hstemhm
          154 95 -57.5 94.5 hintmask 01101000
          229 353 rmoveto
          7 hlineto
          31 14 -19 callsubr
          6 57 rlineto
          16 1 -11 9 -31 hhcurveto
          -7 hlineto
          -32 -13 -9 -16 -2 hvcurveto
          -5 -57 -54 callsubr
          11 -9 31 hhcurveto
          -185 -163 rmoveto
          346 hlineto
          18 7 115 callsubr
          24 2 -5 11 -18 hhcurveto
          -346 hlineto
          -17 -9 -11 -24 107 callsubr
          -2 6 -12 17 hhcurveto
          hintmask 11110000
          148 -192 rmoveto
          7 hlineto
          31 14 -19 callsubr
          6 57 -77 callgsubr
          -7 -75 callgsubr
          -1 hvcurveto
          -6 -57 -62 callsubr
          endchar
        </CharString>
        <CharString name="dollar">
          -69 -6 94 529 92 49 -20 hstemhm
          56 101 6 47.5 34 46.5 2 103 hintmask 00000000
          hintmask 11101010
          180 -70 rmoveto
          6 hlineto
          13 8 6 14 1 hvcurveto
          5 46 rlineto
          115 14 68 78 118 vvcurveto
          98 -58 50 -83 45 vhcurveto
          23 218 rlineto
          29 29 -8 -12 28 hvcurveto
          -2 6 7 -3 5 hhcurveto
          17 17 53 18 7 -3 6 -8 5 hvcurveto
          hintmask 11110100
          -26 15 -47 11 -43 2 1 10 0 12 1 7 rrcurveto
          13 -4 7 -12 vhcurveto
          -7 hlineto
          -15 -5 -6 -14 -2 hvcurveto
          -3 -29 rlineto
          -111 -9 -76 -78 -112 vvcurveto
          -108 73 -49 71 -41 vhcurveto
          -24 -224 rlineto
          -52 -38 10 25 -37 hvcurveto
          3 -4 -4 3 -6 hhcurveto
          -18 -13 -43 -24 -18 12 -8 13 -6 hvcurveto
          hintmask 11101010
          39 -27 46 -8 53 -1 rrcurveto
          -2 -20 -2 -20 -4 vvcurveto
          -14 3 -6 14 vhcurveto
          hintmask 11110010
          32 494 rmoveto
          -35 25 -20 28 39 vvcurveto
          55 32 30 44 11 vhcurveto
          -10 -517 rmoveto
          20 191 rlineto
          30 -22 20 -28 -40 vvcurveto
          -57 -29 -32 -41 -12 vhcurveto
          endchar
        </CharString>
        <CharString name="dotaccent">
          -253 599 103 hstem
          119 -12 callgsubr
          165 -84 callsubr
          endchar
        </CharString>
        <CharString name="dotbelowcomb">
          -509 -183 103 hstem
          -92 -12 callgsubr
          -46 -183 -107 callsubr
          endchar
        </CharString>
        <CharString name="dotlessi">
          68 callgsubr
          136 -4 -101 callsubr
          endchar
        </CharString>
        <CharString name="e">
          -24 callgsubr
          36 callgsubr
          149 216 -100 callgsubr
          endchar
        </CharString>
        <CharString name="eacute">
          -24 callgsubr
          36 callgsubr
          254 582 rmoveto
          -106 callsubr
          -105 -366 -100 callgsubr
          endchar
        </CharString>
        <CharString name="ebreve">
          -24 callgsubr
          52 73 36 callgsubr
          280 -86 callsubr
          -131 -366 -100 callgsubr
          endchar
        </CharString>
        <CharString name="ecaron">
          -24 callgsubr
          50 143 36 callgsubr
          230 601 rmoveto
          -16 8 15 -5 21 hhcurveto
          12 hlineto
          22 14 5 16 11 hvcurveto
          65 91 rlineto
          5 7 4 6 4 vvcurveto
          9 1 -7 5 -12 hhcurveto
          -22 hlineto
          -16 -12 -5 -11 -7 hvcurveto
          -46 -64 -32 64 rlineto
          11 -7 -9 5 -15 hhcurveto
          -21 hlineto
          -13 -8 -5 -8 -1 hvcurveto
          -4 3 -8 2 -6 vhcurveto
          -36 -476 -100 callgsubr
          endchar
        </CharString>
        <CharString name="ecircumflex">
          -24 callgsubr
          45 143 36 callgsubr
          184 -103 callgsubr
          -35 -359 -100 callgsubr
          endchar
        </CharString>
        <CharString name="edieresis">
          -24 callgsubr
          69 103 hstemhm
          43 106 25.5 -41 callsubr
          -69.5 100 hintmask 00000000
          hintmask 11111110
          212 599 -104 callsubr
          hintmask 11111001
          -200 -383 -100 callgsubr
          endchar
        </CharString>
        <CharString name="edotaccent">
          -24 callgsubr
          69 103 hstemhm
          43 106 86 -64 callsubr
          -8.5 100 hintmask 00000000
          hintmask 11111100
          281 -84 callsubr
          -132 -383 -21 callsubr
        </CharString>
        <CharString name="egrave">
          -24 callgsubr
          36 callgsubr
          295 582 -99 callsubr
          -146 -366 -100 callgsubr
          endchar
        </CharString>
        <CharString name="eight">
          -50 -7 86 542 86 hstemhm
          28 104 -50 103 126 105 -81 102 hintmask 11100100
          200 -7 rmoveto
          hintmask 11101000
          122 82 82 121 12 hvcurveto
          11 103 -44 46 -53 32 rrcurveto
          hintmask 11010100
          52 26 46 48 9 85 rrcurveto
          113 11 -73 58 -96 hhcurveto
          -104 -81 -64 -114 -12 hvcurveto
          -8 -81 30 -44 41 -31 rrcurveto
          hintmask 11100100
          -55 -27 -52 -52 -10 -100 rrcurveto
          -128 -13 69 -73 116 hhcurveto
          hintmask 11010100
          60 425 rmoveto
          -45 25 -37 27 7 64 rrcurveto
          60 6 37 27 41 hhcurveto
          41 31 -27 -62 -6 hvcurveto
          -6 -53 -29 -35 -40 -26 rrcurveto
          hintmask 11101000
          -51 -339 rmoveto
          -49 -36 36 84 8 hvcurveto
          7 67 30 37 43 28 55 -29 54 -26 -10 -82 rrcurveto
          -68 -6 -44 -47 -52 hhcurveto
          endchar
        </CharString>
        <CharString name="ellipsis">
          43 -2 123 hstem
          19 122 callgsubr
          122 callgsubr
          108 vstem
          56 -2 rmoveto
          21 hlineto
          31 13 9 16 3 hvcurveto
          7 73 rlineto
          17 2 -12 8 -31 hhcurveto
          -21 hlineto
          -31 -13 -8 -17 -2 hvcurveto
          -8 -73 -62 callsubr
          183 hmoveto
          20 hlineto
          32 13 9 16 3 hvcurveto
          7 73 rlineto
          17 2 -12 8 -31 hhcurveto
          -21 19 callsubr
          183 hmoveto
          21 4 callsubr
          8 73 rlineto
          17 2 -12 8 -31 hhcurveto
          -21 19 callsubr
          endchar
        </CharString>
        <CharString name="emacron">
          -24 callgsubr
          78 77 36 callgsubr
          184 608 -90 callgsubr
          -35 -392 -100 callgsubr
          endchar
        </CharString>
        <CharString name="emdash">
          377 225 81 hstem
          -0.57 887.7 vstem
          18 225 rmoveto
          843 86 callgsubr
          -843 34 callgsubr
        </CharString>
        <CharString name="endash">
          -66 225 81 hstem
          -0.57 444.7 vstem
          18 225 rmoveto
          400 86 callgsubr
          -400 34 callgsubr
        </CharString>
        <CharString name="eng">
          -212 85 569 88 hstem
          79 103 133 107 vstem
          242 -212 rmoveto
          52 68 30 111 12 hvcurveto
          48 450 rlineto
          -94 callsubr
          -43 -429 rlineto
          -48 -5 -16 -13 -19 -21 -7 5 -7 hhcurveto
          -16 -12 -42 -12 -1 hvcurveto
          -30 -3 41 -6 36 hhcurveto
          endchar
        </CharString>
        <CharString name="eogonek">
          -55 -150 65 78 86 131 77 157 86 hstemhm
          43 106 130 63 -12 100 hintmask 00000000
          hintmask 11111100
          427 -79 rmoveto
          -1 callgsubr
          19 6 28 14 27 hvcurveto
          4 3 4 4 3 4 rrcurveto
          12 16 4 20 0 18 0 16 -5 13 0 flex1
          -16 -37 -47 -71 hhcurveto
          3 callgsubr
          2 vlineto
          3 callsubr
          hintmask 11111010
          -66 callgsubr
          -165 -75 -149 -182 -162 93 -44 100 hvcurveto
          hintmask 11111100
          15 19 2 5 20 hvcurveto
          -8 -23 -3 -22 -15 -59 callsubr
          hintmask 11111010
          -153 523 66 callgsubr
        </CharString>
        <CharString name="equal">
          80 callgsubr
          60 270 rmoveto
          332 85 callsubr
          -332 hlineto
          -16 -9 -11 -24 92 callgsubr
          6 -12 17 hhcurveto
          -18 -169 rmoveto
          332 85 callgsubr
          -332 hlineto
          -17 -9 -11 -25 92 callgsubr
          7 -12 16 hhcurveto
          endchar
        </CharString>
        <CharString name="estimated">
          106 -7 55 307 50 252 50 hstem
          22 134 307 130 vstem
          156 355 rmoveto
          437 hlineto
          227 -127 125 -154 -159 -131 -125 -227 -232 135 -130 163 81 77 39 65 55 vhcurveto
          6 8 4 7 6 vvcurveto
          12 -14 16 -16 -8 -7 -6 -9 -6 vhcurveto
          -52 -38 -74 -31 -60 hhcurveto
          -64 -57 22 45 -43 hvcurveto
          156 542 rmoveto
          56 54 -23 -44 41 hvcurveto
          -185 -307 187 vlineto
          43 41 55 22 60 hhcurveto
          endchar
        </CharString>
        <CharString name="eth">
          -32 -7 86 362 85 65 53.5 -26 52.5 hstemhm
          40.08 105.64 185.5 105.8 hintmask 11011100
          445 636 rmoveto
          9 -7 26 -18 -4 -42 -6 -5 -30 vhcurveto
          hintmask 11101100
          -12 18 -9 13 -10 12 rrcurveto
          7 -7 -8 4 -13 hhcurveto
          -14 -13 -2 -1 -11 hvcurveto
          -12 -2 -5 -5 -1 -7 -1 -9 13 -19 12 -20 -64 -9 rcurveline
          -12 -2 -6 -5 -1 -7 rrcurveto
          -16 -1 12 -19 16 hhcurveto
          2 2 1 10 75 hvcurveto
          13 -26 12 -28 8 -28 rrcurveto
          4 -15 -16 2 -19 hhcurveto
          -125 -73 -95 -171 -18 hvcurveto
          -173 -18 65 -94 121 hhcurveto
          135 70 94 174 18 hvcurveto
          hintmask 11011100
          13 130 -27 117 -51 107 57 7 rcurveline
          11 1 7 5 1 8 rrcurveto
          -117 -375 rmoveto
          -40 callgsubr
          -62 -21 55 127 13 hvcurveto
          126 14 32 54 62 hhcurveto
          62 22 -55 -125 -13 hvcurveto
          endchar
        </CharString>
        <CharString name="exclam">
          -263 -2 123 581 -20 hstemhm
          34 199 -195 110 hintmask 11100000
          105 208 rmoveto
          8 hlineto
          29 7 9 16 3 hvcurveto
          27 148 28 149 26 148 rrcurveto
          15 2 -14 9 -28 hhcurveto
          -30 -75 callgsubr
          -1 hvcurveto
          -47 -444 rlineto
          -16 -1 7 -9 29 hhcurveto
          hintmask 11010000
          -30 -210 114 callgsubr
          2 hvcurveto
          8 73 rlineto
          17 1 -12 8 -31 hhcurveto
          -22 hlineto
          -31 -14 -8 -17 -1 93 callgsubr
          11 -9 32 hhcurveto
          endchar
        </CharString>
        <CharString name="exclamdown">
          -263 402 123 hstemhm
          103 106 callgsubr
          140 402 rmoveto
          23 hlineto
          31 14 8 17 1 59 callgsubr
          -1 11 -8 31 hhcurveto
          -82 -581 rmoveto
          30 hlineto
          31 13 -19 callsubr
          47 444 rlineto
          16 1 -6 9 -29 hhcurveto
          -9 hlineto
          -29 -7 -9 -16 -2 hvcurveto
          -29 -149 -51 -273 -3 -24 rrcurveto
          -15 -1 14 -8 28 hhcurveto
          endchar
        </CharString>
        <CharString name="f">
          -223 91 callsubr
          116 103 vstem
          102 121 callgsubr
          44 415 rlineto
          57 hlineto
          16 8 31 callgsubr
          -57 hlineto
          -68 callgsubr
          106 callsubr
        </CharString>
        <CharString name="f_f">
          63 91 callsubr
          116 103 183 103 vstem
          544 757 rmoveto
          -56 -69 -27 -110 -12 hvcurveto
          -10 -97 rlineto
          -183 hlineto
          -68 callgsubr
          33 callgsubr
          11 hlineto
          32 15 -37 callgsubr
          44 415 rlineto
          184 hlineto
          -45 -415 rlineto
          33 callgsubr
          11 hlineto
          32 15 -37 callgsubr
          44 415 rlineto
          57 hlineto
          16 8 31 callgsubr
          -57 hlineto
          10 92 rlineto
          48 5 17 9 22 17 8 -6 8 hhcurveto
          16 13 47 8 1 hvcurveto
          26 3 -46 10 -30 hhcurveto
          endchar
        </CharString>
        <CharString name="f_t">
          75 -7 86 359 85 149 85 hstemhm
          116 103 134 29 callgsubr
          hintmask 00000000
          hintmask 11110100
          524 438 rmoveto
          -55 callsubr
          -29 hlineto
          -1 hlineto
          -150 hlineto
          -68 callgsubr
          33 callgsubr
          11 hlineto
          32 15 -37 callgsubr
          44 415 rlineto
          hintmask 11111000
          180 hlineto
          -21 -198 -11 -107 -25 53 callgsubr
          47 12 92 20 183 hvcurveto
          endchar
        </CharString>
        <CharString name="fi">
          31 -4 85 357 85 76 103 -30 85 hstemhm
          116 103 122.5 100.5 -50 -64 callsubr
          hintmask 11011100
          486 85 45 callsubr
          -14 -9 10 37 4 hvcurveto
          9 98 14 119 16 155 rrcurveto
          16 -12 7 -32 vhcurveto
          -223 hlineto
          -68 callgsubr
          33 callgsubr
          11 hlineto
          32 15 -37 callgsubr
          44 415 rlineto
          167 hlineto
          -27 -251 -2 -25 -2 -30 -3 -25 rlinecurve
          -95 -6 48 -16 42 hhcurveto
          102 callgsubr
          1 31 -13 hhcurveto
          hintmask 11101010
          -37 617 -65 callgsubr
        </CharString>
        <CharString name="five">
          -50 -7 86 263 85 188 85 hstem
          8 422.54 vstem
          171 -7 rmoveto
          103 120 50 169 18 hvcurveto
          168 17 -106 47 -109 hhcurveto
          -35 hlineto
          32 188 rlineto
          191 hlineto
          16 8 10 23 3 hvcurveto
          1 16 114 callsubr
          -254 hlineto
          -23 -11 -10 -23 -4 hvcurveto
          -48 -292 rlineto
          -23 -3 6 -10 24 hhcurveto
          80 hlineto
          95 43 -45 -85 -8 hvcurveto
          -88 -10 -59 -45 -63 -72 -35 36 -14 hhcurveto
          -15 -30 -39 -19 -2 hvcurveto
          -29 -3 66 -35 100 hhcurveto
          endchar
        </CharString>
        <CharString name="fl">
          47 -7 86 359 85 149 85 -4 -20 hstemhm
          116 103 124 171.75 hintmask 11011100
          102 121 callgsubr
          44 415 rlineto
          57 hlineto
          16 8 31 callgsubr
          -57 hlineto
          hintmask 11101100
          -68 callgsubr
          hintmask 11011100
          33 callgsubr
          340 -5 5 callgsubr
        </CharString>
        <CharString name="florin">
          -180 91 callsubr
          7 342 vstem
          272 757 rmoveto
          -65 -75 -29 -112 -14 hvcurveto
          -12 -93 rlineto
          -34 hlineto
          -27 -4 -35 -23 -17 3 -10 15 hvcurveto
          34 hlineto
          -86 -621 rlineto
          -15 11 -9 32 vhcurveto
          11 hlineto
          29 17 8 16 2 hvcurveto
          87 621 rlineto
          55 hlineto
          38 14 52 14 14 -3 5 -13 hvcurveto
          -79 hlineto
          12 87 rlineto
          51 7 20 11 29 27 10 -6 5 hhcurveto
          14 17 46 11 31 -51 3 -26 hvcurveto
          endchar
        </CharString>
        <CharString name="four">
          -50 160 85 457 -20 hstem
          255 102 vstem
          284 -2 rmoveto
          24 hlineto
          27 13 -19 callsubr
          14 137 rlineto
          48 hlineto
          16 8 10 26 2 hvcurveto
          1 13 rlineto
          25 4 -6 11 -16 hhcurveto
          -47 hlineto
          45 432 rlineto
          16 1 -11 9 -27 hhcurveto
          -29 hlineto
          -18 -17 -3 -13 -8 hvcurveto
          -300 -452 -2 -3 -1 -3 -1 -5 rlinecurve
          -21 -2 10 -42 13 hhcurveto
          235 hlineto
          -14 -137 -54 callsubr
          11 -9 27 hhcurveto
          -171 247 rmoveto
          195 298 3 -2 -9 -38 -7 -34 -6 -54 rlinecurve
          -18 -170 rlineto
          endchar
        </CharString>
        <CharString name="fraction">
          -245 701 -20 hstem
          -120 513 vstem
          378 701 rmoveto
          -22 hlineto
          -16 -11 -8 -13 -9 hvcurveto
          -436 -660 rlineto
          -3 -5 -1 -5 -3 vvcurveto
          -5 4 -3 11 vhcurveto
          22 hlineto
          16 10 7 14 10 hvcurveto
          435 660 rlineto
          4 5 1 4 2 vvcurveto
          6 -5 4 -10 vhcurveto
          endchar
        </CharString>
        <CharString name="g">
          21 callgsubr
          28 callsubr
          hintmask 00000000
          hintmask 11011000
          400 525 rmoveto
          -8 hlineto
          -34 -6 -18 -31 -10 hvcurveto
          hintmask 11101000
          -71 callsubr
          hintmask 11011000
          1 callgsubr
          hintmask 11101000
          -21 callgsubr
          hintmask 11011000
          -3 -15 -3 -19 -3 -21 rrcurveto
          endchar
        </CharString>
        <CharString name="g.ss01">
          27 callsubr
          70 callgsubr
          141 91 -68 88 hintmask 0000000000000000
          hintmask 1100100100000000
          183 -212 rmoveto
          16 callgsubr
          rrcurveto
          hintmask 1100001010000000
          -60 11 -60 0 5 49 5 36 30 18 41 2 -47 callsubr
          hintmask 1001010010000000
          -6 callgsubr
          hintmask 1100001010000000
          8 callsubr
          hintmask 1100100010000000
          71 callsubr
          hintmask 1100100100000000
          93 callsubr
          hintmask 1010010010000000
          -29 callsubr
          hintmask 1100100100000000
          -35 callgsubr
        </CharString>
        <CharString name="gbreve">
          21 callgsubr
          77 73 28 callsubr
          hintmask 11101100
          261 -86 callsubr
          hintmask 11011100
          139 -57 rmoveto
          -8 hlineto
          -34 -6 -18 -31 -10 hvcurveto
          hintmask 11101100
          -71 callsubr
          hintmask 11011100
          1 callgsubr
          hintmask 11101100
          -21 callgsubr
          hintmask 11011100
          -3 -15 -3 -19 -3 -21 rrcurveto
          endchar
        </CharString>
        <CharString name="gbreve.ss01">
          27 callsubr
          52 73 70 callgsubr
          141 91 -68 88 hintmask 1100101001000000
          275 -86 callsubr
          hintmask 1100110010000000
          -92 -794 -63 callsubr
        </CharString>
        <CharString name="gcircumflex">
          21 callgsubr
          70 143 28 callsubr
          hintmask 11101100
          165 -103 callgsubr
          hintmask 11011100
          235 -50 rmoveto
          -8 hlineto
          -34 -6 -18 -31 -10 hvcurveto
          hintmask 11101100
          -71 callsubr
          hintmask 11011100
          1 callgsubr
          hintmask 11101100
          -21 callgsubr
          hintmask 11011100
          -3 -15 -3 -19 -3 -21 rrcurveto
          endchar
        </CharString>
        <CharString name="gcircumflex.ss01">
          27 callsubr
          45 143 70 callgsubr
          141 91 -68 88 hintmask 1100101001000000
          179 -103 callgsubr
          hintmask 1100110010000000
          4 -787 -63 callsubr
        </CharString>
        <CharString name="gcommaaccent">
          21 callgsubr
          77 185 28 callsubr
          73.86 94 hintmask 11101110
          255 582 rmoveto
          40 callgsubr
          -27 -58 -65 -87 -20 12 -13 26 vhcurveto
          hintmask 11011110
          145 -57 rmoveto
          -8 hlineto
          -34 -6 -18 -31 -10 hvcurveto
          hintmask 11101110
          -71 callsubr
          hintmask 11011110
          1 callgsubr
          hintmask 11101110
          -21 callgsubr
          hintmask 11011110
          -3 -15 -3 -19 -3 -21 rrcurveto
          endchar
        </CharString>
        <CharString name="gcommaaccent.ss01">
          27 callsubr
          52 185 70 callgsubr
          66 94 -19 91 -68 88 hintmask 1100101010000000
          316 767 rmoveto
          -27 -58 -65 -87 -20 12 -13 26 hvcurveto
          40 callgsubr
          vhcurveto
          hintmask 1100110001000000
          -133 -979 rmoveto
          16 callgsubr
          rrcurveto
          hintmask 1100100100100000
          -60 11 -60 0 5 49 5 36 30 18 41 2 -47 callsubr
          hintmask 1001101010000000
          -6 callgsubr
          hintmask 1100100110000000
          8 callsubr
          hintmask 1100110010000000
          71 callsubr
          hintmask 1100110001000000
          93 callsubr
          hintmask 1010101000100000
          -29 callsubr
          hintmask 1100110001000000
          -35 callgsubr
        </CharString>
        <CharString name="gdotaccent">
          21 callgsubr
          94 103 28 callsubr
          72.86 -64 callsubr
          hintmask 11101110
          262 -84 callsubr
          hintmask 11011110
          138 -74 rmoveto
          -8 hlineto
          -34 -6 -18 -31 -10 hvcurveto
          hintmask 11101110
          -71 callsubr
          hintmask 11011110
          1 callgsubr
          hintmask 11101110
          -21 callgsubr
          hintmask 11011110
          -3 -15 -3 -19 -3 -21 rrcurveto
          endchar
        </CharString>
        <CharString name="gdotaccent.ss01">
          27 callsubr
          69 103 70 callgsubr
          65 -64 callsubr
          -27.5 91 -68 88 hintmask 0000000000000000
          hintmask 1100110010000000
          276 -84 callsubr
          -93 -811 rmoveto
          hintmask 1100100101000000
          16 callgsubr
          -60 11 -60 0 5 49 5 36 30 18 41 2 rrcurveto
          hintmask 1100101000100000
          -47 callsubr
          hintmask 1001101000100000
          -6 callgsubr
          hintmask 1100100100100000
          8 callsubr
          hintmask 1100110000100000
          84 callgsubr
          hintmask 1010101000100000
          -29 callsubr
          hintmask 1100110001000000
          -35 callgsubr
        </CharString>
        <CharString name="germandbls">
          -29 0 85 243 85 206 88 hstemhm
          331 105 -92 108 hintmask 11101000
          87 -2 rmoveto
          16 hlineto
          30 14 9 16 3 hvcurveto
          52 505 rlineto
          58 6 30 33 46 hhcurveto
          40 27 -24 -71 -7 hvcurveto
          -68 -8 -36 -43 -41 hhcurveto
          -5 hlineto
          -14 -7 -11 -24 -3 hvcurveto
          -2 -14 rlineto
          hintmask 11110000
          -25 -2 5 -11 16 hhcurveto
          12 hlineto
          50 31 -42 -81 -9 hvcurveto
          -79 -8 -38 -41 -47 hhcurveto
          -17 hlineto
          -15 -8 -13 callgsubr
          16 hhcurveto
          21 hlineto
          108 80 72 132 14 hvcurveto
          10 90 -27 64 -66 23 rrcurveto
          3 vlineto
          hintmask 11101000
          54 25 38 58 7 69 rrcurveto
          124 13 -76 47 -94 hhcurveto
          -114 -72 -75 -109 -11 hvcurveto
          -52 -500 rlineto
          -16 -3 12 -9 32 hhcurveto
          endchar
        </CharString>
        <CharString name="grave">
          -253 95 callsubr
          47 159 vstem
          183 582 -99 callsubr
          endchar
        </CharString>
        <CharString name="gravecomb">
          -509 95 callsubr
          -114 159 vstem
          22 582 -99 callsubr
          endchar
        </CharString>
        <CharString name="greater">
          -61 8.05 447.91 hstem
          9 401 vstem
          9 38 rmoveto
          -2 -24 6 -13 22 11 349 174 rcurveline
          17 8 7 11 1 18 1 18 rcurveline
          1 18 -3 11 -15 8 -311 174 rcurveline
          -19 10 -8 -9 -3 -27 -2 -15 rcurveline
          -2 -24 3 -11 16 -8 239 -132 rcurveline
          -269 -136 -18 -9 -6 -15 -2 -24 rlinecurve
          endchar
        </CharString>
        <CharString name="greaterequal">
          -56 0 83 hstem
          11.46 412.54 vstem
          22 147 rmoveto
          -4 -33 7 -4 24 12 347 168 rcurveline
          16 8 9 10 1 18 2 18 rcurveline
          2 18 -6 11 -15 8 -311 167 rcurveline
          -22 11 -4 -6 -4 -30 -1 -13 rcurveline
          -3 -21 4 -12 15 -9 233 -133 rcurveline
          -262 -133 -17 -9 -6 -10 -2 -19 rlinecurve
          7 -164 88 callgsubr
          -7 12 -16 89 callgsubr
          6 -11 17 hhcurveto
          endchar
        </CharString>
        <CharString name="guillemotleft">
          -38 57 401 hstem
          33.44 400.56 vstem
          116 253 rmoveto
          125 148 7 8 5 120 callgsubr
          -9 -7 -4 -8 -10 hvcurveto
          -138 -155 -23 -22 -5 -21 15 -23 89 callsubr
          2 hvcurveto
          6 -1 5 -4 6 vhcurveto
          201 352 rmoveto
          -9 -8 -4 -8 -9 hvcurveto
          -138 -155 -22 -21 -6 -20 15 -25 89 callsubr
          1 hvcurveto
          1 6 -2 5 -3 6 -82 147 rcurveline
          125 148 6 8 6 120 callgsubr
          endchar
        </CharString>
        <CharString name="guillemotright">
          -38 57 401 hstem
          51 400.53 vstem
          263 290 rmoveto
          -95 155 rlineto
          8 -6 -7 5 -8 hhcurveto
          -19 -24 -21 -11 -1 hvcurveto
          -1 -6 2 -5 3 -6 82 -147 rcurveline
          -125 -148 -6 -8 -6 -8 -1 -6 rlinecurve
          -18 -2 24 -17 13 hhcurveto
          9 8 4 8 9 hvcurveto
          138 155 22 21 6 20 -15 25 rlinecurve
          180 hmoveto
          -95 155 rlineto
          8 -6 -7 5 -8 hhcurveto
          -19 -24 -21 -11 -2 hvcurveto
          -6 1 -5 4 -6 vhcurveto
          82 -147 -125 -148 -7 -8 -5 -8 -1 -6 rlinecurve
          -18 -2 24 -17 13 hhcurveto
          9 7 4 8 10 hvcurveto
          138 155 23 22 5 21 -15 23 rlinecurve
          endchar
        </CharString>
        <CharString name="guilsinglleft">
          -262 58 400 hstem
          29 199 vstem
          144 58 rmoveto
          15 32 17 16 2 hvcurveto
          1 7 -2 7 -4 7 -76 146 rcurveline
          107 146 5 7 3 7 1 6 rlinecurve
          19 2 -30 15 -14 hhcurveto
          -8 -7 -3 -9 -8 hvcurveto
          -118 -155 -10 -13 -4 -8 -2 -12 rlinecurve
          -1 -12 3 -8 7 -13 86 -155 rcurveline
          -9 5 7 -3 8 hhcurveto
          endchar
        </CharString>
        <CharString name="guilsinglright">
          -262 58 400 hstem
          26 199.43 vstem
          69 58 rmoveto
          7 7 3 9 8 hvcurveto
          119 155 9 13 5 8 1 12 rlinecurve
          2 12 -4 8 -6 13 -87 155 rcurveline
          9 -5 -7 3 -7 hhcurveto
          -14 -33 -15 -19 -3 hvcurveto
          -1 -6 3 -7 3 -7 78 -146 rcurveline
          -109 -146 -4 -7 -4 -7 -1 -7 rlinecurve
          -16 -1 28 -17 16 hhcurveto
          endchar
        </CharString>
        <CharString name="h">
          -24 -4 85 361 88 223 -20 hstemhm
          292 105 -79 107 hintmask 11110000
          379 -4 65 callsubr
          hintmask 11101000
          -44 callsubr
          hintmask 11110000
          48 callgsubr
          vhcurveto
          endchar
        </CharString>
        <CharString name="hbar">
          -24 -4 85 361 88 64 77 82 -20 hstemhm
          107 104 81 105 -79 107 hintmask 11111100
          442 85 rmoveto
          -32 callgsubr
          26 hvcurveto
          hintmask 11111010
          18 21 185 7 61 vhcurveto
          105 11 -51 46 -68 hhcurveto
          -54 -46 -30 -38 -30 hvcurveto
          13 132 rlineto
          69 hlineto
          17 8 10 23 2 hvcurveto
          2 11 rlineto
          23 2 -5 10 -17 hhcurveto
          -70 hlineto
          6 57 rlineto
          16 3 -12 9 -30 hhcurveto
          -18 44 callsubr
          -6 -57 rlineto
          -35 hlineto
          -16 -7 -11 callgsubr
          -1 -11 rlineto
          -23 -2 6 -10 16 hhcurveto
          34 hlineto
          -60 -571 -62 callsubr
          17 hlineto
          30 38 callgsubr
          37 360 rlineto
          21 11 34 38 42 hhcurveto
          43 16 -29 -50 -6 hvcurveto
          hintmask 11111100
          48 callgsubr
          47 72 callsubr
          vhcurveto
          endchar
        </CharString>
        <CharString name="hcircumflex">
          -24 442 88 223 -20 49 143 hstemhm
          292 105 -79 107 hintmask 00000000
          hintmask 11110000
          74 782 -107 callgsubr
          305 -786 65 callsubr
          hintmask 11001000
          -44 callsubr
          hintmask 11010000
          -20 -195 rlineto
          -4 -40 -2 -22 -12 vvcurveto
          hintmask 11110000
          -78 46 -20 41 vhcurveto
          endchar
        </CharString>
        <CharString name="hookabovecomb">
          -509 696 54 hstem
          -204 70 vstem
          -228 565 -92 callgsubr
          endchar
        </CharString>
        <CharString name="hungarumlaut">
          -202 95 callsubr
          8 298 vstem
          32 582 -82 callgsubr
          endchar
        </CharString>
        <CharString name="hyphen">
          -253 225 81 hstem
          25.43 205.7 vstem
          44 225 rmoveto
          160 -36 callgsubr
          1 9 -30 callgsubr
          -161 34 callgsubr
        </CharString>
        <CharString name="i">
          37 callsubr
          94 103 hstemhm
          -27 callgsubr
          -49 91 callgsubr
          hintmask 11101000
          153 -84 callsubr
          hintmask 11110000
          -17 -603 -101 callsubr
          endchar
        </CharString>
        <CharString name="i.loclTRK">
          37 callsubr
          94 103 hstemhm
          -27 callgsubr
          -47 91 callgsubr
          hintmask 11101000
          155 -84 callsubr
          hintmask 11110000
          -19 -603 -101 callsubr
          endchar
        </CharString>
        <CharString name="iacute">
          68 callgsubr
          128 582 rmoveto
          -106 callsubr
          8 -586 -101 callsubr
          endchar
        </CharString>
        <CharString name="iacute_j.loclNLD">
          -6 -212 85 123 99 callgsubr
          hstem
          -27 callgsubr
          vstem
          128 582 rmoveto
          -106 callsubr
          256 hmoveto
          -106 callsubr
          -248 -586 -101 callsubr
          125 -208 -87 callsubr
        </CharString>
        <CharString name="ibreve">
          37 callsubr
          77 73 hstem
          -27 callgsubr
          vstem
          154 -86 callsubr
          -18 -586 -101 callsubr
          endchar
        </CharString>
        <CharString name="icircumflex">
          37 callsubr
          70 143 hstem
          -27 callgsubr
          vstem
          58 -103 callgsubr
          78 -579 -101 callsubr
          endchar
        </CharString>
        <CharString name="idieresis">
          37 callsubr
          94 103 hstemhm
          48.5 88.5 -81.5 100.5 29 88.5 hintmask 00000000
          hintmask 11110100
          86 599 -104 callsubr
          hintmask 11101000
          -87 -603 -101 callsubr
          endchar
        </CharString>
        <CharString name="igrave">
          68 callgsubr
          169 582 -99 callsubr
          -33 -586 -101 callsubr
          endchar
        </CharString>
        <CharString name="ij">
          -6 -212 85 123 99 callgsubr
          94 103 hstemhm
          -27 callgsubr
          -49 -64 callsubr
          151.5 91 callgsubr
          hintmask 11110110
          153 -84 callsubr
          255 hmoveto
          36 17 9 15 2 hvcurveto
          5 54 rlineto
          16 2 -15 9 -36 hhcurveto
          -37 -16 -10 -15 -1 hvcurveto
          -6 -54 -54 callsubr
          14 -8 37 hhcurveto
          hintmask 11111010
          -272 -603 -101 callsubr
          125 -208 -87 callsubr
        </CharString>
        <CharString name="imacron">
          37 callsubr
          103 77 hstem
          -27 callgsubr
          vstem
          58 608 -90 callgsubr
          78 -612 -101 callsubr
          endchar
        </CharString>
        <CharString name="infinity">
          121 114 73 -73 76 179 76 -73 73 hstemhm
          40 81 393 81 hintmask 00000000
          hintmask 10101100
          478 445 rmoveto
          -64 -54 -45 -66 -35 hvcurveto
          hintmask 01011100
          74 -22 -43 37 -59 hhcurveto
          -83 -68 -69 -98 -10 hvcurveto
          -94 -10 49 -70 79 hhcurveto
          64 54 45 66 35 hvcurveto
          hintmask 10011100
          -74 21 43 -37 59 hhcurveto
          84 67 69 98 10 hvcurveto
          hintmask 10101100
          94 10 -48 70 -79 hhcurveto
          hintmask 01011100
          -304 -255 rmoveto
          -40 -18 39 51 5 hvcurveto
          53 6 30 39 39 hhcurveto
          32 27 -28 -68 16 hvcurveto
          -42 -22 -34 -44 -41 hhcurveto
          hintmask 10101100
          340 89 rmoveto
          -53 -5 -30 -39 -39 hhcurveto
          -32 -28 28 68 -15 hvcurveto
          42 21 34 44 41 hhcurveto
          40 18 -39 -51 -5 hvcurveto
          endchar
        </CharString>
        <CharString name="integral">
          -211 -162 74 888 75 hstem
          -46 411 vstem
          23 -162 rmoveto
          88 56 78 175 18 hvcurveto
          17 169 9 189 17 161 rrcurveto
          134 15 21 56 42 17 9 -7 5 hhcurveto
          12 13 18 25 3 hvcurveto
          32 3 -50 7 -22 hhcurveto
          -88 -56 -79 -175 -18 hvcurveto
          -18 -168 -8 -187 -17 -164 rrcurveto
          -134 -15 -22 -56 -42 -17 -8 7 -5 hhcurveto
          -13 -13 -18 -24 -2 hvcurveto
          -33 -4 50 -6 23 hhcurveto
          endchar
        </CharString>
        <CharString name="iogonek">
          -255 -174 65 634 -20 94 103 hstemhm
          -27 callgsubr
          -52 63 -60 91 callgsubr
          hintmask 11100100
          153 -84 callsubr
          hintmask 11101000
          99 -702 rmoveto
          -1 callgsubr
          20 7 30 16 29 hvcurveto
          hintmask 11110000
          8 7 6 10 3 11 rrcurveto
          33 callsubr
          -7 -6 -4 -12 hhcurveto
          -14 -9 10 37 4 hvcurveto
          9 98 14 119 16 155 rrcurveto
          16 -12 9 -32 vhcurveto
          -10 hlineto
          -30 -17 -7 -18 -2 hvcurveto
          -3 -20 -18 -175 -12 -118 -2 -25 -2 -30 -3 -25 -5 -86 39 -21 38 -4 rrcurveto
          hintmask 11101000
          -15 -30 -5 -31 -19 -59 callsubr
          endchar
        </CharString>
        <CharString name="itilde">
          37 callsubr
          83 65 callgsubr
          -27 callgsubr
          hintmask 11011000
          34 589 rmoveto
          -2 callsubr
          hintmask 11101000
          -55 callgsubr
          hintmask 11011000
          -20 callsubr
          111 -596 -101 callsubr
          endchar
        </CharString>
        <CharString name="j">
          -260 -212 85 652 -20 94 103 hstem
          109 -12 callgsubr
          155 -84 callsubr
          -148 -811 -87 callsubr
        </CharString>
        <CharString name="jcircumflex">
          -260 -212 85 652 -20 70 143 hstem
          -68 336 vstem
          60 -103 callgsubr
          -53 -787 -87 callsubr
        </CharString>
        <CharString name="k">
          111 callgsubr
          58 398 -32 callsubr
          endchar
        </CharString>
        <CharString name="kcommaaccent">
          111 callgsubr
          168 94 -32 callsubr
          -195 -576 rmoveto
          -13 hlineto
          -30 -13 -14 -21 hvcurveto
          -78 -24 -34 -21 vvcurveto
          -14 20 -3 13 27 58 65 87 20 -12 13 -26 vhcurveto
          endchar
        </CharString>
        <CharString name="kgreenlandic">
          26 525 -20 21 -20 hstemhm
          53 445 hintmask 01100000
          162 526 rmoveto
          -11 hlineto
          -33 -14 51 callsubr
          -50 -478 rlineto
          -16 10 -9 33 vhcurveto
          11 hlineto
          32 14 -19 callsubr
          24 224 4 1 172 -235 rlineto
          -13 9 22 -2 24 hhcurveto
          15 hlineto
          36 13 4 13 3 -2 4 -5 8 hvcurveto
          -182 248 rlineto
          hintmask 10100000
          201 213 rlineto
          8 8 4 8 5 vvcurveto
          7 -13 6 -27 vhcurveto
          -14 hlineto
          -24 -22 -3 -12 -10 hvcurveto
          -200 -215 -4 1 rlineto
          hintmask 01100000
          22 205 rlineto
          16 -11 9 -33 vhcurveto
          endchar
        </CharString>
        <CharString name="l">
          88 callsubr
          156 -7 5 callgsubr
        </CharString>
        <CharString name="lacute">
          88 callsubr
          152 779 rmoveto
          -106 callsubr
          4 -786 5 callgsubr
        </CharString>
        <CharString name="lcaron">
          -239 -7 86 622 -20 72 -20 hstem
          64 callgsubr
          39.25 98 vstem
          156 -7 -77 callsubr
          135 530 rmoveto
          -8 callgsubr
          -13 20 -4 13 vhcurveto
          endchar
        </CharString>
        <CharString name="lcommaaccent">
          -239 103 callsubr
          44 86 674 -20 hstemhm
          64 callgsubr
          -153.75 94 hintmask 00000000
          hintmask 11110000
          156 -7 -77 callsubr
          hintmask 11101000
          -72 -229 -81 callsubr
          endchar
        </CharString>
        <CharString name="ldot">
          -239 -7 86 674 -20 hstemhm
          64 callgsubr
          -17.75 110 hintmask 11100000
          156 -7 -77 callsubr
          hintmask 11010000
          104 310 11 callgsubr
        </CharString>
        <CharString name="less">
          -61 7.93 449.03 hstem
          27 402.02 vstem
          362 11 rmoveto
          17 -9 7 11 2 26 2 14 rcurveline
          2 22 -3 12 -16 10 -235 136 rcurveline
          263 135 16 9 8 12 2 23 rlinecurve
          2 15 2 24 -5 13 -22 -11 rlinecurve
          -350 -174 -15 -8 -8 -11 -2 -18 rlinecurve
          -2 -18 -2 -19 6 -11 14 -7 rlinecurve
          endchar
        </CharString>
        <CharString name="lessequal">
          -56 0 83 hstem
          8.6 430.98 vstem
          371 121 rmoveto
          19 -10 8 9 3 27 1 17 rcurveline
          2 19 -6 11 -13 8 -235 133 rcurveline
          263 133 14 9 9 10 2 25 rlinecurve
          1 11 4 30 -9 6 -20 -9 rlinecurve
          -347 -169 -16 -7 -8 -12 -2 -18 rlinecurve
          -2 -18 -1 -18 5 -11 14 -7 rlinecurve
          -28 -290 88 callgsubr
          -6 12 -17 89 callgsubr
          7 -11 16 hhcurveto
          endchar
        </CharString>
        <CharString name="logicalnot">
          -60 258 83 hstem
          28.43 398.72 vstem
          345 76 rmoveto
          28 hlineto
          21 9 8 16 2 hvcurveto
          22 208 rlineto
          23 3 -8 10 -21 hhcurveto
          -345 hlineto
          -15 25 callgsubr
          -11 58 callgsubr
          288 hlineto
          -16 -158 -54 callsubr
          8 -8 20 hhcurveto
          endchar
        </CharString>
        <CharString name="longs">
          -236 91 callsubr
          57 273 vstem
          100 -2 rmoveto
          11 hlineto
          32 38 callgsubr
          62 592 rlineto
          48 5 17 9 22 18 8 -6 7 hhcurveto
          17 13 47 8 1 hvcurveto
          26 2 -46 10 -30 hhcurveto
          -56 -69 -27 -110 -11 hvcurveto
          -11 -97 rlineto
          -24 hlineto
          -16 -7 83 callgsubr
          -2 -13 rlineto
          -25 -2 6 -11 16 hhcurveto
          24 hlineto
          -43 -415 rlineto
          -16 -3 13 -9 32 hhcurveto
          endchar
        </CharString>
        <CharString name="lozenge">
          -63 -20 736 hstem
          45 377 vstem
          419 368 rmoveto
          -99 326 rlineto
          17 -5 -15 5 -21 hhcurveto
          -13 hlineto
          -21 -17 -5 -17 -7 hvcurveto
          -169 -326 -5 -7 -1 -6 -1 -8 rlinecurve
          -1 -6 1 -7 3 -8 97 -324 rcurveline
          -16 5 15 -6 20 hhcurveto
          19 hlineto
          21 16 6 16 8 hvcurveto
          166 323 4 9 2 6 1 7 rlinecurve
          1 8 -2 6 -2 7 rrcurveto
          -211 -276 rmoveto
          -68 255 121 251 66 -251 rlineto
          endchar
        </CharString>
        <CharString name="lslash">
          88 callsubr
          248 491 rmoveto
          -4 -3 -2 -2 -5 hvcurveto
          -41 -24 28 265 -14 callgsubr
          -35 -330 -31 -19 rlineto
          -14 -9 -7 -10 -16 vvcurveto
          -10 vlineto
          -11 4 -5 5 3 4 2 3 5 vhcurveto
          25 15 -23 -215 rlineto
          -102 -11 57 -28 53 hhcurveto
          35 29 14 29 6 hvcurveto
          16 5 0 31 -13 -7 -7 -4 -16 hhcurveto
          -19 -13 10 40 4 hvcurveto
          29 274 47 28 rlineto
          14 8 7 10 16 vvcurveto
          10 vlineto
          11 -4 5 -5 vhcurveto
          endchar
        </CharString>
        <CharString name="m">
          211 -4 85 361 88 hstemhm
          79 103 345 105 -80 106 hintmask 11110000
          677 85 rmoveto
          -7 -7 -4 -11 hhcurveto
          -12 -9 8 26 1 hvcurveto
          hintmask 11101000
          13 16 142 10 104 vhcurveto
          110 11 -46 46 -68 hhcurveto
          -54 -49 -33 -42 -34 hvcurveto
          53 -13 -41 22 -48 hhcurveto
          -56 -47 -34 -42 -31 hvcurveto
          33 -3 4 35 -27 hhcurveto
          -14 -61 -6 -20 -2 hvcurveto
          -1 -9 6 -34 -9 -87 -37 -343 rcurveline
          -16 -1 12 -9 30 hhcurveto
          18 4 callsubr
          38 360 rlineto
          21 9 33 38 41 hhcurveto
          42 15 -30 -53 -5 hvcurveto
          -36 -336 45 callgsubr
          18 71 callgsubr
          39 363 rlineto
          27 16 31 29 35 hhcurveto
          39 13 -30 -53 -5 hvcurveto
          hintmask 11110000
          -20 -197 -5 -48 -19 vvcurveto
          -79 46 -20 40 48 72 callsubr
          vhcurveto
          endchar
        </CharString>
        <CharString name="macron">
          -254 608 81 callsubr
          608 -90 callgsubr
          endchar
        </CharString>
        <CharString name="minus">
          -60 182 83 hstem
          20 401.27 vstem
          39 182 rmoveto
          355 hlineto
          16 7 73 callgsubr
          11 rlineto
          25 2 -4 11 -16 hhcurveto
          -355 hlineto
          -15 -9 74 callgsubr
          -2 -11 rlineto
          -25 -2 6 -11 15 hhcurveto
          endchar
        </CharString>
        <CharString name="multiply">
          -61 3.75 455.05 hstem
          11 403 vstem
          405 433 rmoveto
          -17 15 -11 10 -10 8 -15 -17 rlinecurve
          -135 -160 -104 161 -9 15 -11 -7 -15 -11 rlinecurve
          -16 -13 -18 -14 3 -10 10 -15 rlinecurve
          105 -163 -140 -165 -13 -14 -3 -10 15 -14 rlinecurve
          14 -13 13 -12 9 -7 13 14 rlinecurve
          135 160 99 -158 11 -16 13 8 12 9 rlinecurve
          20 16 15 11 1 6 -13 19 rlinecurve
          -103 162 142 167 16 19 -1 8 -12 11 rlinecurve
          endchar
        </CharString>
        <CharString name="n">
          96 callgsubr
          58 callsubr
          hintmask 11110000
          439 83 -5 callgsubr
          hintmask 11101000
          11 9 77 19 179 vhcurveto
          -94 callsubr
          hintmask 11110000
          -53 callsubr
          endchar
        </CharString>
        <CharString name="nacute">
          96 callgsubr
          58 callsubr
          hintmask 11110000
          250 582 rmoveto
          -106 callsubr
          189 -499 -5 callgsubr
          hintmask 11101000
          11 9 77 19 179 vhcurveto
          -94 callsubr
          hintmask 11110000
          -53 callsubr
          endchar
        </CharString>
        <CharString name="nacute.loclPLK">
          96 callgsubr
          52 151 58 callsubr
          hintmask 11111000
          259 582 -80 callsubr
          180 -499 -5 callgsubr
          hintmask 11110100
          11 9 77 19 179 vhcurveto
          -94 callsubr
          hintmask 11111000
          -53 callsubr
          endchar
        </CharString>
        <CharString name="napostrophe">
          96 callgsubr
          6 185 hstemhm
          46 94 -61 103 107 105 -79 107 hintmask 00000000
          hintmask 10110100
          55 536 -81 callsubr
          384 -453 -5 callgsubr
          hintmask 11001010
          11 9 77 19 179 vhcurveto
          -94 callsubr
          hintmask 11010100
          -20 -200 rlineto
          -4 -35 -2 -21 -12 vvcurveto
          -81 -1 47 -21 41 hhcurveto
          47 27 23 43 hvcurveto
          hintmask 10110100
          12 -3 12 -8 vhcurveto
          endchar
        </CharString>
        <CharString name="ncaron">
          96 callgsubr
          50 143 58 callsubr
          hintmask 11111000
          270 580 -105 callsubr
          169 -497 -5 callgsubr
          hintmask 11110100
          11 9 77 19 179 vhcurveto
          -94 callsubr
          hintmask 11111000
          -53 callsubr
          endchar
        </CharString>
        <CharString name="ncommaaccent">
          103 callsubr
          44 123 callsubr
          hstemhm
          79 103 -7 94 20 105 -79 107 hintmask 00000000
          hintmask 11101100
          439 83 -5 callgsubr
          hintmask 11110010
          11 9 77 19 179 vhcurveto
          -94 callsubr
          hintmask 11101100
          -53 callsubr
          hintmask 11101000
          -255 -319 -81 callsubr
          endchar
        </CharString>
        <CharString name="nine">
          -50 286 85 247 86 hstem
          54 105 183.26 102.28 vstem
          81 -5 rmoveto
          49 278 135 322 34 hvcurveto
          164 17 -66 88 -119 hhcurveto
          -106 -99 -75 -139 -15 hvcurveto
          -133 -13 72 -71 87 hhcurveto
          40 37 11 19 31 hvcurveto
          -41 -109 -81 -88 -125 -48 rrcurveto
          -9 -3 -2 -5 -6 vvcurveto
          -14 -2 8 -48 25 hhcurveto
          161 376 rmoveto
          -51 -41 37 86 9 hvcurveto
          84 9 52 40 43 hhcurveto
          45 45 -32 -129 -13 hvcurveto
          -2 -19 -4 -20 -3 -19 rrcurveto
          -13 -22 -33 -15 -34 hhcurveto
          endchar
        </CharString>
        <CharString name="notequal">
          80 callgsubr
          400 348 rmoveto
          -56 hlineto
          33 52 rlineto
          25 15 -3 14 -36 hhcurveto
          -12 hlineto
          -21 -9 -9 -14 -9 hvcurveto
          -43 -68 rlineto
          -191 hlineto
          -16 -9 -11 -24 92 callgsubr
          6 -12 17 hhcurveto
          149 hlineto
          -58 -90 rlineto
          -100 hlineto
          -17 -9 -11 -25 92 callgsubr
          7 -12 16 hhcurveto
          59 hlineto
          -38 -59 rlineto
          -22 -13 3 -13 37 hhcurveto
          10 hlineto
          22 7 7 16 10 hvcurveto
          46 71 rlineto
          189 85 callgsubr
          -148 hlineto
          58 90 rlineto
          99 85 callsubr
          endchar
        </CharString>
        <CharString name="ntilde">
          96 callgsubr
          58 66 -29 66 58 callsubr
          hintmask 11011100
          143 1 callsubr
          hintmask 11101100
          -97 callgsubr
          hintmask 11011100
          -83 callgsubr
          306 -509 -5 callgsubr
          hintmask 11011010
          11 9 77 19 179 vhcurveto
          -94 callsubr
          hintmask 11011100
          -53 callsubr
          endchar
        </CharString>
        <CharString name="numbersign">
          5 192 87 136 87 hstem
          14.45 501.09 vstem
          84 -2 rmoveto
          11 hlineto
          28 12 8 16 4 hvcurveto
          42 170 rlineto
          92 hlineto
          -29 -120 -11 -46 -1 -6 rrcurveto
          -15 -2 10 -7 23 hhcurveto
          10 hlineto
          28 13 8 16 4 hvcurveto
          41 170 rlineto
          78 77 callgsubr
          15 114 callsubr
          -65 hlineto
          33 136 rlineto
          73 77 callgsubr
          15 114 callsubr
          -60 hlineto
          40 161 rlineto
          15 3 -10 8 -24 hhcurveto
          -11 hlineto
          -29 -12 -8 -16 -4 hvcurveto
          -39 -160 rlineto
          -93 hlineto
          40 161 rlineto
          15 3 -9 8 -25 hhcurveto
          -10 hlineto
          -29 -12 -8 -16 -4 hvcurveto
          -39 -160 rlineto
          -76 78 callgsubr
          -15 rlineto
          -25 -3 6 -11 16 hhcurveto
          64 hlineto
          -34 -136 rlineto
          -74 78 callgsubr
          -15 rlineto
          -25 -3 6 -11 16 hhcurveto
          61 hlineto
          -29 -115 -13 -52 -1 -6 rrcurveto
          -14 -1 10 -7 23 hhcurveto
          119 281 rmoveto
          33 136 rlineto
          93 hlineto
          -33 -136 rlineto
          endchar
        </CharString>
        <CharString name="o">
          9 callsubr
          hstem
          -67 callsubr
          vstem
          211 -7 -89 callsubr
        </CharString>
        <CharString name="oacute">
          9 callsubr
          hstem
          -67 callsubr
          vstem
          247 582 rmoveto
          -106 callsubr
          -36 -589 -89 callsubr
        </CharString>
        <CharString name="oacute.loclPLK">
          9 callsubr
          52 151 hstem
          -67 callsubr
          vstem
          256 582 -80 callsubr
          -45 -589 -89 callsubr
        </CharString>
        <CharString name="obreve">
          9 callsubr
          52 73 hstem
          -67 callsubr
          vstem
          273 -86 callsubr
          -62 -589 -89 callsubr
        </CharString>
        <CharString name="ocircumflex">
          9 callsubr
          45 143 hstem
          -67 callsubr
          vstem
          177 -103 callgsubr
          34 -41 callgsubr
          endchar
        </CharString>
        <CharString name="odieresis">
          9 callsubr
          69 103 hstemhm
          39.79 106.78 20.93001 -41 callsubr
          -61.24 105.97 hintmask 00000000
          hintmask 11111100
          205 599 -104 callsubr
          hintmask 11110010
          -131 -606 -89 callsubr
        </CharString>
        <CharString name="oe">
          212 -7 86 131 77 157 86 hstem
          39.55 107.02 171.43 106 181 100 vstem
          424 216 rmoveto
          -7 callsubr
          -69 -53 -26 -44 -39 hvcurveto
          45 -27 -43 25 -60 hhcurveto
          -133 -73 -97 -173 -18 hvcurveto
          -173 -18 52 -94 134 hhcurveto
          60 49 23 44 35 hvcurveto
          -50 36 59 -17 61 hhcurveto
          38 72 15 35 27 hvcurveto
          12 16 4 20 0 18 0 16 -5 13 0 flex1
          -16 -37 -47 -71 hhcurveto
          3 callgsubr
          -205 -135 rmoveto
          -38 callgsubr
          128 13 33 55 63 hhcurveto
          49 25 -32 -70 3 hvcurveto
          -12 -43 -6 -49 -51 vvcurveto
          -7 0 -7 1 -6 vhcurveto
          -69 -19 -32 -31 -49 hhcurveto
          330 365 66 callgsubr
        </CharString>
        <CharString name="ogonek">
          -253 -183 65 hstem
          43 63 vstem
          136 -183 rmoveto
          23 22 5 12 19 hvcurveto
          9 6 5 10 12 vvcurveto
          18 -8 8 -15 vhcurveto
          -1 callgsubr
          20 7 30 16 29 hvcurveto
          -45 16 rlineto
          -32 -40 -9 -47 -26 vvcurveto
          -26 9 -64 84 vhcurveto
          endchar
        </CharString>
        <CharString name="ograve">
          9 callsubr
          hstem
          -67 callsubr
          vstem
          288 582 -99 callsubr
          -77 -589 -89 callsubr
        </CharString>
        <CharString name="ohorn">
          9 callsubr
          -73 37 -9 callgsubr
          hintmask 00000000
          hintmask 10110100
          495 547 -70 callsubr
        </CharString>
        <CharString name="ohungarumlaut">
          9 callsubr
          52 151 hstem
          -67 callsubr
          vstem
          189 582 -82 callgsubr
          -116 -589 -89 callsubr
        </CharString>
        <CharString name="omacron">
          9 callsubr
          78 77 hstem
          -67 callsubr
          vstem
          177 608 -90 callgsubr
          34 -615 -89 callsubr
        </CharString>
        <CharString name="one">
          -50 0 85 618 -20 hstem
          25.6 380.52 vstem
          46 hmoveto
          332 hlineto
          16 7 11 25 4 hvcurveto
          1 13 113 callgsubr
          -105 hlineto
          63 596 rlineto
          12 1 -18 10 -15 hhcurveto
          -212 -44 -14 -3 -7 -7 -1 -12 rlinecurve
          -21 -3 2 -39 17 hhcurveto
          139 21 -54 -513 rlineto
          -126 78 callgsubr
          -13 rlineto
          -25 -3 7 -11 16 hhcurveto
          endchar
        </CharString>
        <CharString name="oneeighth">
          119 -4 51 319 51 285 -20 21 -20 hstemhm
          353 61 -30 61 74 62 -47 60 hintmask 11011001
          144 -60 callgsubr
          -9 -297 63 callgsubr
          hintmask 11101001
          26 callgsubr
          hintmask 11011001
          -6 6 -2 9 vhcurveto
          319 -3 rmoveto
          hintmask 11011010
          72 48 48 72 7 hvcurveto
          7 60 -26 28 -31 18 rrcurveto
          hintmask 11010101
          30 16 28 28 5 50 rrcurveto
          67 6 -43 34 -56 hhcurveto
          -62 -48 -38 -67 -7 hvcurveto
          -4 -48 17 -26 25 -18 rrcurveto
          hintmask 11011001
          -33 -16 -31 -31 -5 -59 rrcurveto
          -75 -8 41 -43 68 hhcurveto
          hintmask 11010101
          35 251 rmoveto
          -26 14 -22 16 4 38 rrcurveto
          35 4 22 16 24 hhcurveto
          24 18 -16 -36 -3 hvcurveto
          -4 -31 -17 -21 -24 -15 rrcurveto
          hintmask 11011010
          -30 -200 rmoveto
          -29 -21 21 49 5 hvcurveto
          4 40 18 22 25 16 33 -17 31 -15 -6 -49 rrcurveto
          -40 -3 -26 -27 -31 hhcurveto
          endchar
        </CharString>
        <CharString name="onehalf">
          132 0 49 310 50 293 -20 21 -20 hstemhm
          545 61 hintmask 11011000
          144 -60 callgsubr
          -6 -297 rmoveto
          13 hlineto
          15 10 5 14 7 hvcurveto
          hintmask 11101000
          76 callgsubr
          -14 -12 -5 -14 -5 hvcurveto
          -299 -665 rlineto
          -2 -4 -2 -5 -2 vvcurveto
          hintmask 11011000
          -6 5 -2 10 vhcurveto
          222 1 -53 callgsubr
          endchar
        </CharString>
        <CharString name="onequarter">
          77 92 49 561 -20 21 -20 hstemhm
          434 109 callgsubr
          hintmask 10110000
          144 -60 callgsubr
          -13 -297 63 callgsubr
          hintmask 11010000
          76 callgsubr
          -13 -13 -5 -14 -5 hvcurveto
          -298 -665 rlineto
          -3 -4 -2 -5 -2 vvcurveto
          hintmask 10110000
          -6 6 -2 9 vhcurveto
          320 100 callsubr
          hintmask 10101000
          10 callsubr
          hintmask 10110000
          105 callgsubr
          hintmask 10101000
          59 callsubr
        </CharString>
        <CharString name="ordfeminine">
          -228 438 55 -54 50 165 54 hstemhm
          60 67 66 93 -85.5 58.5 -50 71 hintmask 10111000
          131 438 rmoveto
          26 22 14 28 14 hvcurveto
          hintmask 01111000
          -31 4 20 -10 21 hhcurveto
          34 14 15 23 6 -1 7 -4 hvcurveto
          -4 -3 -1 -5 hhcurveto
          -6 -4 3 13 hvcurveto
          2 26 7 56 6 51 rrcurveto
          hintmask 10110010
          2 19 4 30 7 vvcurveto
          7 -7 5 -15 vhcurveto
          -12 hlineto
          -20 -3 -9 -16 -5 hvcurveto
          11 -9 -16 16 -29 hhcurveto
          -53 -41 -47 -85 -10 hvcurveto
          hintmask 10111000
          -66 -8 15 -72 64 hhcurveto
          23 55 rmoveto
          -29 -3 41 43 5 hvcurveto
          53 6 15 24 30 hhcurveto
          hintmask 10110100
          16 9 -5 -4 6 hvcurveto
          -2 -7 -1 -11 -1 -13 -9 -81 rcurveline
          hintmask 10111000
          -28 -10 -17 -12 -15 hhcurveto
          endchar
        </CharString>
        <CharString name="ordmasculine">
          -217 440 62 144 62 hstem
          63 74 85 74 vstem
          166 440 rmoveto
          74 47 47 86 9 hvcurveto
          86 9 -36 49 -75 hhcurveto
          -75 -47 -49 -86 -9 hvcurveto
          -85 -9 36 -48 76 hhcurveto
          6 62 rmoveto
          -29 -12 22 50 6 hvcurveto
          50 5 15 22 30 hhcurveto
          29 11 -23 -49 -5 hvcurveto
          -50 -6 -14 -22 -30 hhcurveto
          endchar
        </CharString>
        <CharString name="oslash">
          47 callgsubr
          406 459 -44 callgsubr
        </CharString>
        <CharString name="oslashacute">
          47 callgsubr
          246 582 rmoveto
          -106 callsubr
          160 -123 -44 callgsubr
        </CharString>
        <CharString name="otilde">
          9 callsubr
          58 65 callgsubr
          -67 callsubr
          hintmask 11011100
          140 1 callsubr
          hintmask 11101100
          -97 callgsubr
          hintmask 11011100
          -83 callgsubr
          81 -599 -89 callsubr
        </CharString>
        <CharString name="p">
          -25 97 callgsubr
          hstem
          84 104 146.73 106.87 vstem
          65 -207 rmoveto
          15 hlineto
          31 14 8 16 3 hvcurveto
          22 221 rlineto
          -25 21 28 -20 45 hhcurveto
          101 76 96 170 17 hvcurveto
          164 18 -50 107 -95 hhcurveto
          -46 -44 -26 -48 -33 hvcurveto
          31 -3 2 35 -27 hhcurveto
          -15 -59 -5 -20 -2 hvcurveto
          -1 -10 7 -34 -10 -88 -56 -548 rcurveline
          -16 -3 12 -8 32 hhcurveto
          162 287 rmoveto
          -29 -23 13 23 -16 hvcurveto
          28 266 rlineto
          38 25 31 23 30 hhcurveto
          52 19 -65 -119 -13 hvcurveto
          -120 -12 -35 -59 -57 hhcurveto
          endchar
        </CharString>
        <CharString name="paragraph">
          -43 638 62 hstem
          48.32 453.68 vstem
          186 -172 rmoveto
          104 callgsubr
          78 hlineto
          -82 -786 rlineto
          -16 -3 7 -8 18 hhcurveto
          104 callgsubr
          28 hlineto
          16 7 8 17 2 hvcurveto
          1 11 rlineto
          18 2 -6 8 -16 hhcurveto
          -205 hlineto
          -111 -101 -98 -142 -15 hvcurveto
          -14 -130 69 -95 97 -14 -38 -369 rcurveline
          -16 -3 7 -8 18 hhcurveto
          endchar
        </CharString>
        <CharString name="parenleft">
          -260 -211 994 hstem
          11.91 90.19 vstem
          147 -211 rmoveto
          16 22 20 13 2 hvcurveto
          1 6 -2 7 -5 7 -72 114 -19 158 19 172 18 173 51 158 97 113 8 8 1 7 1 7 rrcurveto
          17 2 -22 14 -14 hhcurveto
          -8 -8 -4 -8 -8 hvcurveto
          -112 -110 -77 -179 -21 -196 -21 -196 39 -178 90 -110 rrcurveto
          -9 7 7 -4 8 hhcurveto
          endchar
        </CharString>
        <CharString name="parenright">
          -260 -211 994 hstem
          151.45 90.33 vstem
          2 -211 rmoveto
          8 9 4 9 7 hvcurveto
          113 110 76 178 22 196 20 196 -38 179 -90 110 rrcurveto
          8 -7 -7 4 -8 hhcurveto
          -15 -25 -17 -15 -1 hvcurveto
          -1 -6 2 -7 5 -8 73 -113 18 -158 -18 -173 -19 -174 -53 -158 -96 -114 -5 -6 -3 -6 -1 -6 rrcurveto
          -14 -1 19 -19 16 hhcurveto
          endchar
        </CharString>
        <CharString name="partialdiff">
          -98 -7 83 256 86 231 88 hstem
          298.22 106.95 vstem
          160 -7 rmoveto
          114 100 94 249 26 hvcurveto
          255 26 -73 146 -134 hhcurveto
          -74 -50 -32 -31 -3 hvcurveto
          -16 -2 20 -38 14 12 21 29 43 hhcurveto
          64 45 -96 -174 -13 hvcurveto
          27 -23 -34 12 -36 hhcurveto
          -89 -86 -86 -140 -15 hvcurveto
          -140 -15 72 -59 90 hhcurveto
          11 83 rmoveto
          -51 -11 55 61 6 hvcurveto
          73 8 41 67 50 hhcurveto
          31 20 -15 -29 19 hvcurveto
          -116 -12 -44 -96 -57 hhcurveto
          endchar
        </CharString>
        <CharString name="percent">
          177 -6 64 200 64 56 64 201 64 hstem
          73 76 107.16 74.87 44.97 73.7 109.73 -49 callgsubr
          7 46 callgsubr
          endchar
        </CharString>
        <CharString name="period">
          -321 -2 123 hstemhm
          18 106 callgsubr
          55 -2 114 callgsubr
          2 hvcurveto
          8 73 rlineto
          17 1 -11 8 -32 hhcurveto
          -22 19 callsubr
          endchar
        </CharString>
        <CharString name="periodcentered">
          -295 303 114 hstemhm
          65 106 callgsubr
          114 303 11 callgsubr
        </CharString>
        <CharString name="perthousand">
          477 -6 64 200 64 56 64 201 64 hstem
          73 76 107.16 74.87 44.97 73.7 109.73 73.57 45 76 107.43 -49 callgsubr
          302 hmoveto
          59 73 28 135 14 hvcurveto
          136 14 -66 29 -59 hhcurveto
          -61 -71 -29 -136 -14 hvcurveto
          -135 -14 67 -28 58 hhcurveto
          -295 46 callgsubr
          302 hmoveto
          -45 -2 49 50 5 67 callgsubr
          endchar
        </CharString>
        <CharString name="pi">
          -2 438 85 hstem
          294.8 102.2 vstem
          70 -2 rmoveto
          12 hlineto
          24 20 9 17 7 hvcurveto
          39 98 41 190 17 126 rrcurveto
          104 hlineto
          -33 -300 rlineto
          -88 -10 -3 -52 44 hhcurveto
          21 hlineto
          28 14 11 15 2 hvcurveto
          2 20 -3 37 8 73 29 284 rcurveline
          40 hlineto
          17 9 6 19 4 hvcurveto
          5 21 2 10 7 vvcurveto
          16 2 -8 6 -17 hhcurveto
          -324 hlineto
          -67 -57 -10 -36 -4 hvcurveto
          -18 -2 -2 -31 24 hhcurveto
          12 14 9 1 51 hvcurveto
          -19 -128 -41 -173 -40 -108 rrcurveto
          -1 -3 -1 -3 -3 vvcurveto
          -13 -2 15 -9 27 hhcurveto
          endchar
        </CharString>
        <CharString name="plus">
          -60 193 78 hstem
          35 372 vstem
          249 466 rmoveto
          -9 hlineto
          -28 -9 -7 -16 -2 hvcurveto
          -18 -172 rlineto
          -121 hlineto
          -19 -8 -20 -27 -21 3 -10 16 hvcurveto
          121 hlineto
          -18 -172 rlineto
          -16 7 -6 27 vhcurveto
          9 hlineto
          23 13 6 16 2 hvcurveto
          18 172 rlineto
          123 hlineto
          21 7 19 28 21 -4 10 -15 hvcurveto
          -124 hlineto
          18 172 rlineto
          16 -8 7 -25 vhcurveto
          endchar
        </CharString>
        <CharString name="plusminus">
          -60 0 83 240 79 hstem
          2 424 vstem
          264 596 rmoveto
          -9 hlineto
          -24 -13 -10 -20 -2 hvcurveto
          -17 -164 rlineto
          -121 hlineto
          -24 -11 -30 -21 -17 7 -11 20 hvcurveto
          120 hlineto
          -17 -163 rlineto
          -20 7 -10 26 vhcurveto
          9 hlineto
          24 13 10 20 2 hvcurveto
          17 163 rlineto
          120 hlineto
          26 9 30 20 18 -7 11 -20 hvcurveto
          -120 hlineto
          18 164 rlineto
          20 -7 10 -26 vhcurveto
          109 -513 rmoveto
          -335 hlineto
          -26 -10 -34 -21 -19 7 -9 20 hvcurveto
          335 hlineto
          24 11 32 23 18 -6 10 -20 hvcurveto
          endchar
        </CharString>
        <CharString name="product">
          91 611 89 hstem
          56 574 vstem
          611 700 rmoveto
          -526 hlineto
          -19 -10 -17 -39 -22 4 -11 16 hvcurveto
          73 hlineto
          -72 -690 rlineto
          -16 9 -9 33 vhcurveto
          12 hlineto
          29 18 -19 callsubr
          72 690 rlineto
          172 hlineto
          -72 -690 rlineto
          -16 9 -9 34 vhcurveto
          11 hlineto
          30 17 -19 callsubr
          72 690 rlineto
          75 hlineto
          18 10 18 38 22 -3 11 -16 hvcurveto
          endchar
        </CharString>
        <CharString name="q">
          -28 97 callgsubr
          -5 -20 hstemhm
          43.32 106.73 hintmask 11010000
          306 -207 rmoveto
          16 hlineto
          31 15 8 16 2 hvcurveto
          hintmask 10110000
          71 683 rlineto
          16 2 -12 9 -28 hhcurveto
          -8 hlineto
          -20 -13 -3 -13 -6 hvcurveto
          hintmask 11010000
          -6 -18 -5 -17 -5 -18 rrcurveto
          48 -23 -40 26 -45 hhcurveto
          -94 -74 -106 -165 -17 hvcurveto
          -171 -19 56 -95 101 hhcurveto
          47 31 20 25 26 hvcurveto
          -23 -221 -34 callsubr
          -8 30 hhcurveto
          -86 287 rmoveto
          -58 -21 57 121 12 hvcurveto
          121 13 33 64 52 hhcurveto
          30 25 -22 -37 18 hvcurveto
          -28 -268 rlineto
          -23 -21 -26 -13 -29 hhcurveto
          endchar
        </CharString>
        <CharString name="question">
          -118 -2 123 495 91 hstem
          70.5 113 -64 callsubr
          114 vstem
          134 208 rmoveto
          18 hlineto
          26 10 7 15 5 hvcurveto
          13 53 37 37 48 46 50 49 52 50 8 76 rrcurveto
          96 10 -68 70 -120 hhcurveto
          -69 -91 -25 -39 -4 hvcurveto
          -16 -2 21 -44 15 13 39 33 56 hhcurveto
          63 29 -30 -56 -6 hvcurveto
          -5 -48 -41 -40 -48 -49 -54 -55 -32 -57 -6 -48 rrcurveto
          -16 -1 9 -9 25 hhcurveto
          -25 -210 rmoveto
          22 hlineto
          32 14 9 16 3 hvcurveto
          7 73 rlineto
          17 2 -13 8 -32 hhcurveto
          -21 hlineto
          -32 -15 -8 -17 -2 hvcurveto
          -7 -73 rlineto
          -16 -3 13 -9 32 hhcurveto
          endchar
        </CharString>
        <CharString name="questiondown">
          -118 -184 91 495 123 hstem
          -11 114 -64 callsubr
          113 vstem
          281 525 rmoveto
          -22 hlineto
          -32 -26 callgsubr
          -3 hvcurveto
          -7 -73 rlineto
          -17 -2 13 -8 32 hhcurveto
          21 hlineto
          32 15 8 17 2 hvcurveto
          7 73 rlineto
          51 callgsubr
          -25 -210 rmoveto
          -18 hlineto
          -26 -10 -7 -15 -5 hvcurveto
          -13 -53 -37 -37 -48 -46 -50 -49 -52 -50 -8 -76 rrcurveto
          -96 -10 68 -70 120 hhcurveto
          69 91 25 39 4 hvcurveto
          16 2 -21 44 -15 -13 -39 -33 -56 hhcurveto
          -63 -29 30 56 6 hvcurveto
          5 48 41 40 48 49 54 55 32 57 6 48 rrcurveto
          16 1 -9 9 -25 hhcurveto
          endchar
        </CharString>
        <CharString name="quotedbl">
          -200 119 callsubr
          80 101 33.5 101.5 vstem
          105 470 rmoveto
          80 callsubr
          2 48 callsubr
          135 hmoveto
          80 callsubr
          1 -12 9 -33 hhcurveto
          -10 hlineto
          -32 82 callgsubr
          -1 -10 3 -180 rlineto
          -12 2 7 -5 15 hhcurveto
          endchar
        </CharString>
        <CharString name="quotedblbase">
          -161 -118 240 hstem
          -12 315 vstem
          20 -118 -15 callgsubr
        </CharString>
        <CharString name="quotedblleft">
          -161 504 240 hstem
          56 315 vstem
          98 504 rmoveto
          -10 callsubr
          148 hmoveto
          -10 callsubr
          endchar
        </CharString>
        <CharString name="quotedblright">
          -161 755 -20 hstem
          35 315 vstem
          67 515 -15 callgsubr
        </CharString>
        <CharString name="quoteleft">
          -299 504 240 hstem
          61 167 vstem
          103 504 rmoveto
          -10 callsubr
          endchar
        </CharString>
        <CharString name="quoteright">
          -299 755 -20 hstem
          60 167 vstem
          92 515 20 callgsubr
          endchar
        </CharString>
        <CharString name="quotesinglbase">
          -299 -118 240 hstem
          -7 167 vstem
          25 -118 20 callgsubr
          endchar
        </CharString>
        <CharString name="quotesingle">
          -345 119 callsubr
          75 102 vstem
          100 470 rmoveto
          6 hlineto
          16 9 5 12 2 hvcurveto
          16 63 27 118 1 9 rrcurveto
          16 1 48 callsubr
          endchar
        </CharString>
        <CharString name="quotesingle.loclGUA">
          -338 700 -20 hstem
          51 128 vstem
          83 392 rmoveto
          22 1 56 108 18 166 rrcurveto
          20 2 -13 13 -28 hhcurveto
          -12 hlineto
          -32 -15 -14 -21 -3 hvcurveto
          -27 -256 rlineto
          -13 -2 21 -4 13 hhcurveto
          endchar
        </CharString>
        <CharString name="r">
          83 callsubr
          110 callgsubr
          hintmask 10100000
          -23 callsubr
          hintmask 01010000
          -28 callgsubr
          hintmask 01100000
          106 callsubr
        </CharString>
        <CharString name="racute">
          83 callsubr
          183 580 rmoveto
          -106 callsubr
          -90 -582 44 callgsubr
          hintmask 10100000
          -23 callsubr
          hintmask 01010000
          -28 callgsubr
          hintmask 01100000
          106 callsubr
        </CharString>
        <CharString name="radical">
          -15 -152 965 hstem
          23 481 vstem
          261 -152 rmoveto
          23 hlineto
          23 15 9 15 4 hvcurveto
          178 917 rlineto
          9 vlineto
          9 -9 6 -23 vhcurveto
          -19 hlineto
          -24 -15 -8 -16 -3 hvcurveto
          -129 -723 -5 -23 -7 -45 -1 -14 rlinecurve
          -2 hlineto
          -2 14 -8 36 -11 35 -72 293 rcurveline
          15 -3 -9 7 -10 hhcurveto
          -14 -60 -31 -20 -37 hvcurveto
          -13 -6 -5 -5 -9 vvcurveto
          -5 1 -5 10 -24 vhcurveto
          -12 4 7 -5 8 hhcurveto
          6 9 4 17 33 hvcurveto
          117 -411 rlineto
          -17 5 16 -7 22 hhcurveto
          endchar
        </CharString>
        <CharString name="rcaron">
          -172 432 98 0 -20 68 143 hstemhm
          49 294 -255 102 hintmask 01110000
          203 578 -105 callsubr
          -110 -580 44 callgsubr
          hintmask 10110000
          -23 callsubr
          hintmask 01101000
          -28 callgsubr
          hintmask 01110000
          106 callsubr
        </CharString>
        <CharString name="rcommaaccent">
          -172 -238 185 485 98 0 -20 hstemhm
          53 94 -59 102 hintmask 00110000
          110 callgsubr
          hintmask 01001000
          -23 callsubr
          -28 callgsubr
          hintmask 00110000
          33 callgsubr
          hintmask 10110000
          -31 -236 -81 callsubr
          endchar
        </CharString>
        <CharString name="registered">
          83 -6 53 276 53 127 53 101 52 hstem
          19 55 130 62 89 64 119 -4 callsubr
          -77 101 rmoveto
          12 hlineto
          18 7 5 10 hvcurveto
          160 24 vlineto
          31 10 -12 -39 12 hvcurveto
          35 -114 rlineto
          -6 2 9 -4 13 hhcurveto
          15 hlineto
          16 8 4 6 2 0 3 -2 4 hvcurveto
          -37 119 -11 34 -12 24 -14 8 rlinecurve
          3 vlineto
          31 15 23 33 49 vvcurveto
          71 -36 33 -77 vhcurveto
          -84 hlineto
          -12 -6 -6 -13 hvcurveto
          -374 vlineto
          -10 8 -5 17 vhcurveto
          37 228 rmoveto
          127 44 vlineto
          27 18 -20 -42 -35 -19 -30 -23 hvcurveto
          endchar
        </CharString>
        <CharString name="ring">
          -253 560 43 91 44 hstem
          82 43 88 44 vstem
          159 -29 callgsubr
          endchar
        </CharString>
        <CharString name="s">
          72 callgsubr
          92 callsubr
          135 -9 -81 callgsubr
        </CharString>
        <CharString name="sacute">
          72 callgsubr
          92 callsubr
          186 582 rmoveto
          -106 callsubr
          -51 -591 -81 callgsubr
        </CharString>
        <CharString name="sacute.loclPLK">
          72 callgsubr
          52 151 92 callsubr
          195 582 -80 callsubr
          -60 -591 -81 callgsubr
        </CharString>
        <CharString name="scaron">
          72 callgsubr
          50 143 92 callsubr
          206 580 -105 callsubr
          -71 -589 -81 callgsubr
        </CharString>
        <CharString name="scedilla">
          -156 -211 56 146 88 365 86 hstemhm
          48 104 0 74 -18 102 hintmask 00000000
          hintmask 11110100
          218 444 rmoveto
          39 24 -23 6 hhcurveto
          13 26 44 18 124 callgsubr
          -62 18 -53 hhcurveto
          -88 -70 -57 -90 -10 hvcurveto
          -7 -80 38 -37 58 -29 47 -25 29 -25 -5 -45 rrcurveto
          -42 -4 -27 -21 -41 -51 -26 35 -9 hhcurveto
          -14 -30 -42 -18 -2 hvcurveto
          hintmask 11101000
          -3 -26 53 -32 66 -5 rrcurveto
          -17 -52 -3 -11 -7 -67 callgsubr
          14 50 rlineto
          hintmask 11110100
          76 13 57 58 8 81 9 83 -39 40 -62 32 -38 22 -33 22 5 46 rrcurveto
          35 5 28 18 33 hhcurveto
          endchar
        </CharString>
        <CharString name="scircumflex">
          72 callgsubr
          45 143 92 callsubr
          116 -103 callgsubr
          19 -584 -81 callgsubr
        </CharString>
        <CharString name="scommaaccent">
          -156 103 callsubr
          42 88 365 86 hstemhm
          48 104 -52 94 14 102 hintmask 01101000
          135 -9 rmoveto
          hintmask 01110100
          -89 callgsubr
          hintmask 01101000
          78 callsubr
          hintmask 11101000
          -26 -227 -81 callsubr
          endchar
        </CharString>
        <CharString name="section">
          -154 -7 88 539 86 hstemhm
          37 97 -62 104 29 102 -63 96 hintmask 11100100
          140 -7 rmoveto
          hintmask 11101000
          84 77 52 93 6 hvcurveto
          4 42 -14 32 -24 25 rrcurveto
          hintmask 11010100
          42 28 25 48 51 vvcurveto
          66 -31 34 -60 32 vhcurveto
          -36 18 -41 16 4 42 rrcurveto
          31 2 25 17 33 42 21 -23 9 hhcurveto
          15 26 47 16 29 -69 17 -42 -84 -75 -52 -91 -7 hvcurveto
          -3 -41 14 -32 24 -23 rrcurveto
          hintmask 11101000
          -46 -29 -24 -48 -53 vvcurveto
          -59 31 -37 54 -29 vhcurveto
          50 -28 36 -13 -3 -40 rrcurveto
          -30 -3 -23 -20 -37 -48 -22 30 -10 hhcurveto
          -12 -32 -44 -20 hvcurveto
          hintmask 11100100
          -30 71 -24 51 vhcurveto
          60 291 rmoveto
          -38 16 -32 16 4 46 4 33 20 16 21 8 38 -17 32 -16 -5 -44 -4 -34 -19 -17 -21 -7 rrcurveto
          endchar
        </CharString>
        <CharString name="semicolon">
          -321 402 123 hstemhm
          55 106 callgsubr
          93 402 rmoveto
          22 hlineto
          31 14 8 17 1 hvcurveto
          8 73 rlineto
          16 2 -11 9 -32 101 callgsubr
          -1 12 -8 31 hhcurveto
          -127 -521 15 callgsubr
        </CharString>
        <CharString name="seven">
          -50 615 85 hstem
          46 422 vstem
          90 -2 rmoveto
          19 hlineto
          23 18 5 12 6 hvcurveto
          308 611 2 3 1 4 1 5 rlinecurve
          23 2 -10 39 -9 hhcurveto
          -352 hlineto
          -16 -8 -13 callgsubr
          16 hhcurveto
          260 hlineto
          -297 -583 rlineto
          -3 -6 -4 -7 -3 vvcurveto
          -13 -1 13 -5 32 hhcurveto
          endchar
        </CharString>
        <CharString name="six">
          -50 -6 85 248 85 291 -20 hstem
          30.53 103.86 vstem
          201 -6 rmoveto
          107 99 75 138 14 hvcurveto
          133 15 -74 72 -86 hhcurveto
          -40 -36 -11 -19 -32 hvcurveto
          41 109 82 88 125 48 9 3 1 5 1 6 rrcurveto
          14 1 -8 48 -25 hhcurveto
          -49 -279 -135 -322 -34 hvcurveto
          -164 -17 68 -88 117 hhcurveto
          12 85 rmoveto
          -45 -45 33 129 14 hvcurveto
          2 19 2 20 4 20 rrcurveto
          13 22 33 14 34 hhcurveto
          51 41 -38 -85 -9 hvcurveto
          -84 -9 -51 -41 -44 hhcurveto
          endchar
        </CharString>
        <CharString name="slash">
          -189 703 -20 hstem
          -15 335 vstem
          15 6 callsubr
        </CharString>
        <CharString name="space">
          -372 endchar
        </CharString>
        <CharString name="sterling">
          -98 0 85 246 85 207 84 hstem
          117 102.5 vstem
          12 hmoveto
          329 hlineto
          16 7 31 callgsubr
          -222 hlineto
          25 17 33 31 12 117 8 81 rcurveline
          104 77 callgsubr
          13 114 callsubr
          -103 hlineto
          9 88 rlineto
          83 8 32 36 63 28 25 -9 6 hhcurveto
          17 15 43 14 1 hvcurveto
          30 4 -63 6 -37 hhcurveto
          -126 -62 -78 -130 -14 hvcurveto
          -8 -83 rlineto
          -49 78 callgsubr
          -13 rlineto
          -25 -3 6 -11 16 hhcurveto
          49 hlineto
          -18 -167 -8 -81 -82 9 -5 -42 rlinecurve
          -1 -17 rlineto
          -23 -3 7 -10 18 hhcurveto
          endchar
        </CharString>
        <CharString name="summation">
          -35 -102 98 615 89 hstem
          -18.02 510.02 vstem
          471 700 rmoveto
          -372 hlineto
          -21 -11 -9 -20 -1 hvcurveto
          -2 -12 -1 -14 3 -11 5 -11 rlinecurve
          143 -309 -217 -336 -8 -11 -4 -10 -2 -13 rlinecurve
          -1 -13 rlineto
          -22 -3 9 -11 20 hhcurveto
          393 hlineto
          16 9 46 callsubr
          3 26 rlineto
          24 3 -7 12 -16 hhcurveto
          -278 hlineto
          -1 4 189 287 6 9 2 6 1 8 rlinecurve
          1 7 -2 7 -3 7 -127 276 rcurveline
          1 4 rlineto
          262 hlineto
          17 9 12 24 2 hvcurveto
          2 17 rlineto
          25 2 -6 11 -17 hhcurveto
          endchar
        </CharString>
        <CharString name="t">
          -211 -7 86 359 85 hstemhm
          67 29 callgsubr
          hintmask 11100000
          178 -7 -8 callsubr
          hintmask 11010000
          37 hlineto
          -55 callsubr
          hintmask 11100000
          -7 callgsubr
          -86 59 -29 52 vhcurveto
          endchar
        </CharString>
        <CharString name="tbar">
          -225 -7 86 177 77 105 85 hstemhm
          67 102 -70 102 -87.5 107.5 hintmask 00000000
          hintmask 01101000
          259 333 rmoveto
          -70 hlineto
          4 31 4 35 4 39 rrcurveto
          hintmask 01100100
          37 hlineto
          -55 callsubr
          hintmask 01101000
          -29 hlineto
          -25 -4 -34 -21 -19 5 -11 15 hvcurveto
          29 hlineto
          -4 -38 -4 -35 -3 -32 rrcurveto
          hintmask 11110000
          -32 hlineto
          -15 -8 -11 callgsubr
          -1 -11 rlineto
          -23 -2 6 -10 16 hhcurveto
          31 hlineto
          -9 -84 -4 -48 -16 53 callgsubr
          28 4 43 8 69 hvcurveto
          hintmask 01101000
          70 hlineto
          16 7 10 23 2 hvcurveto
          2 11 69 callsubr
          endchar
        </CharString>
        <CharString name="tcaron">
          -211 -7 86 359 85 229 -20 hstemhm
          67 29 callgsubr
          63 98 hintmask 11110100
          307 574 rmoveto
          -8 callgsubr
          -13 20 -4 13 vhcurveto
          -129 -581 -8 callsubr
          hintmask 11101100
          37 hlineto
          -55 callsubr
          hintmask 11110100
          -7 callgsubr
          -86 59 -29 52 vhcurveto
          endchar
        </CharString>
        <CharString name="thorn">
          -26 97 callgsubr
          223 -20 hstem
          333.57 106.61 vstem
          64 -207 rmoveto
          16 hlineto
          30 14 8 16 2 hvcurveto
          23 221 rlineto
          -25 21 27 -20 46 hhcurveto
          100 76 96 169 18 hvcurveto
          166 17 -52 106 -93 hhcurveto
          -42 -41 -22 -41 -32 hvcurveto
          27 261 rlineto
          16 2 -12 9 -32 hhcurveto
          -13 hlineto
          -32 -15 -9 -16 -2 hvcurveto
          -95 -911 -34 callsubr
          -8 32 hhcurveto
          162 287 rmoveto
          -29 -23 13 23 -17 hvcurveto
          28 266 rlineto
          38 26 31 23 29 hhcurveto
          52 20 -65 -119 -13 hvcurveto
          -120 -13 -34 -59 -57 hhcurveto
          endchar
        </CharString>
        <CharString name="three">
          -50 -7 86 249 85 208 86 hstemhm
          300 106 -93 105 hintmask 11110000
          173 -7 rmoveto
          118 100 73 135 15 hvcurveto
          10 103 -52 62 -62 20 rrcurveto
          4 vlineto
          hintmask 11101000
          57 22 50 45 9 77 rrcurveto
          108 11 -67 65 -118 hhcurveto
          -67 -97 -23 -36 -3 hvcurveto
          -19 -2 20 -40 14 14 31 32 68 hhcurveto
          78 17 -50 -42 -4 hvcurveto
          -47 -5 -39 -69 -86 hhcurveto
          -33 hlineto
          -16 -8 13 callgsubr
          -2 5 -11 17 hhcurveto
          38 hlineto
          hintmask 11110000
          83 47 -32 -90 -10 hvcurveto
          -97 -10 -71 -30 -56 -72 -36 36 -16 hhcurveto
          -14 -29 -38 -19 -2 hvcurveto
          -37 -3 94 -28 88 hhcurveto
          endchar
        </CharString>
</ttFont>
